<?xml version="1.0" encoding="utf-8"?>
<!-- Generator: Adobe Illustrator 17.0.0, SVG Export Plug-In . SVG Version: 6.00 Build 0)  -->
<!DOCTYPE svg PUBLIC "-//W3C//DTD SVG 1.1//EN" "http://www.w3.org/Graphics/SVG/1.1/DTD/svg11.dtd">
<svg version="1.1" id="Layer_1" xmlns="http://www.w3.org/2000/svg" xmlns:xlink="http://www.w3.org/1999/xlink" x="0px" y="0px"
	 width="200px" height="200px" viewBox="0 0 200 200" enable-background="new 0 0 200 200" xml:space="preserve">
<g>
	<g opacity="0.1">
		<g>
			<defs>
				<rect id="SVGID_1_" x="2.493" y="25.69" width="195.223" height="146.973"/>
			</defs>
			<clipPath id="SVGID_2_">
				<use xlink:href="#SVGID_1_"  overflow="visible"/>
			</clipPath>
			<path clip-path="url(#SVGID_2_)" d="M17.184,69.401c0,4,3.242,7.234,7.236,7.234h53.609c2.804,0,5.389-1.03,7.367-2.734
				c0.443-0.381,0.852-0.793,1.224-1.235c1.675-1.973,2.693-4.522,2.693-7.314c0-6.235-5.058-11.29-11.283-11.29h-0.016
				c0-0.18,0.016-0.367,0.016-0.548c0-10.697-8.672-19.369-19.369-19.369c-8.738,0-16.13,5.795-18.535,13.758
				c-1.458-0.69-3.086-1.08-4.799-1.08c-2.933,0-5.592,1.111-7.602,2.943c-0.037,0.037-0.078,0.078-0.124,0.115l-0.518,0.528
				c-0.047,0.038-0.078,0.078-0.118,0.115c-1.822,2.009-2.931,4.671-2.931,7.595c0,1.433,0.271,2.806,0.761,4.063
				c-0.124-0.006-0.25-0.015-0.374-0.015C20.426,62.165,17.184,65.407,17.184,69.401"/>
			<path clip-path="url(#SVGID_2_)" d="M129.216,42.523c0,1.91-1.549,3.453-3.455,3.453h-25.597c-1.339,0-2.573-0.491-3.518-1.305
				c-0.211-0.182-0.407-0.379-0.584-0.59c-0.8-0.942-1.286-2.159-1.286-3.493c0-2.977,2.415-5.391,5.387-5.391h0.008
				c0-0.086-0.008-0.175-0.008-0.262c0-5.107,4.141-9.248,9.248-9.248c4.172,0,7.701,2.767,8.85,6.569
				c0.696-0.33,1.474-0.516,2.292-0.516c1.4,0,2.67,0.531,3.629,1.405c0.018,0.018,0.037,0.038,0.059,0.056l0.247,0.251
				c0.022,0.018,0.038,0.038,0.057,0.055c0.87,0.96,1.399,2.231,1.399,3.627c0,0.684-0.13,1.339-0.363,1.94
				c0.059-0.003,0.118-0.008,0.179-0.008C127.668,39.068,129.216,40.616,129.216,42.523"/>
			<g opacity="0.8" clip-path="url(#SVGID_2_)">
				<g>
					<defs>
						<rect id="SVGID_3_" x="44.998" y="62.18" width="115.8" height="4.455"/>
					</defs>
					<clipPath id="SVGID_4_">
						<use xlink:href="#SVGID_3_"  overflow="visible"/>
					</clipPath>
					<rect x="44.998" y="62.183" clip-path="url(#SVGID_4_)" width="115.8" height="4.447"/>
				</g>
			</g>
			<path clip-path="url(#SVGID_2_)" d="M47.993,63.205c-0.664,0-1.203,0.538-1.203,1.2c0,0.664,0.539,1.203,1.203,1.203
				c0.663,0,1.2-0.539,1.2-1.203C49.193,63.743,48.656,63.205,47.993,63.205"/>
			<path clip-path="url(#SVGID_2_)" d="M51.32,63.205c-0.664,0-1.203,0.538-1.203,1.2c0,0.664,0.538,1.203,1.203,1.203
				c0.663,0,1.2-0.539,1.2-1.203C52.52,63.743,51.984,63.205,51.32,63.205"/>
			<path clip-path="url(#SVGID_2_)" d="M54.647,63.205c-0.664,0-1.202,0.538-1.202,1.2c0,0.664,0.538,1.203,1.202,1.203
				c0.663,0,1.203-0.539,1.203-1.203C55.849,63.743,55.31,63.205,54.647,63.205"/>
			<path clip-path="url(#SVGID_2_)" d="M117.591,159.132c-0.003-0.022-0.005-0.048-0.008-0.071c-0.17-1.033-0.354-2.133-0.429-3.274
				c-0.1-1.471-0.185-3.011-0.185-4.62v-0.029c0-0.355,0.183-0.724,0.193-1.102H87.337c0.017,0.375,0.22,0.782,0.22,1.131v0.011
				v4.131v0.082c0,6.337-1.337,11.613-6.931,15.007h-2.116v2.261h49.014v-2.261h-2.355
				C120.565,168.134,118.434,164.179,117.591,159.132"/>
			<rect x="78.51" y="168.838" clip-path="url(#SVGID_2_)" width="49.014" height="3.821"/>
			<path clip-path="url(#SVGID_2_)" d="M160.667,57.283H45.129c-2.777,0-5.032,2.251-5.032,5.033v84.169
				c0,2.777,2.255,5.033,5.032,5.033h115.538c2.779,0,5.033-2.256,5.033-5.033V62.315C165.7,59.533,163.446,57.283,160.667,57.283"
				/>
			<path clip-path="url(#SVGID_2_)" d="M160.667,57.283H45.129c-2.779,0-5.032,2.253-5.032,5.033v79.976H165.7V62.315
				C165.7,59.536,163.446,57.283,160.667,57.283"/>
			<path clip-path="url(#SVGID_2_)" d="M160.667,62.183H45.129c-0.071,0-0.131,0.059-0.131,0.132v75.075h115.8V62.315
				C160.798,62.24,160.738,62.183,160.667,62.183"/>
			<g opacity="0.2" clip-path="url(#SVGID_2_)">
				<g>
					<defs>
						<rect id="SVGID_5_" x="87.557" y="151.168" width="30.031" height="7.949"/>
					</defs>
					<clipPath id="SVGID_6_">
						<use xlink:href="#SVGID_5_"  overflow="visible"/>
					</clipPath>
					<path clip-path="url(#SVGID_6_)" d="M116.969,151.166H87.557v0.012c0,1.392,0.027,2.828,0.015,4.142l30.016,3.795
						c-0.177-1.131-0.36-2.191-0.434-3.329C117.055,154.316,116.947,152.775,116.969,151.166"/>
				</g>
			</g>
			<rect x="44.998" y="62.183" clip-path="url(#SVGID_2_)" width="115.8" height="4.447"/>
			<path clip-path="url(#SVGID_2_)" d="M47.993,63.205c-0.664,0-1.203,0.538-1.203,1.2c0,0.664,0.539,1.203,1.203,1.203
				c0.663,0,1.2-0.539,1.2-1.203C49.193,63.743,48.656,63.205,47.993,63.205"/>
			<path clip-path="url(#SVGID_2_)" d="M51.32,63.205c-0.664,0-1.203,0.538-1.203,1.2c0,0.664,0.538,1.203,1.203,1.203
				c0.663,0,1.2-0.539,1.2-1.203C52.52,63.743,51.984,63.205,51.32,63.205"/>
			<path clip-path="url(#SVGID_2_)" d="M54.647,63.205c-0.664,0-1.202,0.538-1.202,1.2c0,0.664,0.538,1.203,1.202,1.203
				c0.663,0,1.203-0.539,1.203-1.203C55.849,63.743,55.31,63.205,54.647,63.205"/>
			<g opacity="0.2" clip-path="url(#SVGID_2_)">
				<g>
					<defs>
						<rect id="SVGID_7_" x="40.097" y="57.287" width="83.197" height="85.006"/>
					</defs>
					<clipPath id="SVGID_8_">
						<use xlink:href="#SVGID_7_"  overflow="visible"/>
					</clipPath>
					<path clip-path="url(#SVGID_8_)" d="M123.291,57.282H45.13c-2.779,0-5.033,2.253-5.033,5.033v79.976h19.905L123.291,57.282z"/>
				</g>
			</g>
			<path clip-path="url(#SVGID_2_)" d="M83.334,88.427c-0.339-0.339-0.888-0.339-1.227,0l-8.544,8.545l-4.572,4.571
				c-0.339,0.339-0.339,0.888,0,1.227l4.572,4.572l8.544,8.544c0.339,0.339,0.888,0.339,1.227,0l3.958-3.958
				c0.339-0.339,0.339-0.888,0-1.227l-7.931-7.931c-0.338-0.339-0.338-0.888,0-1.227l7.931-7.931c0.339-0.339,0.339-0.888,0-1.227
				L83.334,88.427z"/>
			<path clip-path="url(#SVGID_2_)" d="M132.084,96.928l-0.016,0.016l-8.515-8.516c-0.339-0.339-0.888-0.339-1.227,0l-3.988,3.987
				c-0.338,0.339-0.338,0.888,0,1.227l7.902,7.902c0.339,0.338,0.339,0.888,0,1.227l-7.902,7.903c-0.338,0.338-0.338,0.888,0,1.227
				l3.988,3.986c0.338,0.338,0.888,0.338,1.227,0l8.515-8.515l0.016,0.016l5.212-5.214l-0.014-0.016l0.014-0.015L132.084,96.928z"/>
			<path clip-path="url(#SVGID_2_)" d="M97.932,115.168l-4.357-2.676c-0.408-0.251-0.536-0.785-0.285-1.192l13.418-21.844
				c0.251-0.408,0.785-0.536,1.192-0.285l4.357,2.676c0.408,0.251,0.536,0.785,0.285,1.193l-13.417,21.843
				C98.874,115.292,98.34,115.419,97.932,115.168"/>
			<path clip-path="url(#SVGID_2_)" d="M4.94,124.31h51.975c1.352,0,2.447-1.095,2.447-2.447V92.404
				c0-1.351-1.095-2.447-2.447-2.447H4.94c-1.351,0-2.447,1.096-2.447,2.447v29.459C2.493,123.215,3.589,124.31,4.94,124.31"/>
			<path clip-path="url(#SVGID_2_)" d="M53.248,131.302v-9.383c0-0.727-0.59-1.317-1.317-1.317h-9.383
				c-1.173,0-1.761,1.418-0.931,2.248L51,132.233C51.83,133.063,53.248,132.475,53.248,131.302"/>
			<rect x="11.226" y="113.186" clip-path="url(#SVGID_2_)" width="19.702" height="2.386"/>
			<rect x="11.226" y="108.405" clip-path="url(#SVGID_2_)" width="39.403" height="2.392"/>
			<rect x="11.226" y="103.628" clip-path="url(#SVGID_2_)" width="39.403" height="2.389"/>
			<rect x="11.226" y="98.85" clip-path="url(#SVGID_2_)" width="39.403" height="2.389"/>
			<path clip-path="url(#SVGID_2_)" d="M195.271,85.508h-51.975c-1.352,0-2.447-1.095-2.447-2.447V53.601
				c0-1.351,1.095-2.447,2.447-2.447h51.975c1.351,0,2.447,1.096,2.447,2.447V83.06C197.719,84.412,196.622,85.508,195.271,85.508"
				/>
			<path clip-path="url(#SVGID_2_)" d="M146.963,92.499v-9.383c0-0.727,0.59-1.317,1.317-1.317h9.383
				c1.173,0,1.761,1.418,0.931,2.248l-9.383,9.383C148.382,94.26,146.963,93.673,146.963,92.499"/>
			<g clip-path="url(#SVGID_2_)">
				<text transform="matrix(1 0 0 1 149.9163 76.9996)" font-family="'Roboto-Bold'" font-size="24.462">API</text>
			</g>
		</g>
	</g>
	<path fill="#FFFFFF" d="M17.184,65.392c0,4,3.242,7.234,7.236,7.234h53.609c2.804,0,5.389-1.03,7.367-2.734
		c0.443-0.381,0.852-0.793,1.224-1.235c1.675-1.973,2.693-4.522,2.693-7.315c0-6.234-5.058-11.289-11.283-11.289h-0.016
		c0-0.181,0.016-0.367,0.016-0.549c0-10.696-8.672-19.368-19.369-19.368c-8.738,0-16.13,5.795-18.535,13.758
		c-1.458-0.69-3.086-1.08-4.799-1.08c-2.933,0-5.592,1.111-7.602,2.943c-0.037,0.037-0.078,0.078-0.124,0.115l-0.518,0.528
		c-0.047,0.038-0.078,0.077-0.118,0.115c-1.822,2.009-2.931,4.671-2.931,7.595c0,1.433,0.271,2.806,0.761,4.063
		c-0.124-0.006-0.25-0.015-0.374-0.015C20.426,58.156,17.184,61.398,17.184,65.392"/>
	<path fill="#FFFFFF" d="M129.216,38.515c0,1.91-1.549,3.453-3.455,3.453h-25.597c-1.339,0-2.573-0.491-3.518-1.305
		c-0.211-0.182-0.407-0.379-0.584-0.591c-0.8-0.941-1.286-2.159-1.286-3.492c0-2.977,2.415-5.391,5.387-5.391h0.008
		c0-0.086-0.008-0.175-0.008-0.262c0-5.107,4.141-9.248,9.248-9.248c4.172,0,7.701,2.767,8.85,6.569
		c0.696-0.33,1.474-0.516,2.292-0.516c1.4,0,2.67,0.531,3.629,1.405c0.018,0.018,0.037,0.038,0.059,0.056l0.247,0.251
		c0.022,0.018,0.038,0.037,0.057,0.055c0.87,0.96,1.399,2.23,1.399,3.627c0,0.684-0.13,1.339-0.363,1.939
		c0.059-0.003,0.118-0.007,0.179-0.007C127.668,35.06,129.216,36.608,129.216,38.515"/>
	<g opacity="0.8">
		<g>
			<defs>
				<rect id="SVGID_9_" x="44.998" y="58.171" width="115.8" height="4.455"/>
			</defs>
			<clipPath id="SVGID_10_">
				<use xlink:href="#SVGID_9_"  overflow="visible"/>
			</clipPath>
			<rect x="44.998" y="58.174" clip-path="url(#SVGID_10_)" fill="#D0D2D3" width="115.8" height="4.447"/>
		</g>
	</g>
	<path fill="#FFFFFF" d="M47.993,59.197c-0.664,0-1.203,0.538-1.203,1.2c0,0.664,0.539,1.203,1.203,1.203
		c0.663,0,1.2-0.538,1.2-1.203C49.193,59.735,48.656,59.197,47.993,59.197"/>
	<path fill="#FFFFFF" d="M51.32,59.197c-0.664,0-1.203,0.538-1.203,1.2c0,0.664,0.538,1.203,1.203,1.203
		c0.663,0,1.2-0.538,1.2-1.203C52.52,59.735,51.984,59.197,51.32,59.197"/>
	<path fill="#FFFFFF" d="M54.647,59.197c-0.664,0-1.202,0.538-1.202,1.2c0,0.664,0.538,1.203,1.202,1.203
		c0.663,0,1.203-0.538,1.203-1.203C55.849,59.735,55.31,59.197,54.647,59.197"/>
	<path fill="#0A384F" d="M117.591,155.123c-0.003-0.023-0.005-0.049-0.008-0.071c-0.17-1.033-0.354-2.133-0.429-3.274
		c-0.1-1.471-0.185-3.011-0.185-4.62v-0.029c0-0.355,0.183-0.724,0.193-1.102H87.337c0.017,0.375,0.22,0.782,0.22,1.131v0.011v4.13
		v0.083c0,6.337-1.337,11.613-6.931,15.007h-2.116v2.261h49.014v-2.261h-2.355C120.565,164.125,118.434,160.171,117.591,155.123"/>
	<rect x="78.51" y="164.83" fill="#184F70" width="49.014" height="3.821"/>
	<path fill="#184F70" d="M160.667,53.274H45.129c-2.777,0-5.032,2.251-5.032,5.033v84.169c0,2.777,2.255,5.033,5.032,5.033h115.538
		c2.779,0,5.033-2.256,5.033-5.033V58.307C165.7,55.525,163.446,53.274,160.667,53.274"/>
	<path fill="#0A384F" d="M160.667,53.274H45.129c-2.779,0-5.032,2.253-5.032,5.033v79.976H165.7V58.307
		C165.7,55.527,163.446,53.274,160.667,53.274"/>
	<path fill="#FFFFFF" d="M160.667,58.175H45.129c-0.071,0-0.131,0.059-0.131,0.132v75.075h115.8V58.307
		C160.798,58.231,160.738,58.175,160.667,58.175"/>
	<g opacity="0.2">
		<g>
			<defs>
				<rect id="SVGID_11_" x="87.557" y="147.16" width="30.031" height="7.949"/>
			</defs>
			<clipPath id="SVGID_12_">
				<use xlink:href="#SVGID_11_"  overflow="visible"/>
			</clipPath>
			<path clip-path="url(#SVGID_12_)" d="M116.969,147.158H87.557v0.012c0,1.392,0.027,2.828,0.015,4.142l30.016,3.795
				c-0.177-1.132-0.36-2.191-0.434-3.329C117.055,150.308,116.947,148.767,116.969,147.158"/>
		</g>
	</g>
	<rect x="44.998" y="58.174" fill="#D0D2D3" width="115.8" height="4.447"/>
	<path fill="#FFFFFF" d="M47.993,59.197c-0.664,0-1.203,0.538-1.203,1.2c0,0.664,0.539,1.203,1.203,1.203
		c0.663,0,1.2-0.538,1.2-1.203C49.193,59.735,48.656,59.197,47.993,59.197"/>
	<path fill="#FFFFFF" d="M51.32,59.197c-0.664,0-1.203,0.538-1.203,1.2c0,0.664,0.538,1.203,1.203,1.203
		c0.663,0,1.2-0.538,1.2-1.203C52.52,59.735,51.984,59.197,51.32,59.197"/>
	<path fill="#FFFFFF" d="M54.647,59.197c-0.664,0-1.202,0.538-1.202,1.2c0,0.664,0.538,1.203,1.202,1.203
		c0.663,0,1.203-0.538,1.203-1.203C55.849,59.735,55.31,59.197,54.647,59.197"/>
	<g opacity="0.2">
		<g>
			<defs>
				<rect id="SVGID_13_" x="40.097" y="53.278" width="83.197" height="85.006"/>
			</defs>
			<clipPath id="SVGID_14_">
				<use xlink:href="#SVGID_13_"  overflow="visible"/>
			</clipPath>
			<path clip-path="url(#SVGID_14_)" fill="#FFFFFF" d="M123.291,53.274H45.13c-2.779,0-5.033,2.253-5.033,5.033v79.976h19.905
				L123.291,53.274z"/>
		</g>
	</g>
	<path fill="#DD3B33" d="M83.334,84.419c-0.339-0.339-0.888-0.339-1.227,0l-8.544,8.544l-4.572,4.572
		c-0.339,0.339-0.339,0.888,0,1.227l4.572,4.572l8.544,8.544c0.339,0.339,0.888,0.339,1.227,0l3.958-3.958
		c0.339-0.339,0.339-0.888,0-1.227l-7.931-7.931c-0.338-0.339-0.338-0.888,0-1.227l7.931-7.931c0.339-0.338,0.339-0.888,0-1.227
		L83.334,84.419z"/>
	<path fill="#DD3B33" d="M132.084,92.919l-0.016,0.016l-8.515-8.516c-0.339-0.339-0.888-0.339-1.227,0l-3.988,3.987
		c-0.338,0.339-0.338,0.888,0,1.227l7.902,7.902c0.339,0.338,0.339,0.888,0,1.227l-7.902,7.903c-0.338,0.338-0.338,0.888,0,1.226
		l3.988,3.987c0.338,0.338,0.888,0.338,1.227,0l8.515-8.515l0.016,0.016l5.212-5.214l-0.014-0.016l0.014-0.015L132.084,92.919z"/>
	<path fill="#DD3B33" d="M97.932,111.16l-4.357-2.676c-0.408-0.251-0.536-0.785-0.285-1.192l13.418-21.844
		c0.251-0.408,0.785-0.536,1.192-0.285l4.357,2.676c0.408,0.251,0.536,0.785,0.285,1.193l-13.417,21.843
		C98.874,111.283,98.34,111.41,97.932,111.16"/>
	<path fill="#70BA4D" d="M4.94,120.302h51.975c1.352,0,2.447-1.095,2.447-2.447V88.396c0-1.351-1.095-2.447-2.447-2.447H4.94
		c-1.351,0-2.447,1.096-2.447,2.447v29.459C2.493,119.207,3.589,120.302,4.94,120.302"/>
	<path fill="#70BA4D" d="M53.248,127.294v-9.383c0-0.727-0.59-1.317-1.317-1.317h-9.383c-1.173,0-1.761,1.418-0.931,2.248
		L51,128.225C51.83,129.054,53.248,128.467,53.248,127.294"/>
	<rect x="11.226" y="109.179" fill="#FFFFFF" width="19.702" height="2.386"/>
	<rect x="11.226" y="104.398" fill="#FFFFFF" width="39.403" height="2.392"/>
	<rect x="11.226" y="99.62" fill="#FFFFFF" width="39.403" height="2.389"/>
	<rect x="11.226" y="94.842" fill="#FFFFFF" width="39.403" height="2.389"/>
	<path fill="#A7CC55" d="M195.271,81.499h-51.975c-1.352,0-2.447-1.095-2.447-2.447V49.594c0-1.352,1.095-2.448,2.447-2.448h51.975
		c1.351,0,2.447,1.096,2.447,2.448v29.458C197.719,80.404,196.622,81.499,195.271,81.499"/>
	<path fill="#A7CC55" d="M146.963,88.491v-9.383c0-0.727,0.59-1.317,1.317-1.317h9.383c1.173,0,1.761,1.418,0.931,2.248
		l-9.383,9.383C148.382,90.251,146.963,89.664,146.963,88.491"/>
</g>
</svg>
