<?xml version="1.0" encoding="utf-8"?>
<!-- Generator: Adobe Illustrator 17.0.0, SVG Export Plug-In . SVG Version: 6.00 Build 0)  -->
<!DOCTYPE svg PUBLIC "-//W3C//DTD SVG 1.1//EN" "http://www.w3.org/Graphics/SVG/1.1/DTD/svg11.dtd">
<svg version="1.1" id="Layer_1" xmlns="http://www.w3.org/2000/svg" xmlns:xlink="http://www.w3.org/1999/xlink" x="0px" y="0px"
	 width="323px" height="71.333px" viewBox="0 0 323 71.333" enable-background="new 0 0 323 71.333" xml:space="preserve">
<polygon fill="#FFFFFF" points="292.976,71.333 30.024,71.333 0,0 323,0 "/>
<g>
	<g>
		<path fill="#FFFFFF" d="M64.069,23.725l-16.691-9.589l-1.312-0.769l-1.312,0.769l-16.691,9.589l-1.312,0.769v1.538v19.224v1.538
			l1.312,0.769l16.646,9.635l1.312,0.769l1.312-0.769l16.646-9.635l1.312-0.769v-1.538V26.032v-1.538L64.069,23.725z M64.386,26.53
			v18.229v1.447l-1.267,0.724l-15.786,9.137l-1.267,0.724L44.8,56.066l-15.786-9.137l-1.267-0.724v-1.447V26.53v-1.447l1.267-0.724
			L44.8,15.221l1.267-0.724l1.267,0.724l15.786,9.137l1.267,0.724V26.53z"/>
		<polygon points="30.281,28.158 30.281,44.17 38.83,39.24 		"/>
		<polygon points="61.853,44.17 61.853,28.158 53.304,39.24 		"/>
		<polygon points="46.881,47.517 46.564,47.879 46.564,53.579 61.355,45.075 52.671,40.054 		"/>
		<path d="M30.281,26.53L30.281,26.53L30.281,26.53z"/>
		<polygon points="40.277,39.466 40.368,39.511 46.067,46.884 42.493,42.316 		"/>
		<polygon points="39.463,40.054 30.778,45.075 45.569,53.579 45.569,47.879 45.253,47.517 		"/>
		<path d="M47.333,15.221l-1.267-0.724L44.8,15.221l-15.786,9.137l-1.267,0.724v1.447v18.229v1.447l1.267,0.724L44.8,56.066
			l1.267,0.724l1.267-0.724l15.786-9.137l1.267-0.724v-1.447V26.53v-1.447l-1.267-0.724L47.333,15.221z M62.848,26.53v18.229v0.588
			l-0.498,0.271l-15.786,9.137l-0.498,0.271l-0.498-0.271l-15.786-9.137l-0.498-0.271v-0.588V26.53v-0.588l0.498-0.271l15.786-9.137
			l0.498-0.271l0.498,0.271L62.35,25.67l0.498,0.271V26.53z"/>
		<polygon points="52.399,38.742 61.853,26.53 52.037,39.195 		"/>
		<polygon points="60.813,25.942 46.067,17.393 31.321,25.942 46.067,33.45 		"/>
		<path fill="#FFFFFF" d="M46.564,16.533l-0.498-0.271l-0.498,0.271L29.783,25.67l-0.498,0.271v0.588v18.229v0.588l0.498,0.271
			l15.786,9.137l0.498,0.271l0.498-0.271l15.786-9.137l0.498-0.271v-0.588V26.53v-0.588L62.35,25.67L46.564,16.533z M46.067,17.393
			l14.746,8.504L46.067,33.45l-14.746-7.509L46.067,17.393z M45.569,53.579l-14.791-8.504l8.685-5.021l5.79,7.509l0.271,0.362v5.654
			H45.569z M30.281,44.17V28.158L38.83,39.24L30.281,44.17z M46.564,53.579v-5.699l0.271-0.362l5.79-7.509l8.685,5.021
			L46.564,53.579z M61.853,44.17l-8.549-4.93l8.549-11.082V44.17z M52.399,38.742l-0.362,0.498l-5.971,7.69l0,0l0,0l0,0
			l-5.699-7.418l-0.09-0.045L30.281,26.53l0,0l0,0l13.525,6.875l2.262,1.176l15.786-8.051L52.399,38.742z"/>
		<polygon points="43.805,33.405 30.281,26.53 30.281,26.53 		"/>
		
			<linearGradient id="SVGID_1_" gradientUnits="userSpaceOnUse" x1="48.0446" y1="170.8542" x2="81.7588" y2="170.8542" gradientTransform="matrix(0.9368 0 0 -0.9368 -14.726 190.018)">
			<stop  offset="0" style="stop-color:#33994B"/>
			<stop  offset="0.3397" style="stop-color:#6FB64D"/>
			<stop  offset="1" style="stop-color:#A3C851"/>
		</linearGradient>
		<polygon fill="url(#SVGID_1_)" points="43.805,33.405 30.281,26.53 30.281,26.53 		"/>
		<polygon points="46.067,34.581 46.067,46.884 51.766,39.511 52.037,39.195 61.853,26.53 		"/>
		
			<linearGradient id="SVGID_2_" gradientUnits="userSpaceOnUse" x1="48.0446" y1="163.6597" x2="81.748" y2="163.6597" gradientTransform="matrix(0.9368 0 0 -0.9368 -14.726 190.018)">
			<stop  offset="0" style="stop-color:#33994B"/>
			<stop  offset="0.3397" style="stop-color:#6FB64D"/>
			<stop  offset="1" style="stop-color:#A3C851"/>
		</linearGradient>
		<polygon fill="url(#SVGID_2_)" points="46.067,34.581 46.067,46.884 51.766,39.511 52.037,39.195 61.853,26.53 		"/>
		<polygon points="42.493,42.316 46.067,46.884 46.067,46.884 		"/>
		
			<linearGradient id="SVGID_3_" gradientUnits="userSpaceOnUse" x1="48.0358" y1="155.2338" x2="81.75" y2="155.2338" gradientTransform="matrix(0.9368 0 0 -0.9368 -14.726 190.018)">
			<stop  offset="0" style="stop-color:#33994B"/>
			<stop  offset="0.3397" style="stop-color:#6FB64D"/>
			<stop  offset="1" style="stop-color:#A3C851"/>
		</linearGradient>
		<polygon fill="url(#SVGID_3_)" points="42.493,42.316 46.067,46.884 46.067,46.884 		"/>
		<path fill="#FFFFFF" d="M46.067,46.884L46.067,46.884L46.067,46.884z"/>
		
			<linearGradient id="SVGID_4_" gradientUnits="userSpaceOnUse" x1="64.8963" y1="152.7954" x2="64.8963" y2="152.7954" gradientTransform="matrix(0.9368 0 0 -0.9368 -14.726 190.018)">
			<stop  offset="0" style="stop-color:#33994B"/>
			<stop  offset="0.3397" style="stop-color:#6FB64D"/>
			<stop  offset="1" style="stop-color:#A3C851"/>
		</linearGradient>
		<path fill="url(#SVGID_4_)" d="M46.067,46.884L46.067,46.884L46.067,46.884z"/>
		<polygon fill="#FFFFFF" points="46.067,46.884 46.067,46.884 52.037,39.195 51.766,39.511 		"/>
		
			<linearGradient id="SVGID_5_" gradientUnits="userSpaceOnUse" x1="48.0358" y1="156.8997" x2="81.75" y2="156.8997" gradientTransform="matrix(0.9368 0 0 -0.9368 -14.726 190.018)">
			<stop  offset="0" style="stop-color:#33994B"/>
			<stop  offset="0.3397" style="stop-color:#6FB64D"/>
			<stop  offset="1" style="stop-color:#A3C851"/>
		</linearGradient>
		<polygon fill="url(#SVGID_5_)" points="46.067,46.884 46.067,46.884 52.037,39.195 51.766,39.511 		"/>
		<polygon points="30.281,26.53 30.281,26.53 39.734,38.742 40.277,39.466 42.493,42.316 		"/>
		
			<linearGradient id="SVGID_6_" gradientUnits="userSpaceOnUse" x1="-5459.2896" y1="152.7716" x2="-5459.2896" y2="174.525" gradientTransform="matrix(-0.9368 0 0 -0.9368 -5077.7017 190.018)">
			<stop  offset="0" style="stop-color:#026839"/>
			<stop  offset="0.3795" style="stop-color:#33994B"/>
			<stop  offset="1" style="stop-color:#6FB64D"/>
		</linearGradient>
		<polygon fill="url(#SVGID_6_)" points="30.281,26.53 30.281,26.53 39.734,38.742 40.277,39.466 42.493,42.316 		"/>
		<path fill="#FFFFFF" d="M46.067,34.581l-2.262-1.176L46.067,34.581z"/>
		
			<linearGradient id="SVGID_7_" gradientUnits="userSpaceOnUse" x1="-5468.4155" y1="152.7716" x2="-5468.4155" y2="174.525" gradientTransform="matrix(-0.9368 0 0 -0.9368 -5077.7017 190.018)">
			<stop  offset="0" style="stop-color:#026839"/>
			<stop  offset="0.3795" style="stop-color:#33994B"/>
			<stop  offset="1" style="stop-color:#6FB64D"/>
		</linearGradient>
		<path fill="url(#SVGID_7_)" d="M46.067,34.581l-2.262-1.176L46.067,34.581z"/>
		<polygon fill="#FFFFFF" points="30.281,26.53 30.281,26.53 40.277,39.466 39.734,38.742 		"/>
		
			<linearGradient id="SVGID_8_" gradientUnits="userSpaceOnUse" x1="-5458.1069" y1="152.7716" x2="-5458.1069" y2="174.525" gradientTransform="matrix(-0.9368 0 0 -0.9368 -5077.7017 190.018)">
			<stop  offset="0" style="stop-color:#026839"/>
			<stop  offset="0.3795" style="stop-color:#33994B"/>
			<stop  offset="1" style="stop-color:#6FB64D"/>
		</linearGradient>
		<polygon fill="url(#SVGID_8_)" points="30.281,26.53 30.281,26.53 40.277,39.466 39.734,38.742 		"/>
		<path fill="#FFFFFF" d="M46.067,46.884L46.067,46.884L46.067,46.884z"/>
		
			<linearGradient id="SVGID_9_" gradientUnits="userSpaceOnUse" x1="-5469.623" y1="152.7954" x2="-5469.623" y2="152.7954" gradientTransform="matrix(-0.9368 0 0 -0.9368 -5077.7017 190.018)">
			<stop  offset="0" style="stop-color:#026839"/>
			<stop  offset="0.3795" style="stop-color:#33994B"/>
			<stop  offset="1" style="stop-color:#6FB64D"/>
		</linearGradient>
		<path fill="url(#SVGID_9_)" d="M46.067,46.884L46.067,46.884L46.067,46.884z"/>
		<polygon points="42.493,42.316 46.067,46.884 46.067,46.884 46.067,34.581 46.067,34.581 46.067,34.581 43.805,33.405 
			30.281,26.53 		"/>
		
			<linearGradient id="SVGID_10_" gradientUnits="userSpaceOnUse" x1="48.0446" y1="163.6597" x2="81.748" y2="163.6597" gradientTransform="matrix(0.9368 0 0 -0.9368 -14.726 190.018)">
			<stop  offset="0" style="stop-color:#33994B"/>
			<stop  offset="0.3397" style="stop-color:#6FB64D"/>
			<stop  offset="1" style="stop-color:#A3C851"/>
		</linearGradient>
		<polygon fill="url(#SVGID_10_)" points="42.493,42.316 46.067,46.884 46.067,46.884 46.067,34.581 46.067,34.581 46.067,34.581 
			43.805,33.405 30.281,26.53 		"/>
		
			<linearGradient id="SVGID_11_" gradientUnits="userSpaceOnUse" x1="-5461.1973" y1="152.7716" x2="-5461.1973" y2="174.5249" gradientTransform="matrix(-0.9368 0 0 -0.9368 -5077.7017 190.018)">
			<stop  offset="0" style="stop-color:#026839"/>
			<stop  offset="0.3795" style="stop-color:#33994B"/>
			<stop  offset="1" style="stop-color:#6FB64D"/>
		</linearGradient>
		<polygon fill="url(#SVGID_11_)" points="42.493,42.316 46.067,46.884 46.067,46.884 46.067,34.581 46.067,34.581 46.067,34.581 
			43.805,33.405 30.281,26.53 		"/>
		<polygon fill="#FFFFFF" points="46.067,46.884 46.067,46.884 46.067,46.884 		"/>
		
			<linearGradient id="SVGID_12_" gradientUnits="userSpaceOnUse" x1="64.8963" y1="152.7954" x2="64.8963" y2="152.7954" gradientTransform="matrix(0.9368 0 0 -0.9368 -14.726 190.018)">
			<stop  offset="0" style="stop-color:#33994B"/>
			<stop  offset="0.3397" style="stop-color:#6FB64D"/>
			<stop  offset="1" style="stop-color:#A3C851"/>
		</linearGradient>
		<polygon fill="url(#SVGID_12_)" points="46.067,46.884 46.067,46.884 46.067,46.884 		"/>
		
			<linearGradient id="SVGID_13_" gradientUnits="userSpaceOnUse" x1="-5469.623" y1="152.7954" x2="-5469.623" y2="152.7954" gradientTransform="matrix(-0.9368 0 0 -0.9368 -5077.7017 190.018)">
			<stop  offset="0" style="stop-color:#026839"/>
			<stop  offset="0.3795" style="stop-color:#33994B"/>
			<stop  offset="1" style="stop-color:#6FB64D"/>
		</linearGradient>
		<polygon fill="url(#SVGID_13_)" points="46.067,46.884 46.067,46.884 46.067,46.884 		"/>
	</g>
	<g>
		<g>
			<polygon points="89.445,37.431 95.461,37.431 95.461,33.993 89.445,33.993 89.445,31.46 95.777,31.46 95.777,27.887 
				85.012,27.887 85.012,43.718 96.184,43.718 96.184,40.145 89.445,40.145 			"/>
		</g>
		<g>
			<path d="M110.071,35.576c0.498-0.769,0.724-1.674,0.724-2.804c0-0.905-0.136-1.674-0.452-2.307
				c-0.317-0.633-0.769-1.131-1.312-1.538c-0.543-0.362-1.176-0.678-1.945-0.814c-0.724-0.181-1.538-0.271-2.397-0.271h-6.287
				v15.831h4.433v-5.564h1.04l2.94,5.609h4.976l-3.709-6.468C108.895,36.888,109.573,36.345,110.071,35.576z M106.136,33.812
				c-0.136,0.226-0.271,0.407-0.452,0.543c-0.181,0.136-0.407,0.226-0.633,0.271c-0.226,0.045-0.498,0.09-0.724,0.09h-1.493V31.46
				h1.493c0.543,0,0.995,0.09,1.402,0.317c0.407,0.181,0.588,0.588,0.588,1.176C106.316,33.314,106.271,33.586,106.136,33.812z"/>
		</g>
		<g>
			<rect x="112.604" y="27.887" width="4.523" height="15.831"/>
		</g>
		<g>
			<path d="M131.149,29.605c-0.814-0.633-1.764-1.04-2.804-1.312c-1.04-0.271-2.171-0.407-3.302-0.407h-5.88v15.831h6.016
				c1.131,0,2.216-0.136,3.257-0.452c1.04-0.317,1.99-0.769,2.804-1.447c0.814-0.633,1.447-1.493,1.945-2.488
				c0.498-0.995,0.724-2.171,0.724-3.573c0-1.493-0.226-2.759-0.724-3.754C132.642,31.008,131.963,30.193,131.149,29.605z
				 M128.797,37.747c-0.226,0.543-0.543,0.995-0.95,1.312c-0.407,0.317-0.859,0.588-1.402,0.724s-1.086,0.226-1.674,0.226h-1.131
				v-8.413h1.221c0.588,0,1.131,0.09,1.674,0.226c0.498,0.136,0.95,0.362,1.357,0.678c0.362,0.317,0.678,0.724,0.905,1.267
				c0.226,0.543,0.317,1.176,0.317,1.99C129.114,36.526,129.023,37.204,128.797,37.747z"/>
		</g>
		<g>
			<polygon points="76.101,37.566 72.573,27.887 68.05,27.887 73.794,43.718 78.318,43.718 84.153,27.887 79.629,27.887 			"/>
		</g>
		<g>
			<path d="M143.543,27.479c-4.614,0-8.323,3.709-8.323,8.323s3.709,8.323,8.323,8.323c4.568,0,8.323-3.709,8.323-8.323
				C151.866,31.188,148.156,27.479,143.543,27.479z M143.543,39.873c-2.262,0-4.071-1.809-4.071-4.071
				c0-2.262,1.809-4.071,4.071-4.071s4.071,1.809,4.071,4.071C147.614,38.064,145.759,39.873,143.543,39.873z"/>
		</g>
		<g>
			<path d="M161.41,39.873c-2.262,0-4.071-1.809-4.071-4.071c0-2.262,1.855-4.071,4.071-4.071c1.674,0,3.121,0.995,3.754,2.397
				l4.071-1.086c-1.131-3.257-4.207-5.564-7.825-5.564c-4.614,0-8.323,3.709-8.323,8.323s3.709,8.323,8.323,8.323
				c3.573,0,6.649-2.262,7.825-5.473l-4.116-1.086C164.485,38.923,163.038,39.873,161.41,39.873z"/>
		</g>
	</g>
	<g>
		<g>
			
				<linearGradient id="SVGID_14_" gradientUnits="userSpaceOnUse" x1="169.2186" y1="164.6948" x2="321.7123" y2="164.6948" gradientTransform="matrix(0.9368 0 0 -0.9368 -14.726 190.018)">
				<stop  offset="0" style="stop-color:#006537"/>
				<stop  offset="0.33" style="stop-color:#008A40"/>
				<stop  offset="0.66" style="stop-color:#36AC47"/>
				<stop  offset="1" style="stop-color:#9AC341"/>
			</linearGradient>
			<path fill="url(#SVGID_14_)" d="M189.906,38.426c-0.09,1.176-0.498,2.171-1.131,3.076c-0.678,0.905-1.538,1.583-2.623,2.081
				c-1.086,0.498-2.262,0.724-3.483,0.678c-1.719-0.045-3.076-0.588-4.071-1.674c-0.995-1.086-1.538-2.533-1.628-4.388
				c-0.09-1.221,0.045-2.578,0.407-4.026c0.317-1.447,0.905-2.714,1.628-3.8c0.769-1.086,1.674-1.855,2.714-2.397
				s2.171-0.769,3.392-0.769c1.809,0.045,3.212,0.588,4.297,1.628c1.04,1.04,1.628,2.488,1.719,4.342h-3.89
				c0-0.995-0.181-1.719-0.543-2.171c-0.362-0.452-0.995-0.678-1.809-0.678c-2.035-0.09-3.302,1.538-3.754,4.795
				c-0.226,1.447-0.317,2.533-0.317,3.166c-0.045,1.855,0.633,2.804,2.081,2.895c0.905,0.045,1.628-0.181,2.171-0.678
				c0.543-0.498,0.905-1.176,1.04-2.035L189.906,38.426z"/>
			
				<linearGradient id="SVGID_15_" gradientUnits="userSpaceOnUse" x1="169.2186" y1="162.3573" x2="321.7123" y2="162.3573" gradientTransform="matrix(0.9368 0 0 -0.9368 -14.726 190.018)">
				<stop  offset="0" style="stop-color:#006537"/>
				<stop  offset="0.33" style="stop-color:#008A40"/>
				<stop  offset="0.66" style="stop-color:#36AC47"/>
				<stop  offset="1" style="stop-color:#9AC341"/>
			</linearGradient>
			<path fill="url(#SVGID_15_)" d="M196.917,44.306c-1.086,0-2.081-0.271-2.94-0.769c-0.859-0.498-1.493-1.221-1.945-2.126
				s-0.633-1.9-0.543-3.031l0.045-0.317c0.226-2.035,0.905-3.619,2.126-4.795c1.221-1.176,2.669-1.764,4.433-1.719
				c1.04,0,1.945,0.271,2.714,0.814c0.769,0.498,1.312,1.221,1.628,2.171c0.362,0.905,0.452,1.945,0.362,3.076l-0.226,1.538h-7.328
				c0,0.633,0.181,1.176,0.543,1.583c0.362,0.407,0.859,0.633,1.538,0.633c1.086,0.045,2.035-0.407,2.94-1.267l1.583,2.081
				c-0.452,0.678-1.086,1.176-1.945,1.538c-0.814,0.362-1.719,0.588-2.714,0.588L196.917,44.306L196.917,44.306z M197.867,34.49
				c-0.543,0-0.995,0.136-1.402,0.498c-0.407,0.362-0.724,0.905-0.995,1.719h3.754l0.09-0.317c0.045-0.271,0.045-0.498,0.045-0.724
				C199.133,34.898,198.681,34.536,197.867,34.49z"/>
			
				<linearGradient id="SVGID_16_" gradientUnits="userSpaceOnUse" x1="169.2186" y1="162.4767" x2="321.7123" y2="162.4767" gradientTransform="matrix(0.9368 0 0 -0.9368 -14.726 190.018)">
				<stop  offset="0" style="stop-color:#006537"/>
				<stop  offset="0.33" style="stop-color:#008A40"/>
				<stop  offset="0.66" style="stop-color:#36AC47"/>
				<stop  offset="1" style="stop-color:#9AC341"/>
			</linearGradient>
			<path fill="url(#SVGID_16_)" d="M212.115,35.259c-0.407-0.045-0.769-0.09-1.176-0.136c-1.131-0.045-1.99,0.362-2.578,1.176
				l-1.402,7.78h-3.754l2.126-12.303h3.483l-0.271,1.628c0.814-1.221,1.764-1.855,2.85-1.855c0.317,0,0.678,0.045,1.176,0.181
				L212.115,35.259z"/>
			
				<linearGradient id="SVGID_17_" gradientUnits="userSpaceOnUse" x1="169.2186" y1="163.9192" x2="321.7123" y2="163.9192" gradientTransform="matrix(0.9368 0 0 -0.9368 -14.726 190.018)">
				<stop  offset="0" style="stop-color:#006537"/>
				<stop  offset="0.33" style="stop-color:#008A40"/>
				<stop  offset="0.66" style="stop-color:#36AC47"/>
				<stop  offset="1" style="stop-color:#9AC341"/>
			</linearGradient>
			<path fill="url(#SVGID_17_)" d="M218.9,28.701l-0.543,3.076h1.945l-0.452,2.669h-1.945l-0.95,5.654
				c-0.045,0.407-0.045,0.678,0.09,0.859c0.09,0.181,0.362,0.317,0.769,0.317c0.181,0,0.498,0,0.995-0.045l-0.271,2.759
				c-0.633,0.226-1.312,0.317-1.99,0.271c-1.176,0-2.035-0.362-2.623-1.04s-0.814-1.583-0.724-2.714l0.995-6.106h-1.538l0.452-2.669
				h1.538l0.543-3.076h3.709V28.701z"/>
			
				<linearGradient id="SVGID_18_" gradientUnits="userSpaceOnUse" x1="169.2186" y1="165.06" x2="321.7123" y2="165.06" gradientTransform="matrix(0.9368 0 0 -0.9368 -14.726 190.018)">
				<stop  offset="0" style="stop-color:#006537"/>
				<stop  offset="0.33" style="stop-color:#008A40"/>
				<stop  offset="0.66" style="stop-color:#36AC47"/>
				<stop  offset="1" style="stop-color:#9AC341"/>
			</linearGradient>
			<path fill="url(#SVGID_18_)" d="M223.695,44.08h-3.754l2.126-12.303h3.754L223.695,44.08z M222.428,28.655
				c0-0.543,0.181-0.995,0.588-1.402c0.407-0.362,0.905-0.543,1.493-0.543c0.588,0,1.086,0.181,1.447,0.498
				c0.407,0.317,0.588,0.769,0.588,1.312s-0.181,1.04-0.588,1.402c-0.407,0.362-0.905,0.543-1.493,0.543
				c-0.588,0-1.04-0.181-1.447-0.498C222.654,29.651,222.428,29.198,222.428,28.655z"/>
			
				<linearGradient id="SVGID_19_" gradientUnits="userSpaceOnUse" x1="169.2186" y1="165.2531" x2="321.7123" y2="165.2531" gradientTransform="matrix(0.9368 0 0 -0.9368 -14.726 190.018)">
				<stop  offset="0" style="stop-color:#006537"/>
				<stop  offset="0.33" style="stop-color:#008A40"/>
				<stop  offset="0.66" style="stop-color:#36AC47"/>
				<stop  offset="1" style="stop-color:#9AC341"/>
			</linearGradient>
			<path fill="url(#SVGID_19_)" d="M226.906,44.08l1.674-9.635h-1.719l0.452-2.669h1.719l0.136-1.086
				c0.181-1.312,0.724-2.352,1.583-3.121c0.905-0.814,2.126-1.221,3.573-1.221c0.362,0,0.995,0.09,1.855,0.271l-0.271,2.85
				c-0.362-0.09-0.633-0.136-0.905-0.136c-0.543,0-0.995,0.136-1.357,0.362c-0.362,0.271-0.588,0.633-0.678,1.086l-0.181,0.995
				h2.307l-0.452,2.669h-2.307l-1.674,9.635L226.906,44.08L226.906,44.08z"/>
			
				<linearGradient id="SVGID_20_" gradientUnits="userSpaceOnUse" x1="169.2186" y1="165.06" x2="321.7123" y2="165.06" gradientTransform="matrix(0.9368 0 0 -0.9368 -14.726 190.018)">
				<stop  offset="0" style="stop-color:#006537"/>
				<stop  offset="0.33" style="stop-color:#008A40"/>
				<stop  offset="0.66" style="stop-color:#36AC47"/>
				<stop  offset="1" style="stop-color:#9AC341"/>
			</linearGradient>
			<path fill="url(#SVGID_20_)" d="M238.305,44.08h-3.754l2.126-12.303h3.754L238.305,44.08z M237.038,28.655
				c0-0.543,0.181-0.995,0.588-1.402c0.407-0.362,0.905-0.543,1.493-0.543s1.086,0.181,1.447,0.498
				c0.407,0.317,0.588,0.769,0.588,1.312s-0.181,1.04-0.588,1.402c-0.407,0.362-0.905,0.543-1.493,0.543
				c-0.588,0-1.04-0.181-1.447-0.498C237.264,29.651,237.038,29.198,237.038,28.655z"/>
			
				<linearGradient id="SVGID_21_" gradientUnits="userSpaceOnUse" x1="169.2186" y1="162.3312" x2="321.7123" y2="162.3312" gradientTransform="matrix(0.9368 0 0 -0.9368 -14.726 190.018)">
				<stop  offset="0" style="stop-color:#006537"/>
				<stop  offset="0.33" style="stop-color:#008A40"/>
				<stop  offset="0.66" style="stop-color:#36AC47"/>
				<stop  offset="1" style="stop-color:#9AC341"/>
			</linearGradient>
			<path fill="url(#SVGID_21_)" d="M246.401,41.321c0.543,0,0.95-0.136,1.267-0.452c0.317-0.317,0.498-0.724,0.588-1.221h3.483
				c-0.045,0.905-0.317,1.719-0.814,2.443c-0.498,0.724-1.131,1.267-1.99,1.674c-0.814,0.407-1.719,0.588-2.669,0.543
				c-1.628-0.045-2.895-0.633-3.8-1.764c-0.905-1.131-1.267-2.623-1.086-4.433l0.045-0.271c0.136-1.221,0.498-2.352,1.04-3.302
				c0.543-0.95,1.312-1.719,2.216-2.216c0.905-0.543,1.945-0.769,3.076-0.724c1.447,0.045,2.578,0.498,3.392,1.357
				c0.814,0.905,1.221,2.081,1.176,3.573h-3.483c0.045-1.312-0.407-1.945-1.402-1.99c-1.312-0.045-2.081,1.04-2.262,3.302
				l-0.09,1.176v0.452C245.09,40.687,245.497,41.321,246.401,41.321z"/>
			
				<linearGradient id="SVGID_22_" gradientUnits="userSpaceOnUse" x1="169.2186" y1="162.3596" x2="321.7123" y2="162.3596" gradientTransform="matrix(0.9368 0 0 -0.9368 -14.726 190.018)">
				<stop  offset="0" style="stop-color:#006537"/>
				<stop  offset="0.33" style="stop-color:#008A40"/>
				<stop  offset="0.66" style="stop-color:#36AC47"/>
				<stop  offset="1" style="stop-color:#9AC341"/>
			</linearGradient>
			<path fill="url(#SVGID_22_)" d="M259.473,44.08c-0.09-0.317-0.181-0.678-0.181-1.131c-0.859,0.905-1.854,1.357-3.031,1.357
				c-1.086,0-1.945-0.362-2.669-1.086c-0.724-0.724-1.04-1.538-0.995-2.533c0.045-1.312,0.588-2.352,1.674-3.076
				c1.086-0.724,2.533-1.086,4.388-1.086l1.266,0.045l0.136-0.678l0.045-0.588c-0.045-0.678-0.362-1.04-1.04-1.086
				c-0.814,0-1.312,0.452-1.493,1.357h-3.754c0.045-0.814,0.317-1.538,0.814-2.171c0.498-0.588,1.176-1.086,2.035-1.402
				c0.859-0.317,1.764-0.498,2.759-0.452c0.95,0.045,1.764,0.226,2.443,0.588c0.678,0.362,1.221,0.859,1.583,1.538
				s0.498,1.402,0.407,2.262l-0.905,5.79l-0.045,0.724c-0.045,0.543,0.045,1.04,0.226,1.447v0.226h-3.664V44.08z M257.348,41.592
				c0.769,0.045,1.447-0.317,1.99-0.995l0.362-1.99h-0.95c-0.588,0-1.131,0.181-1.538,0.543c-0.452,0.317-0.678,0.814-0.769,1.402
				c-0.045,0.317,0,0.588,0.181,0.769C256.76,41.456,257.031,41.592,257.348,41.592z"/>
			
				<linearGradient id="SVGID_23_" gradientUnits="userSpaceOnUse" x1="169.2186" y1="163.9192" x2="321.7123" y2="163.9192" gradientTransform="matrix(0.9368 0 0 -0.9368 -14.726 190.018)">
				<stop  offset="0" style="stop-color:#006537"/>
				<stop  offset="0.33" style="stop-color:#008A40"/>
				<stop  offset="0.66" style="stop-color:#36AC47"/>
				<stop  offset="1" style="stop-color:#9AC341"/>
			</linearGradient>
			<path fill="url(#SVGID_23_)" d="M271.641,28.701l-0.543,3.076h1.945l-0.452,2.669h-1.945l-0.95,5.654
				c-0.045,0.407-0.045,0.678,0.09,0.859c0.09,0.181,0.362,0.317,0.769,0.317c0.181,0,0.498,0,0.995-0.045l-0.271,2.759
				c-0.633,0.226-1.312,0.317-1.99,0.271c-1.176,0-2.035-0.362-2.623-1.04s-0.814-1.583-0.724-2.714l0.995-6.106h-1.538l0.452-2.669
				h1.538l0.543-3.076h3.709V28.701z"/>
			
				<linearGradient id="SVGID_24_" gradientUnits="userSpaceOnUse" x1="169.2186" y1="162.3573" x2="321.7123" y2="162.3573" gradientTransform="matrix(0.9368 0 0 -0.9368 -14.726 190.018)">
				<stop  offset="0" style="stop-color:#006537"/>
				<stop  offset="0.33" style="stop-color:#008A40"/>
				<stop  offset="0.66" style="stop-color:#36AC47"/>
				<stop  offset="1" style="stop-color:#9AC341"/>
			</linearGradient>
			<path fill="url(#SVGID_24_)" d="M278.607,44.306c-1.086,0-2.081-0.271-2.94-0.769c-0.859-0.498-1.493-1.221-1.945-2.126
				s-0.633-1.9-0.543-3.031l0.045-0.317c0.226-2.035,0.905-3.619,2.126-4.795c1.221-1.176,2.669-1.764,4.433-1.719
				c1.04,0,1.945,0.271,2.714,0.814c0.769,0.498,1.312,1.221,1.628,2.171c0.362,0.905,0.452,1.945,0.362,3.076l-0.226,1.538h-7.328
				c0,0.633,0.181,1.176,0.543,1.583c0.362,0.407,0.859,0.633,1.538,0.633c1.086,0.045,2.035-0.407,2.94-1.267l1.583,2.081
				c-0.452,0.678-1.086,1.176-1.945,1.538c-0.814,0.362-1.719,0.588-2.714,0.588L278.607,44.306L278.607,44.306z M279.511,34.49
				c-0.543,0-0.995,0.136-1.402,0.498c-0.407,0.362-0.724,0.905-0.995,1.719h3.754l0.09-0.317c0.045-0.271,0.045-0.498,0.045-0.724
				C280.823,34.898,280.326,34.536,279.511,34.49z"/>
			
				<linearGradient id="SVGID_25_" gradientUnits="userSpaceOnUse" x1="169.2186" y1="162.356" x2="321.7123" y2="162.356" gradientTransform="matrix(0.9368 0 0 -0.9368 -14.726 190.018)">
				<stop  offset="0" style="stop-color:#006537"/>
				<stop  offset="0.33" style="stop-color:#008A40"/>
				<stop  offset="0.66" style="stop-color:#36AC47"/>
				<stop  offset="1" style="stop-color:#9AC341"/>
			</linearGradient>
			<path fill="url(#SVGID_25_)" d="M291.815,40.552c0.09-0.498-0.271-0.859-1.176-1.131l-0.814-0.226
				c-1.312-0.362-2.262-0.814-2.895-1.447c-0.633-0.633-0.905-1.357-0.859-2.216c0.045-1.176,0.543-2.126,1.583-2.895
				c1.04-0.769,2.262-1.086,3.709-1.086s2.623,0.362,3.528,1.086c0.905,0.724,1.357,1.674,1.357,2.895h-3.709
				c0.045-0.95-0.407-1.447-1.266-1.447c-0.362,0-0.724,0.09-1.04,0.317c-0.317,0.226-0.498,0.543-0.588,0.905
				c-0.136,0.633,0.407,1.04,1.628,1.267c1.04,0.271,1.854,0.543,2.443,0.859s0.995,0.724,1.312,1.221
				c0.317,0.498,0.452,1.086,0.407,1.764c0,0.724-0.271,1.402-0.724,1.99c-0.452,0.588-1.131,1.04-1.99,1.402
				c-0.859,0.362-1.809,0.498-2.85,0.498c-0.905,0-1.719-0.181-2.488-0.543c-0.769-0.362-1.357-0.859-1.764-1.493
				s-0.633-1.357-0.678-2.171h3.483c0,1.086,0.543,1.628,1.628,1.628c0.452,0,0.859-0.09,1.176-0.317
				C291.543,41.23,291.724,40.913,291.815,40.552z"/>
		</g>
	</g>
</g>
</svg>
