<?xml version="1.0" encoding="utf-8"?>
<!-- Generator: Adobe Illustrator 17.0.0, SVG Export Plug-In . SVG Version: 6.00 Build 0)  -->
<!DOCTYPE svg PUBLIC "-//W3C//DTD SVG 1.1//EN" "http://www.w3.org/Graphics/SVG/1.1/DTD/svg11.dtd">
<svg version="1.1" id="Layer_1" xmlns="http://www.w3.org/2000/svg" xmlns:xlink="http://www.w3.org/1999/xlink" x="0px" y="0px"
	 width="200px" height="200px" viewBox="0 0 200 200" enable-background="new 0 0 200 200" xml:space="preserve">
<g>
	<g opacity="0.1">
		<g>
			<defs>
				<rect id="SVGID_1_" x="1.63" y="67.319" width="197.083" height="116.798"/>
			</defs>
			<clipPath id="SVGID_2_">
				<use xlink:href="#SVGID_1_"  overflow="visible"/>
			</clipPath>
			<path clip-path="url(#SVGID_2_)" d="M16.189,171.304V73.245c0-1.519,0.573-3.038,1.734-4.191c1.161-1.161,2.671-1.733,4.19-1.733
				h156.12c1.518,0,3.036,0.572,4.19,1.733c1.161,1.152,1.741,2.672,1.741,4.191v98.059H16.189z"/>
			<path clip-path="url(#SVGID_2_)" d="M198.713,174.239c0,2.52-0.962,5.049-2.895,6.981c-1.924,1.931-4.453,2.894-6.981,2.894
				H11.514c-2.529,0-5.057-0.962-6.99-2.894c-1.931-1.932-2.894-4.462-2.894-6.981v-2.934h197.083V174.239z"/>
			<path clip-path="url(#SVGID_2_)" d="M121.278,172.227c0,0.939-0.358,1.876-1.073,2.592c-0.724,0.716-1.661,1.073-2.6,1.073
				H82.739c-0.938,0-1.876-0.357-2.592-1.073c-0.715-0.716-1.081-1.653-1.081-2.592v-0.923h42.212V172.227z"/>
			<rect x="23.473" y="74.605" clip-path="url(#SVGID_2_)" width="153.396" height="89.414"/>
		</g>
	</g>
	<path fill="#184F70" d="M16.189,166.801v-98.06c0-1.518,0.573-3.037,1.734-4.19c1.161-1.161,2.671-1.733,4.19-1.733h156.12
		c1.518,0,3.036,0.572,4.19,1.733c1.161,1.152,1.741,2.672,1.741,4.19v98.06H16.189z"/>
	<path fill="#0E3553" d="M198.713,169.736c0,2.52-0.962,5.049-2.895,6.981c-1.924,1.931-4.453,2.894-6.981,2.894H11.514
		c-2.529,0-5.057-0.962-6.99-2.894c-1.931-1.932-2.894-4.462-2.894-6.981v-2.934h197.083V169.736z"/>
	<path fill="#042438" d="M121.278,167.724c0,0.939-0.358,1.877-1.073,2.593c-0.724,0.715-1.661,1.073-2.6,1.073H82.739
		c-0.938,0-1.876-0.358-2.592-1.073c-0.715-0.716-1.081-1.654-1.081-2.593v-0.923h42.212V167.724z"/>
	<rect x="23.473" y="70.102" fill="#B5EDF7" width="153.396" height="89.415"/>
	<g opacity="0.1">
		<g>
			<defs>
				<rect id="SVGID_3_" x="52.225" y="19.02" width="105.694" height="135.457"/>
			</defs>
			<clipPath id="SVGID_4_">
				<use xlink:href="#SVGID_3_"  overflow="visible"/>
			</clipPath>
			<path clip-path="url(#SVGID_4_)" d="M56.438,19.019c-2.317,0-4.213,1.896-4.213,4.213l0.001,118.56
				c0,2.317,1.896,4.213,4.213,4.213h89.279c2.317,0,4.213-1.896,4.213-4.213V45.045c0-1.117-0.444-2.189-1.233-2.979
				l-21.811-21.813c-0.791-0.791-1.862-1.234-2.979-1.234H56.438z"/>
			<rect x="67.842" y="121.309" clip-path="url(#SVGID_4_)" width="40.138" height="4.213"/>
			<rect x="67.842" y="111.132" clip-path="url(#SVGID_4_)" width="50.449" height="4.213"/>
			<rect x="67.842" y="100.786" clip-path="url(#SVGID_4_)" width="69.789" height="4.213"/>
			<rect x="67.842" y="91.037" clip-path="url(#SVGID_4_)" width="69.789" height="4.213"/>
			<rect x="67.842" y="80.859" clip-path="url(#SVGID_4_)" width="69.789" height="4.213"/>
			<rect x="67.842" y="70.681" clip-path="url(#SVGID_4_)" width="69.789" height="4.213"/>
			<rect x="104.56" y="60.336" clip-path="url(#SVGID_4_)" width="33.072" height="4.213"/>
			<rect x="104.56" y="50.587" clip-path="url(#SVGID_4_)" width="33.072" height="4.213"/>
			<g opacity="0.15" clip-path="url(#SVGID_4_)">
				<g>
					<defs>
						<rect id="SVGID_5_" x="127.992" y="43.299" width="21.939" height="23.103"/>
					</defs>
					<clipPath id="SVGID_6_">
						<use xlink:href="#SVGID_5_"  overflow="visible"/>
					</clipPath>
					<polygon clip-path="url(#SVGID_6_)" points="149.931,66.403 149.931,43.3 127.992,43.3 					"/>
				</g>
			</g>
			<path clip-path="url(#SVGID_4_)" d="M125.653,40.314c0,1.643,1.341,2.986,2.984,2.986h21.294l-24.279-24.282V40.314z"/>
			<path clip-path="url(#SVGID_4_)" d="M87.795,64.548h9.961v-9.961h-9.961V64.548z M96.333,57.107v4.923v1.095h-1.096h-4.923
				h-1.094v-1.097v-4.922v-1.095h1.095h4.923h1.095V57.107z"/>
			<rect x="90.641" y="57.434" clip-path="url(#SVGID_4_)" width="4.269" height="4.269"/>
			<path clip-path="url(#SVGID_4_)" d="M67.875,64.548h9.961v-9.961h-9.961V64.548z M76.412,57.107v4.923v1.095h-1.095h-4.923
				h-1.095v-1.097v-4.922v-1.095h1.095h4.923h1.095V57.107z"/>
			<rect x="70.72" y="57.434" clip-path="url(#SVGID_4_)" width="4.269" height="4.269"/>
			<path clip-path="url(#SVGID_4_)" d="M67.875,44.628h9.961v-9.96h-9.961V44.628z M76.412,37.186v4.923v1.095h-1.095h-4.923h-1.095
				v-1.096v-4.923v-1.095h1.095h4.923h1.095V37.186z"/>
			<polygon clip-path="url(#SVGID_4_)" points="70.72,41.782 74.989,41.782 74.989,37.514 74.989,37.514 70.72,37.514 			"/>
			<path clip-path="url(#SVGID_4_)" d="M87.795,44.628h9.961v-9.96h-9.961V44.628z M96.333,37.186v4.923v1.095h-1.096h-4.923h-1.094
				v-1.096v-4.923v-1.095h1.095h4.923h1.095V37.186z"/>
			<polygon clip-path="url(#SVGID_4_)" points="90.641,41.782 94.91,41.782 94.91,37.514 94.91,37.514 90.641,37.514 			"/>
			<rect x="82.104" y="34.669" clip-path="url(#SVGID_4_)" width="1.423" height="1.422"/>
			<polygon clip-path="url(#SVGID_4_)" points="84.949,36.091 84.949,37.513 86.373,37.513 86.373,36.091 86.373,34.669 
				84.949,34.669 			"/>
			<rect x="79.258" y="37.513" clip-path="url(#SVGID_4_)" width="1.424" height="1.424"/>
			<rect x="82.104" y="37.513" clip-path="url(#SVGID_4_)" width="1.423" height="1.424"/>
			<polygon clip-path="url(#SVGID_4_)" points="84.949,40.359 84.949,41.783 86.373,41.783 86.373,40.359 86.373,38.937 
				84.949,38.937 			"/>
			<rect x="84.949" y="43.206" clip-path="url(#SVGID_4_)" width="1.424" height="1.422"/>
			<polygon clip-path="url(#SVGID_4_)" points="74.989,46.051 73.567,46.051 73.567,47.474 74.989,47.474 74.989,48.897 
				76.412,48.897 76.412,47.474 77.835,47.474 77.835,46.051 76.412,46.051 			"/>
			<polygon clip-path="url(#SVGID_4_)" points="82.103,40.359 80.681,40.359 80.681,41.783 80.681,43.206 82.103,43.206 
				82.103,44.628 82.103,46.051 82.103,47.474 82.103,48.897 83.527,48.897 83.527,47.474 83.527,46.051 83.527,44.628 
				83.527,43.206 83.527,41.783 82.103,41.783 			"/>
			<rect x="93.488" y="46.05" clip-path="url(#SVGID_4_)" width="1.422" height="1.423"/>
			<polygon clip-path="url(#SVGID_4_)" points="79.257,46.051 79.257,47.474 79.257,48.897 80.682,48.897 80.682,47.474 
				80.682,46.051 80.682,44.628 79.257,44.628 			"/>
			<polygon clip-path="url(#SVGID_4_)" points="69.298,46.051 67.874,46.051 67.874,47.474 67.874,48.897 69.298,48.897 
				69.298,47.474 70.721,47.474 70.721,48.897 70.721,50.32 72.143,50.32 72.143,48.897 72.143,47.474 72.143,46.051 70.721,46.051 
							"/>
			<rect x="76.412" y="48.896" clip-path="url(#SVGID_4_)" width="1.423" height="1.424"/>
			<rect x="83.527" y="48.896" clip-path="url(#SVGID_4_)" width="1.422" height="1.424"/>
			<polygon clip-path="url(#SVGID_4_)" points="69.298,51.742 67.874,51.742 67.874,53.166 69.298,53.166 70.721,53.166 
				70.721,51.742 70.721,50.32 69.298,50.32 			"/>
			<polygon clip-path="url(#SVGID_4_)" points="74.989,50.32 73.567,50.32 73.567,51.742 72.143,51.742 72.143,53.166 
				73.567,53.166 74.989,53.166 76.412,53.166 76.412,51.742 74.989,51.742 			"/>
			<polygon clip-path="url(#SVGID_4_)" points="86.373,46.051 84.949,46.051 84.949,47.474 86.373,47.474 86.373,48.897 
				86.373,50.32 84.949,50.32 84.949,51.742 86.373,51.742 86.373,53.165 87.795,53.165 89.218,53.165 89.218,51.742 87.795,51.742 
				87.795,50.32 87.795,48.897 87.795,47.474 89.218,47.474 89.218,46.051 87.795,46.051 			"/>
			<polygon clip-path="url(#SVGID_4_)" points="93.487,50.32 93.487,48.896 93.487,47.474 92.063,47.474 92.063,48.896 
				92.063,50.32 90.641,50.32 90.641,48.896 90.641,47.474 89.218,47.474 89.218,48.896 89.218,50.32 89.218,51.742 90.641,51.742 
				92.063,51.742 92.063,53.166 93.487,53.166 94.91,53.166 94.91,51.742 93.487,51.742 			"/>
			<polygon clip-path="url(#SVGID_4_)" points="96.333,48.896 96.333,47.474 94.909,47.474 94.909,48.896 94.909,50.32 
				94.909,51.743 96.333,51.743 97.756,51.743 97.756,50.32 96.333,50.32 			"/>
			<polygon clip-path="url(#SVGID_4_)" points="77.835,51.742 77.835,53.166 79.257,53.166 79.257,51.742 79.257,50.32 
				77.835,50.32 			"/>
			<polygon clip-path="url(#SVGID_4_)" points="82.103,51.742 82.103,50.32 80.681,50.32 80.681,51.742 80.681,53.166 
				79.257,53.166 79.257,54.589 80.681,54.589 82.103,54.589 83.527,54.589 83.527,53.166 82.103,53.166 			"/>
			<rect x="84.949" y="54.589" clip-path="url(#SVGID_4_)" width="1.424" height="1.422"/>
			<polygon clip-path="url(#SVGID_4_)" points="80.681,56.011 79.257,56.011 79.257,57.434 79.257,58.857 80.681,58.857 
				80.681,57.434 82.103,57.434 83.527,57.434 83.527,56.011 82.103,56.011 			"/>
			<rect x="84.949" y="57.434" clip-path="url(#SVGID_4_)" width="1.424" height="1.423"/>
			<rect x="80.681" y="58.857" clip-path="url(#SVGID_4_)" width="1.422" height="1.423"/>
			<polygon clip-path="url(#SVGID_4_)" points="79.257,61.703 79.257,63.127 80.682,63.127 80.682,61.703 80.682,60.28 
				79.257,60.28 			"/>
			<polygon clip-path="url(#SVGID_4_)" points="84.949,60.28 83.527,60.28 82.104,60.28 82.104,61.703 83.527,61.703 83.527,63.127 
				83.527,64.549 84.949,64.549 84.949,63.127 86.373,63.127 86.373,61.703 84.949,61.703 			"/>
			<rect x="80.681" y="63.126" clip-path="url(#SVGID_4_)" width="1.422" height="1.422"/>
			<path clip-path="url(#SVGID_4_)" d="M157.323,139.37l-3.675-2.896c0.049-0.453,0.094-0.993,0.094-1.566
				c0-0.574-0.044-1.115-0.094-1.567l3.677-2.897c0.605-0.48,0.769-1.335,0.385-2.046l-3.746-6.528
				c-0.271-0.501-0.789-0.82-1.372-0.82c-0.193,0-0.391,0.034-0.591,0.108l-4.331,1.753c-0.85-0.627-1.748-1.151-2.677-1.565
				l-0.66-4.638c-0.096-0.779-0.77-1.365-1.567-1.365h-7.51c-0.796,0-1.47,0.586-1.565,1.354l-0.661,4.65
				c-0.899,0.402-1.778,0.918-2.674,1.566l-4.34-1.757c-0.18-0.07-0.368-0.103-0.556-0.103c-0.567,0-1.123,0.303-1.393,0.801
				l-3.753,6.539c-0.404,0.69-0.243,1.552,0.386,2.052l3.674,2.896c-0.064,0.591-0.094,1.095-0.094,1.567
				c0,0.47,0.03,0.975,0.094,1.566l-3.677,2.896c-0.605,0.481-0.769,1.335-0.385,2.046l3.746,6.529
				c0.271,0.499,0.789,0.819,1.372,0.819c0.193,0,0.391-0.035,0.592-0.109l4.331-1.752c0.849,0.626,1.748,1.15,2.677,1.565
				l0.66,4.637c0.096,0.779,0.77,1.366,1.567,1.366h7.51c0.796,0,1.47-0.587,1.565-1.355l0.662-4.649
				c0.898-0.402,1.777-0.919,2.673-1.566l4.341,1.756c0.186,0.074,0.381,0.111,0.58,0.111h0.001c0.575,0,1.102-0.316,1.368-0.809
				l3.763-6.559C158.095,140.705,157.93,139.852,157.323,139.37 M139.152,143.53c-4.777,0-8.665-3.886-8.665-8.662
				c0-4.778,3.888-8.665,8.665-8.665c4.777,0,8.662,3.887,8.662,8.665C147.814,139.644,143.929,143.53,139.152,143.53"/>
		</g>
	</g>
	<path fill="#FFFFFF" d="M56.438,14.516c-2.317,0-4.213,1.896-4.213,4.213l0.001,118.56c0,2.317,1.896,4.213,4.213,4.213h89.279
		c2.317,0,4.213-1.896,4.213-4.213V40.542c0-1.118-0.444-2.189-1.233-2.979l-21.811-21.813c-0.791-0.791-1.862-1.234-2.979-1.234
		H56.438z"/>
	<rect x="67.842" y="116.806" fill="#E6E7E8" width="40.138" height="4.213"/>
	<rect x="67.842" y="106.629" fill="#E6E7E8" width="50.449" height="4.213"/>
	<rect x="67.842" y="96.283" fill="#E6E7E8" width="69.789" height="4.213"/>
	<rect x="67.842" y="86.534" fill="#E6E7E8" width="69.789" height="4.213"/>
	<rect x="67.842" y="76.356" fill="#E6E7E8" width="69.789" height="4.213"/>
	<rect x="67.842" y="66.178" fill="#E6E7E8" width="69.789" height="4.213"/>
	<rect x="104.56" y="55.834" fill="#E6E7E8" width="33.072" height="4.213"/>
	<rect x="104.56" y="46.084" fill="#E6E7E8" width="33.072" height="4.213"/>
	<g opacity="0.15">
		<g>
			<defs>
				<rect id="SVGID_7_" x="127.992" y="38.796" width="21.939" height="23.103"/>
			</defs>
			<clipPath id="SVGID_8_">
				<use xlink:href="#SVGID_7_"  overflow="visible"/>
			</clipPath>
			<polygon clip-path="url(#SVGID_8_)" fill="#A6A8AB" points="149.931,61.901 149.931,38.798 127.992,38.798 			"/>
		</g>
	</g>
	<path fill="#DCDCDC" d="M125.653,35.812c0,1.643,1.341,2.985,2.984,2.985h21.294l-24.279-24.281V35.812z"/>
	<path d="M87.795,60.046h9.961v-9.961h-9.961V60.046z M96.333,52.604v4.923v1.096h-1.096h-4.923h-1.094v-1.098v-4.921v-1.096h1.095
		h4.923h1.095V52.604z"/>
	<rect x="90.641" y="52.931" width="4.269" height="4.269"/>
	<path d="M67.875,60.046h9.961v-9.961h-9.961V60.046z M76.412,52.604v4.923v1.096h-1.095h-4.923h-1.095v-1.098v-4.921v-1.096h1.095
		h4.923h1.095V52.604z"/>
	<rect x="70.72" y="52.931" width="4.269" height="4.269"/>
	<path d="M67.875,40.125h9.961v-9.96h-9.961V40.125z M76.412,32.684v4.923v1.095h-1.095h-4.923h-1.095v-1.096v-4.923v-1.095h1.095
		h4.923h1.095V32.684z"/>
	<polygon points="70.72,37.279 74.989,37.279 74.989,33.013 74.989,33.011 70.72,33.011 	"/>
	<path d="M87.795,40.125h9.961v-9.96h-9.961V40.125z M96.333,32.684v4.923v1.095h-1.096h-4.923h-1.094v-1.096v-4.923v-1.095h1.095
		h4.923h1.095V32.684z"/>
	<polygon points="90.641,37.279 94.91,37.279 94.91,33.013 94.91,33.011 90.641,33.011 	"/>
	<rect x="82.104" y="30.166" width="1.423" height="1.422"/>
	<polygon points="84.949,31.588 84.949,33.011 86.373,33.011 86.373,31.588 86.373,30.166 84.949,30.166 	"/>
	<rect x="79.258" y="33.01" width="1.424" height="1.424"/>
	<rect x="82.104" y="33.01" width="1.423" height="1.424"/>
	<polygon points="84.949,35.857 84.949,37.279 86.373,37.279 86.373,35.857 86.373,34.435 84.949,34.435 	"/>
	<rect x="84.949" y="38.703" width="1.424" height="1.422"/>
	<polygon points="74.989,41.549 73.567,41.549 73.567,42.972 74.989,42.972 74.989,44.394 76.412,44.394 76.412,42.972 
		77.835,42.972 77.835,41.549 76.412,41.549 	"/>
	<polygon points="82.103,35.857 80.681,35.857 80.681,37.279 80.681,38.703 82.103,38.703 82.103,40.126 82.103,41.549 
		82.103,42.971 82.103,44.394 83.527,44.394 83.527,42.971 83.527,41.549 83.527,40.126 83.527,38.703 83.527,37.279 82.103,37.279 
			"/>
	<rect x="93.488" y="41.548" width="1.422" height="1.423"/>
	<polygon points="79.257,41.549 79.257,42.972 79.257,44.394 80.682,44.394 80.682,42.972 80.682,41.549 80.682,40.125 
		79.257,40.125 	"/>
	<polygon points="69.298,41.549 67.874,41.549 67.874,42.972 67.874,44.394 69.298,44.394 69.298,42.972 70.721,42.972 
		70.721,44.394 70.721,45.817 72.143,45.817 72.143,44.394 72.143,42.972 72.143,41.549 70.721,41.549 	"/>
	<rect x="76.412" y="44.394" width="1.423" height="1.423"/>
	<rect x="83.527" y="44.394" width="1.422" height="1.423"/>
	<polygon points="69.298,47.24 67.874,47.24 67.874,48.663 69.298,48.663 70.721,48.663 70.721,47.24 70.721,45.817 69.298,45.817 	
		"/>
	<polygon points="74.989,45.817 73.567,45.817 73.567,47.24 72.143,47.24 72.143,48.664 73.567,48.664 74.989,48.664 76.412,48.664 
		76.412,47.24 74.989,47.24 	"/>
	<polygon points="86.373,41.549 84.949,41.549 84.949,42.972 86.373,42.972 86.373,44.394 86.373,45.817 84.949,45.817 
		84.949,47.24 86.373,47.24 86.373,48.663 87.795,48.663 89.218,48.663 89.218,47.24 87.795,47.24 87.795,45.817 87.795,44.394 
		87.795,42.972 89.218,42.972 89.218,41.549 87.795,41.549 	"/>
	<polygon points="93.487,45.817 93.487,44.394 93.487,42.972 92.063,42.972 92.063,44.394 92.063,45.817 90.641,45.817 
		90.641,44.394 90.641,42.972 89.218,42.972 89.218,44.394 89.218,45.817 89.218,47.24 90.641,47.24 92.063,47.24 92.063,48.664 
		93.487,48.664 94.91,48.664 94.91,47.24 93.487,47.24 	"/>
	<polygon points="96.333,44.394 96.333,42.972 94.909,42.972 94.909,44.394 94.909,45.817 94.909,47.24 96.333,47.24 97.756,47.24 
		97.756,45.817 96.333,45.817 	"/>
	<polygon points="77.835,47.24 77.835,48.663 79.257,48.663 79.257,47.24 79.257,45.817 77.835,45.817 	"/>
	<polygon points="82.103,47.24 82.103,45.817 80.681,45.817 80.681,47.24 80.681,48.663 79.257,48.663 79.257,50.086 80.681,50.086 
		82.103,50.086 83.527,50.086 83.527,48.663 82.103,48.663 	"/>
	<rect x="84.949" y="50.086" width="1.424" height="1.422"/>
	<polygon points="80.681,51.508 79.257,51.508 79.257,52.932 79.257,54.355 80.681,54.355 80.681,52.932 82.103,52.932 
		83.527,52.932 83.527,51.508 82.103,51.508 	"/>
	<rect x="84.949" y="52.931" width="1.424" height="1.423"/>
	<rect x="80.681" y="54.354" width="1.422" height="1.423"/>
	<polygon points="79.257,57.2 79.257,58.624 80.682,58.624 80.682,57.2 80.682,55.778 79.257,55.778 	"/>
	<polygon points="84.949,55.778 83.527,55.778 82.104,55.778 82.104,57.2 83.527,57.2 83.527,58.624 83.527,60.046 84.949,60.046 
		84.949,58.624 86.373,58.624 86.373,57.2 84.949,57.2 	"/>
	<rect x="80.681" y="58.624" width="1.422" height="1.422"/>
	<path fill="#24984E" d="M157.323,134.868l-3.675-2.895c0.049-0.453,0.094-0.994,0.094-1.567c0-0.574-0.044-1.114-0.094-1.567
		l3.677-2.897c0.605-0.48,0.769-1.335,0.385-2.046l-3.746-6.528c-0.271-0.501-0.789-0.82-1.372-0.82
		c-0.193,0-0.391,0.035-0.591,0.108l-4.331,1.753c-0.85-0.626-1.748-1.151-2.677-1.565l-0.66-4.637
		c-0.096-0.779-0.77-1.366-1.567-1.366h-7.51c-0.796,0-1.47,0.587-1.565,1.354l-0.661,4.65c-0.899,0.402-1.778,0.918-2.674,1.566
		l-4.34-1.756c-0.18-0.07-0.368-0.104-0.556-0.104c-0.567,0-1.123,0.303-1.393,0.802l-3.753,6.539
		c-0.404,0.69-0.243,1.553,0.386,2.053l3.674,2.895c-0.064,0.591-0.094,1.095-0.094,1.567c0,0.471,0.03,0.975,0.094,1.567
		l-3.677,2.896c-0.605,0.481-0.769,1.335-0.385,2.046l3.746,6.529c0.271,0.5,0.789,0.819,1.372,0.819
		c0.193,0,0.391-0.034,0.592-0.108l4.331-1.752c0.849,0.626,1.748,1.15,2.677,1.564l0.66,4.638c0.096,0.778,0.77,1.365,1.567,1.365
		h7.51c0.796,0,1.47-0.587,1.565-1.355l0.662-4.649c0.898-0.401,1.777-0.918,2.673-1.566l4.341,1.757
		c0.186,0.073,0.381,0.111,0.58,0.111h0.001c0.575,0,1.102-0.316,1.368-0.81l3.763-6.558
		C158.095,136.203,157.93,135.349,157.323,134.868 M139.152,139.027c-4.777,0-8.665-3.885-8.665-8.662
		c0-4.777,3.888-8.665,8.665-8.665c4.777,0,8.662,3.888,8.662,8.665C147.814,135.142,143.929,139.027,139.152,139.027"/>
</g>
</svg>
