<?xml version="1.0" encoding="utf-8"?>
<!-- Generator: Adobe Illustrator 17.0.0, SVG Export Plug-In . SVG Version: 6.00 Build 0)  -->
<!DOCTYPE svg PUBLIC "-//W3C//DTD SVG 1.1//EN" "http://www.w3.org/Graphics/SVG/1.1/DTD/svg11.dtd">
<svg version="1.1" id="Layer_1" xmlns="http://www.w3.org/2000/svg" xmlns:xlink="http://www.w3.org/1999/xlink" x="0px" y="0px"
	 width="200px" height="200px" viewBox="0 0 200 200" enable-background="new 0 0 200 200" xml:space="preserve">
<g>
	<g opacity="0.1">
		<g>
			<defs>
				<rect id="SVGID_1_" x="6.506" y="5.975" width="187.197" height="194.022"/>
			</defs>
			<clipPath id="SVGID_2_">
				<use xlink:href="#SVGID_1_"  overflow="visible"/>
			</clipPath>
			<path clip-path="url(#SVGID_2_)" d="M36.569,5.976c-3.296,0-5.993,2.697-5.993,5.993l0.001,168.674
				c0,3.296,2.697,5.993,5.993,5.993h127.018c3.296,0,5.993-2.697,5.993-5.993V43.003c0-1.59-0.631-3.114-1.755-4.237L136.795,7.732
				c-1.124-1.124-2.648-1.756-4.239-1.756H36.569z"/>
			<rect x="52.793" y="117.378" clip-path="url(#SVGID_2_)" width="99.288" height="5.994"/>
			<rect x="65.483" y="103.508" clip-path="url(#SVGID_2_)" width="73.906" height="5.993"/>
			<g opacity="0.15" clip-path="url(#SVGID_2_)">
				<g>
					<defs>
						<rect id="SVGID_3_" x="138.371" y="40.52" width="31.211" height="32.868"/>
					</defs>
					<clipPath id="SVGID_4_">
						<use xlink:href="#SVGID_3_"  overflow="visible"/>
					</clipPath>
					<polygon clip-path="url(#SVGID_4_)" points="169.581,73.389 169.581,40.52 138.368,40.52 					"/>
				</g>
			</g>
			<path clip-path="url(#SVGID_2_)" d="M135.039,36.272c0,2.338,1.908,4.248,4.246,4.248h30.296L135.039,5.977V36.272z"/>
			<path clip-path="url(#SVGID_2_)" d="M100.804,31.232h-0.005v62.194l0.005,0.003l5.996-2.57l0.312-0.134l8.678-3.719
				c3.977-5.546,6.684-11.665,8.356-17.9c0.001-0.005,0.002-0.012,0.003-0.017c2.786-10.368,2.724-21.067,0.958-30.022
				C113.575,41.079,108.308,38.004,100.804,31.232"/>
			<path clip-path="url(#SVGID_2_)" d="M76.488,39.065c-2.828,14.344-1.28,33.16,9.317,47.939l14.989,6.423l0.004-0.001V31.232
				l-0.004-0.001C93.288,38.004,88.021,41.08,76.488,39.065"/>
			<path clip-path="url(#SVGID_2_)" d="M80.189,62.804c1.356,7.861,4.128,14.904,8.257,20.951l12.35,5.292l0.003-0.001l0.004,0.001
				l0.001-0.001V62.804H80.189z"/>
			<path clip-path="url(#SVGID_2_)" d="M100.803,36.562c-0.001,0.001-0.004,0.003-0.005,0.004
				c-4.78,3.972-10.096,7.134-17.977,7.134c-0.965,0-1.959-0.044-2.998-0.133c-0.821,6.147-0.735,12.526,0.262,18.658
				c0.017,0.093,0.033,0.186,0.05,0.278c0.017,0.101,0.037,0.2,0.054,0.302h20.615V36.562z"/>
			<path clip-path="url(#SVGID_2_)" d="M100.803,89.046l12.347-5.29c4.13-6.048,6.9-13.089,8.257-20.951h-20.604V89.046z"/>
			<path clip-path="url(#SVGID_2_)" d="M121.773,43.603c-1.037,0.089-2.031,0.133-2.997,0.133c-7.386,0-12.359-2.488-17.972-7.138
				v26.243h20.604c0.017-0.1,0.037-0.199,0.054-0.301c0.017-0.093,0.034-0.186,0.05-0.278
				C122.508,56.13,122.593,49.749,121.773,43.603"/>
			<path clip-path="url(#SVGID_2_)" fill-rule="evenodd" clip-rule="evenodd" d="M97.738,64.528l11.653-11.653
				c0.324-0.324,0.855-0.324,1.179-0.002l3.256,3.257c0.324,0.324,0.324,0.854,0,1.179c-5.167,5.167-10.334,10.331-15.499,15.499
				l-0.031,0.028l-0.032,0.028l-0.018,0.011v0.002l-0.033,0.023v0.002l-0.034,0.021l-0.018,0.011v0.002l-0.018,0.008l-0.019,0.01
				l-0.017,0.011l-0.019,0.008l-0.018,0.007l-0.02,0.007v0.002l-0.018,0.006l-0.02,0.005l-0.019,0.007l-0.02,0.005l-0.018,0.005
				v0.002l-0.02,0.004l-0.019,0.003v0.002l-0.02,0.003l-0.02,0.003l-0.019,0.004l-0.02,0.002l-0.02,0.001v0.002H97.8l-0.02,0.002
				h-0.001h-0.02h-0.02h-0.02h-0.021l-0.02-0.002h-0.019v-0.002c-0.02-0.001-0.04-0.003-0.059-0.007l-0.021-0.003l-0.018-0.003
				V73.03l-0.02-0.003l-0.02-0.004V73.02l-0.038-0.011l-0.021-0.007l-0.018-0.005l-0.018-0.006c-0.026-0.012-0.05-0.021-0.075-0.036
				l-0.018-0.01l-0.036-0.021c-0.052-0.033-0.102-0.072-0.147-0.116c-13.685-13.684,4.307,4.305-9.38-9.38
				c-0.322-0.324-0.324-0.855,0-1.179l3.256-3.256c0.324-0.323,0.854-0.323,1.18,0L97.738,64.528z"/>
			<polygon clip-path="url(#SVGID_2_)" points="30.575,134.17 6.506,148.543 6.506,133.192 30.575,118.818 			"/>
			<polygon clip-path="url(#SVGID_2_)" points="169.581,134.17 193.651,148.543 193.651,133.192 169.581,118.818 			"/>
			<rect x="6.505" y="133.222" clip-path="url(#SVGID_2_)" width="187.202" height="33.416"/>
			<path clip-path="url(#SVGID_2_)" d="M116.16,170.428H85.658c-1.761,0-3.188,1.427-3.188,3.188v23.392
				c0,1.652,1.339,2.992,2.991,2.992h30.895c1.652,0,2.991-1.34,2.991-2.992v-23.392C119.348,171.855,117.92,170.428,116.16,170.428
				"/>
			<path clip-path="url(#SVGID_2_)" d="M116.168,170.428H85.649c-1.756,0-3.179,1.427-3.179,3.188c0,1.651,1.336,2.991,2.984,2.991
				h30.911c1.648,0,2.984-1.34,2.984-2.991C119.348,171.855,117.925,170.428,116.168,170.428"/>
			<path clip-path="url(#SVGID_2_)" d="M116.168,170.428H85.647c-1.756,0-3.179,1.427-3.179,3.188c0,1.651,1.335,2.991,2.984,2.991
				h30.913c1.648,0,2.984-1.34,2.984-2.991C119.348,171.855,117.925,170.428,116.168,170.428"/>
			<path clip-path="url(#SVGID_2_)" d="M117.889,189.704c-0.497,0.261-1.086,0.412-1.72,0.412H85.647
				c-1.153,0-2.162-0.496-2.72-1.241c-0.291-0.388-0.46-0.844-0.46-1.333v6.99c0,0.133,0.013,0.264,0.038,0.391
				c0.208,1.031,1.226,1.844,2.508,1.999c0.143,0.018,0.289,0.025,0.437,0.025h30.914c0.082,0,0.164-0.002,0.246-0.007
				c1.533-0.102,2.738-1.142,2.738-2.408v-6.99c0,0.051-0.003,0.104-0.007,0.156C119.281,188.542,118.716,189.273,117.889,189.704"
				/>
			<path clip-path="url(#SVGID_2_)" d="M119.347,194.532v-1.379l-2.738,3.787C118.142,196.838,119.347,195.799,119.347,194.532"/>
			<path clip-path="url(#SVGID_2_)" d="M113.639,190.116l-4.85,6.71l-0.09,0.122h0.369h3.584l5.236-7.244
				c-0.496,0.261-1.085,0.411-1.72,0.411H113.639z"/>
			<polygon clip-path="url(#SVGID_2_)" points="102.792,194.189 100.798,196.947 104.749,196.947 105.79,195.507 109.688,190.115 
				105.738,190.115 			"/>
			<polygon clip-path="url(#SVGID_2_)" points="96.797,191.551 92.897,196.947 96.847,196.947 99.795,192.872 101.786,190.115 
				97.833,190.115 			"/>
			<polygon clip-path="url(#SVGID_2_)" points="93.797,190.233 93.881,190.116 93.529,190.116 			"/>
			<path clip-path="url(#SVGID_2_)" d="M89.931,190.116l-4.918,6.807c0.143,0.018,0.289,0.025,0.437,0.025h3.494l4.854-6.715
				l-0.268-0.117H89.931z"/>
			<path clip-path="url(#SVGID_2_)" d="M82.927,188.874l-0.461,0.637v5.02c0,0.133,0.014,0.264,0.039,0.391l3.475-4.808h-0.332
				C84.493,190.115,83.485,189.619,82.927,188.874"/>
			<path clip-path="url(#SVGID_2_)" d="M88.171,162.859v10.408h2.339v-10.542c0-5.717,4.651-10.368,10.367-10.368h0.055v-2.198
				h-0.061C93.856,150.159,88.171,155.846,88.171,162.859"/>
			<path clip-path="url(#SVGID_2_)" d="M100.993,150.16h-0.061v2.198h0.054c5.717,0,10.367,4.651,10.367,10.367v10.542h2.34V162.86
				C113.693,155.845,108.007,150.16,100.993,150.16"/>
			<path clip-path="url(#SVGID_2_)" d="M111.373,152.072c-1.355-1.354-2.931-2.417-4.688-3.16c-1.819-0.769-3.75-1.16-5.741-1.16
				h-0.013v2.408h0.061c7.015,0,12.7,5.685,12.7,12.7v10.407h2.001V162.5c0-1.99-0.39-3.922-1.16-5.74
				C113.791,155.003,112.727,153.426,111.373,152.072"/>
			<path clip-path="url(#SVGID_2_)" d="M90.498,152.079c-1.357,1.357-2.422,2.937-3.165,4.697c-0.77,1.821-1.162,3.756-1.162,5.751
				v10.741h2.001v-10.408c0-7.014,5.685-12.699,12.7-12.699h0.061v-2.408c-1.99,0.002-3.92,0.393-5.738,1.162
				C93.434,149.658,91.854,150.723,90.498,152.079"/>
			<path clip-path="url(#SVGID_2_)" d="M101.145,178.097c-1.204,0-2.179,0.977-2.179,2.179c0,0.83,0.464,1.552,1.148,1.919v3.821
				h2.062v-3.821c0.684-0.367,1.148-1.089,1.148-1.919C103.324,179.074,102.348,178.097,101.145,178.097"/>
			<path clip-path="url(#SVGID_2_)" d="M101.299,178.104c-0.051-0.003-0.102-0.007-0.154-0.007c-1.203,0-2.178,0.976-2.178,2.179
				c0,0.83,0.464,1.551,1.147,1.919v3.821h0.308v-3.821c-0.684-0.368-1.148-1.089-1.148-1.919
				C99.274,179.125,100.167,178.184,101.299,178.104"/>
			<path clip-path="url(#SVGID_2_)" d="M102.295,144.831h-2.772c-0.313,0-0.57,0.254-0.57,0.57v9.093c0,0.315,0.256,0.57,0.57,0.57
				h2.772c0.313,0,0.567-0.254,0.567-0.57v-9.093C102.862,145.086,102.608,144.831,102.295,144.831"/>
			<g opacity="0.2" clip-path="url(#SVGID_2_)">
				<g>
					<defs>
						<rect id="SVGID_5_" x="98.954" y="153.728" width="3.908" height="1.34"/>
					</defs>
					<clipPath id="SVGID_6_">
						<use xlink:href="#SVGID_5_"  overflow="visible"/>
					</clipPath>
					<path clip-path="url(#SVGID_6_)" d="M102.295,154.298h-2.772c-0.313,0-0.57-0.255-0.57-0.569v0.765
						c0,0.314,0.256,0.57,0.57,0.57h2.772c0.313,0,0.567-0.255,0.567-0.57v-0.765C102.862,154.043,102.608,154.298,102.295,154.298"
						/>
				</g>
			</g>
			<g opacity="0.1" clip-path="url(#SVGID_2_)">
				<g>
					<defs>
						<rect id="SVGID_7_" x="98.954" y="144.833" width="3.908" height="1.467"/>
					</defs>
					<clipPath id="SVGID_8_">
						<use xlink:href="#SVGID_7_"  overflow="visible"/>
					</clipPath>
					<path clip-path="url(#SVGID_8_)" d="M102.295,144.831h-2.772c-0.313,0-0.57,0.254-0.57,0.57v0.894
						c0-0.314,0.256-0.57,0.57-0.57h2.772c0.313,0,0.567,0.255,0.567,0.57v-0.894C102.862,145.086,102.608,144.831,102.295,144.831"
						/>
				</g>
			</g>
			<g opacity="0.2" clip-path="url(#SVGID_2_)">
				<g>
					<defs>
						<rect id="SVGID_9_" x="98.968" y="148.009" width="3.894" height="4.727"/>
					</defs>
					<clipPath id="SVGID_10_">
						<use xlink:href="#SVGID_9_"  overflow="visible"/>
					</clipPath>
					<rect x="98.968" y="148.011" clip-path="url(#SVGID_10_)" width="3.892" height="4.723"/>
				</g>
			</g>
			<g opacity="0.2" clip-path="url(#SVGID_2_)">
				<g>
					<defs>
						<rect id="SVGID_11_" x="98.968" y="148.653" width="3.894" height="2.005"/>
					</defs>
					<clipPath id="SVGID_12_">
						<use xlink:href="#SVGID_11_"  overflow="visible"/>
					</clipPath>
					<rect x="98.968" y="148.651" clip-path="url(#SVGID_12_)" width="3.892" height="2.005"/>
				</g>
			</g>
		</g>
	</g>
	<path fill="#FFFFFF" d="M36.569,1.049c-3.296,0-5.993,2.697-5.993,5.993l0.001,168.674c0,3.296,2.697,5.993,5.993,5.993h127.018
		c3.296,0,5.993-2.697,5.993-5.993V38.076c0-1.59-0.631-3.114-1.755-4.237L136.795,2.805c-1.124-1.125-2.648-1.756-4.239-1.756
		H36.569z"/>
	<rect x="52.793" y="112.452" fill="#E6E7E8" width="99.288" height="5.993"/>
	<rect x="65.483" y="98.58" fill="#E6E7E8" width="73.906" height="5.994"/>
	<g opacity="0.15">
		<g>
			<defs>
				<rect id="SVGID_13_" x="138.371" y="35.593" width="31.211" height="32.868"/>
			</defs>
			<clipPath id="SVGID_14_">
				<use xlink:href="#SVGID_13_"  overflow="visible"/>
			</clipPath>
			<polygon clip-path="url(#SVGID_14_)" fill="#A6A8AB" points="169.581,68.462 169.581,35.593 138.368,35.593 			"/>
		</g>
	</g>
	<path fill="#DCDCDC" d="M135.039,31.345c0,2.337,1.908,4.248,4.246,4.248h30.296L135.039,1.05V31.345z"/>
	<path fill="#0E3553" d="M100.804,26.304h-0.005v62.195l0.005,0.002l5.996-2.57l0.312-0.134l8.678-3.719
		c3.977-5.545,6.684-11.665,8.356-17.9c0.001-0.005,0.002-0.011,0.003-0.016c2.786-10.369,2.724-21.068,0.958-30.023
		C113.575,36.152,108.308,33.076,100.804,26.304"/>
	<path fill="#14658E" d="M76.488,34.138c-2.828,14.344-1.28,33.16,9.317,47.939l14.989,6.423l0.004-0.001V26.305l-0.004-0.001
		C93.288,33.077,88.021,36.153,76.488,34.138"/>
	<path fill="#F1F1F2" d="M80.189,57.877c1.356,7.861,4.128,14.903,8.257,20.951l12.35,5.292l0.003-0.001l0.004,0.001l0.001-0.001
		V57.877H80.189z"/>
	<path fill="#FFFFFF" d="M100.803,31.635c-0.001,0.001-0.004,0.003-0.005,0.004c-4.78,3.972-10.096,7.134-17.977,7.134
		c-0.965,0-1.959-0.044-2.998-0.133c-0.821,6.147-0.735,12.526,0.262,18.658c0.017,0.093,0.033,0.186,0.05,0.278
		c0.017,0.101,0.037,0.2,0.054,0.302h20.615V31.635z"/>
	<path fill="#FFFFFF" d="M100.803,84.119l12.347-5.29c4.13-6.048,6.9-13.089,8.257-20.951h-20.604V84.119z"/>
	<path fill="#F1F1F2" d="M121.773,38.676c-1.037,0.089-2.031,0.133-2.997,0.133c-7.386,0-12.359-2.489-17.972-7.138v26.243h20.604
		c0.017-0.1,0.037-0.2,0.054-0.301c0.017-0.093,0.034-0.186,0.05-0.278C122.508,51.203,122.593,44.822,121.773,38.676"/>
	<path fill-rule="evenodd" clip-rule="evenodd" fill="#24984E" d="M97.738,59.601l11.653-11.653
		c0.324-0.324,0.855-0.324,1.179-0.002l3.256,3.256c0.324,0.324,0.324,0.854,0,1.18c-5.167,5.166-10.334,10.331-15.499,15.498
		l-0.031,0.029l-0.032,0.027l-0.018,0.012v0.002l-0.033,0.023v0.002l-0.034,0.021l-0.018,0.011v0.002l-0.018,0.008l-0.019,0.01
		l-0.017,0.011l-0.019,0.008l-0.018,0.007l-0.02,0.007v0.002l-0.018,0.006l-0.02,0.005l-0.019,0.007l-0.02,0.005l-0.018,0.005v0.002
		l-0.02,0.003l-0.019,0.004v0.001l-0.02,0.004l-0.02,0.003l-0.019,0.004l-0.02,0.001l-0.02,0.002v0.002H97.8l-0.02,0.001h-0.001
		h-0.02h-0.02h-0.02h-0.021l-0.02-0.001h-0.019v-0.002c-0.02-0.002-0.04-0.003-0.059-0.007l-0.021-0.003l-0.018-0.004v-0.001
		l-0.02-0.004l-0.02-0.003v-0.002l-0.038-0.011l-0.021-0.007l-0.018-0.005l-0.018-0.006c-0.026-0.012-0.05-0.022-0.075-0.036
		l-0.018-0.01l-0.036-0.021c-0.052-0.033-0.102-0.072-0.147-0.117c-13.685-13.683,4.307,4.305-9.38-9.379
		c-0.322-0.325-0.324-0.855,0-1.179l3.256-3.256c0.324-0.323,0.854-0.323,1.18,0L97.738,59.601z"/>
	<polygon fill="#9E1815" points="30.575,129.243 6.506,143.616 6.506,128.265 30.575,113.891 	"/>
	<polygon fill="#9E1815" points="169.581,129.243 193.651,143.616 193.651,128.265 169.581,113.891 	"/>
	<rect x="6.505" y="128.295" fill="#DD3B33" width="187.202" height="33.417"/>
	<path fill="#14658E" d="M116.16,165.501H85.658c-1.761,0-3.188,1.428-3.188,3.188v23.393c0,1.652,1.339,2.991,2.991,2.991h30.895
		c1.652,0,2.991-1.339,2.991-2.991v-23.393C119.348,166.928,117.92,165.501,116.16,165.501"/>
	<path fill="#0D2038" d="M116.168,165.501H85.649c-1.756,0-3.179,1.428-3.179,3.188c0,1.652,1.336,2.991,2.984,2.991h30.911
		c1.648,0,2.984-1.339,2.984-2.991C119.348,166.928,117.925,165.501,116.168,165.501"/>
	<path fill="#0E3553" d="M116.168,165.501H85.647c-1.756,0-3.179,1.428-3.179,3.188c0,1.652,1.335,2.991,2.984,2.991h30.913
		c1.648,0,2.984-1.339,2.984-2.991C119.348,166.928,117.925,165.501,116.168,165.501"/>
	<path fill="#0E3553" d="M117.889,184.776c-0.497,0.262-1.086,0.413-1.72,0.413H85.647c-1.153,0-2.162-0.497-2.72-1.242
		c-0.291-0.388-0.46-0.844-0.46-1.333v6.991c0,0.133,0.013,0.263,0.038,0.39c0.208,1.032,1.226,1.845,2.508,1.999
		c0.143,0.018,0.289,0.026,0.437,0.026h30.914c0.082,0,0.164-0.003,0.246-0.008c1.533-0.102,2.738-1.141,2.738-2.407v-6.991
		c0,0.052-0.003,0.104-0.007,0.156C119.281,183.615,118.716,184.347,117.889,184.776"/>
	<path fill="#F1C40F" d="M119.347,189.605v-1.38l-2.738,3.788C118.142,191.911,119.347,190.872,119.347,189.605"/>
	<path fill="#F1C40F" d="M113.639,185.189l-4.85,6.71l-0.09,0.122h0.369h3.584l5.236-7.245c-0.496,0.262-1.085,0.413-1.72,0.413
		H113.639z"/>
	<polygon fill="#F1C40F" points="102.792,189.262 100.798,192.021 104.749,192.021 105.79,190.58 109.688,185.188 105.738,185.188 	
		"/>
	<polygon fill="#F1C40F" points="96.797,186.624 92.897,192.021 96.847,192.021 99.795,187.944 101.786,185.189 97.833,185.189 	"/>
	<polygon fill="#F1C40F" points="93.797,185.306 93.881,185.189 93.529,185.189 	"/>
	<path fill="#F1C40F" d="M89.931,185.189l-4.918,6.807c0.143,0.018,0.289,0.025,0.437,0.025h3.494l4.854-6.715l-0.268-0.117H89.931z
		"/>
	<path fill="#F1C40F" d="M82.927,183.947l-0.461,0.637v5.02c0,0.133,0.014,0.264,0.039,0.391l3.475-4.808h-0.332
		C84.493,185.188,83.485,184.692,82.927,183.947"/>
	<path fill="#808285" d="M88.171,157.932v10.408h2.339v-10.542c0-5.717,4.651-10.368,10.367-10.368h0.055v-2.198h-0.061
		C93.856,145.232,88.171,150.919,88.171,157.932"/>
	<path fill="#BFC1C4" d="M100.993,145.233h-0.061v2.198h0.054c5.717,0,10.367,4.651,10.367,10.367v10.542h2.34v-10.407
		C113.693,150.918,108.007,145.233,100.993,145.233"/>
	<path fill="#808285" d="M111.373,147.145c-1.355-1.355-2.931-2.417-4.688-3.16c-1.819-0.769-3.75-1.16-5.741-1.16h-0.013v2.408
		h0.061c7.015,0,12.7,5.685,12.7,12.7v10.407h2.001v-10.767c0-1.99-0.39-3.922-1.16-5.74
		C113.791,150.076,112.727,148.499,111.373,147.145"/>
	<path fill="#BFC1C4" d="M90.498,147.152c-1.357,1.357-2.422,2.937-3.165,4.696c-0.77,1.822-1.162,3.757-1.162,5.752v10.741h2.001
		v-10.408c0-7.014,5.685-12.699,12.7-12.699h0.061v-2.408c-1.99,0.001-3.92,0.393-5.738,1.162
		C93.434,144.731,91.854,145.796,90.498,147.152"/>
	<path d="M101.145,173.17c-1.204,0-2.179,0.977-2.179,2.179c0,0.83,0.464,1.552,1.148,1.919v3.821h2.062v-3.821
		c0.684-0.367,1.148-1.089,1.148-1.919C103.324,174.147,102.348,173.17,101.145,173.17"/>
	<path fill="#0E3553" d="M101.299,173.177c-0.051-0.003-0.102-0.007-0.154-0.007c-1.203,0-2.178,0.976-2.178,2.179
		c0,0.829,0.464,1.551,1.147,1.918v3.822h0.308v-3.822c-0.684-0.367-1.148-1.089-1.148-1.918
		C99.274,174.198,100.167,173.257,101.299,173.177"/>
	<path fill="#73A6C7" d="M102.295,139.904h-2.772c-0.313,0-0.57,0.254-0.57,0.57v9.093c0,0.314,0.256,0.57,0.57,0.57h2.772
		c0.313,0,0.567-0.255,0.567-0.57v-9.093C102.862,140.159,102.608,139.904,102.295,139.904"/>
	<g opacity="0.2">
		<g>
			<defs>
				<rect id="SVGID_15_" x="98.954" y="148.801" width="3.908" height="1.34"/>
			</defs>
			<clipPath id="SVGID_16_">
				<use xlink:href="#SVGID_15_"  overflow="visible"/>
			</clipPath>
			<path clip-path="url(#SVGID_16_)" fill="#231F20" d="M102.295,149.371h-2.772c-0.313,0-0.57-0.255-0.57-0.569v0.765
				c0,0.314,0.256,0.57,0.57,0.57h2.772c0.313,0,0.567-0.255,0.567-0.57v-0.765C102.862,149.116,102.608,149.371,102.295,149.371"/>
		</g>
	</g>
	<g opacity="0.1">
		<g>
			<defs>
				<rect id="SVGID_17_" x="98.954" y="139.906" width="3.908" height="1.467"/>
			</defs>
			<clipPath id="SVGID_18_">
				<use xlink:href="#SVGID_17_"  overflow="visible"/>
			</clipPath>
			<path clip-path="url(#SVGID_18_)" fill="#231F20" d="M102.295,139.904h-2.772c-0.313,0-0.57,0.254-0.57,0.57v0.894
				c0-0.314,0.256-0.57,0.57-0.57h2.772c0.313,0,0.567,0.255,0.567,0.57v-0.894C102.862,140.159,102.608,139.904,102.295,139.904"/>
		</g>
	</g>
	<g opacity="0.2">
		<g>
			<defs>
				<rect id="SVGID_19_" x="98.968" y="143.082" width="3.894" height="4.727"/>
			</defs>
			<clipPath id="SVGID_20_">
				<use xlink:href="#SVGID_19_"  overflow="visible"/>
			</clipPath>
			<rect x="98.968" y="143.084" clip-path="url(#SVGID_20_)" fill="#FFFFFF" width="3.892" height="4.723"/>
		</g>
	</g>
	<g opacity="0.2">
		<g>
			<defs>
				<rect id="SVGID_21_" x="98.968" y="143.725" width="3.894" height="2.005"/>
			</defs>
			<clipPath id="SVGID_22_">
				<use xlink:href="#SVGID_21_"  overflow="visible"/>
			</clipPath>
			<rect x="98.968" y="143.723" clip-path="url(#SVGID_22_)" fill="#FFFFFF" width="3.892" height="2.005"/>
		</g>
	</g>
</g>
</svg>
