<?xml version="1.0" encoding="utf-8"?>
<!-- Generator: Adobe Illustrator 17.0.0, SVG Export Plug-In . SVG Version: 6.00 Build 0)  -->
<!DOCTYPE svg PUBLIC "-//W3C//DTD SVG 1.1//EN" "http://www.w3.org/Graphics/SVG/1.1/DTD/svg11.dtd">
<svg version="1.1" id="Layer_1" xmlns="http://www.w3.org/2000/svg" xmlns:xlink="http://www.w3.org/1999/xlink" x="0px" y="0px"
	 width="200px" height="200px" viewBox="0 0 200 200" enable-background="new 0 0 200 200" xml:space="preserve">
<g>
	<g opacity="0.1">
		<g>
			<defs>
				<rect id="SVGID_1_" x="3.41" y="75.378" width="193.625" height="114.739"/>
			</defs>
			<clipPath id="SVGID_2_">
				<use xlink:href="#SVGID_1_"  overflow="visible"/>
			</clipPath>
			<path clip-path="url(#SVGID_2_)" d="M17.712,177.535V81.196c0-1.491,0.562-2.984,1.703-4.117c1.141-1.14,2.625-1.702,4.116-1.702
				h153.38c1.492,0,2.983,0.562,4.116,1.702c1.141,1.133,1.711,2.626,1.711,4.117v96.339H17.712z"/>
			<path clip-path="url(#SVGID_2_)" d="M197.033,180.418c0,2.475-0.945,4.961-2.844,6.858c-1.89,1.898-4.374,2.844-6.858,2.844
				H13.119c-2.485,0-4.969-0.946-6.867-2.844c-1.899-1.898-2.844-4.383-2.844-6.858v-2.883h193.624V180.418z"/>
			<path clip-path="url(#SVGID_2_)" d="M120.956,178.441c0,0.923-0.351,1.844-1.054,2.547c-0.712,0.704-1.633,1.055-2.554,1.055
				H83.093c-0.921,0-1.842-0.351-2.546-1.055c-0.703-0.703-1.062-1.624-1.062-2.547v-0.906h41.471V178.441z"/>
			<rect x="24.869" y="82.534" clip-path="url(#SVGID_2_)" width="150.703" height="87.844"/>
		</g>
	</g>
	<path fill="#184F70" d="M17.712,172.753V76.414c0-1.491,0.562-2.984,1.703-4.117c1.141-1.14,2.625-1.702,4.116-1.702h153.38
		c1.492,0,2.983,0.562,4.116,1.702c1.141,1.133,1.711,2.626,1.711,4.117v96.339H17.712z"/>
	<path fill="#0E3553" d="M197.033,175.636c0,2.475-0.945,4.96-2.844,6.858c-1.89,1.898-4.374,2.844-6.858,2.844H13.119
		c-2.485,0-4.969-0.946-6.867-2.844c-1.899-1.899-2.844-4.383-2.844-6.858v-2.883h193.624V175.636z"/>
	<path fill="#042438" d="M120.956,173.66c0,0.922-0.351,1.843-1.054,2.547c-0.712,0.703-1.633,1.055-2.554,1.055H83.093
		c-0.921,0-1.842-0.352-2.546-1.055c-0.703-0.704-1.062-1.625-1.062-2.547v-0.906h41.471V173.66z"/>
	<rect x="24.869" y="77.752" fill="#FFCC59" width="150.703" height="87.846"/>
	<g opacity="0.1">
		<g>
			<defs>
				<rect id="SVGID_3_" x="43.114" y="14.782" width="114.217" height="139"/>
			</defs>
			<clipPath id="SVGID_4_">
				<use xlink:href="#SVGID_3_"  overflow="visible"/>
			</clipPath>
			<path clip-path="url(#SVGID_4_)" d="M100.233,14.779h-0.012v139l0.012,0.006l13.4-5.745l0.699-0.299l19.393-8.313
				c8.889-12.395,14.938-26.069,18.673-40.005l0.009-0.036c6.225-23.173,6.088-47.085,2.141-67.098
				C128.776,36.788,117.005,29.915,100.233,14.779"/>
			<path clip-path="url(#SVGID_4_)" d="M45.891,32.288c-6.321,32.056-2.862,74.11,20.823,107.139l33.497,14.354l0.009-0.002V14.78
				l-0.009-0.002C83.436,29.915,71.664,36.79,45.891,32.288"/>
			<path clip-path="url(#SVGID_4_)" d="M54.161,85.342c3.031,17.568,9.225,33.308,18.452,46.825l27.6,11.825l0.007-0.003
				l0.009,0.003l0.003-0.001V85.342H54.161z"/>
			<path clip-path="url(#SVGID_4_)" d="M100.232,26.693c-0.002,0.002-0.01,0.007-0.012,0.01
				c-10.682,8.875-22.563,15.943-40.175,15.943c-2.159,0-4.381-0.099-6.701-0.298c-1.834,13.74-1.644,27.994,0.585,41.699
				c0.038,0.208,0.074,0.416,0.111,0.621c0.038,0.226,0.083,0.449,0.121,0.675h46.072V26.693z"/>
			<path clip-path="url(#SVGID_4_)" d="M100.232,143.99l27.595-11.823c9.23-13.518,15.421-29.255,18.452-46.826h-46.047V143.99z"/>
			<path clip-path="url(#SVGID_4_)" d="M147.096,42.429c-2.318,0.199-4.54,0.298-6.698,0.298c-16.507,0-27.62-5.564-40.166-15.953
				v58.649h46.047c0.039-0.224,0.083-0.445,0.121-0.671c0.036-0.208,0.076-0.416,0.112-0.623
				C148.74,70.424,148.93,56.165,147.096,42.429"/>
		</g>
	</g>
	<path fill="#0E3553" d="M100.233,9.997h-0.012v139l0.012,0.006l13.4-5.745l0.699-0.299l19.393-8.313
		c8.889-12.395,14.938-26.07,18.673-40.005l0.009-0.036c6.225-23.173,6.088-47.085,2.141-67.098
		C128.776,32.006,117.005,25.132,100.233,9.997"/>
	<path fill="#14658E" d="M45.891,27.506c-6.321,32.056-2.862,74.111,20.823,107.139l33.497,14.354l0.009-0.002V9.998l-0.009-0.002
		C83.436,25.134,71.664,32.008,45.891,27.506"/>
	<path fill="#F1F1F2" d="M54.161,80.56c3.031,17.568,9.225,33.308,18.452,46.825l27.6,11.825l0.007-0.003l0.009,0.003l0.003-0.001
		V80.56H54.161z"/>
	<path fill="#FFFFFF" d="M100.232,21.911c-0.002,0.002-0.01,0.007-0.012,0.009c-10.682,8.876-22.563,15.944-40.175,15.944
		c-2.159,0-4.381-0.099-6.701-0.298c-1.834,13.739-1.644,27.994,0.585,41.699c0.038,0.208,0.074,0.416,0.111,0.621
		c0.038,0.226,0.083,0.449,0.121,0.675h46.072V21.911z"/>
	<path fill="#FFFFFF" d="M100.232,139.208l27.595-11.823c9.23-13.518,15.421-29.255,18.452-46.826h-46.047V139.208z"/>
	<path fill="#F1F1F2" d="M147.096,37.646c-2.318,0.2-4.54,0.299-6.698,0.299c-16.507,0-27.62-5.564-40.166-15.954v58.65h46.047
		c0.039-0.224,0.083-0.446,0.121-0.672c0.036-0.207,0.076-0.416,0.112-0.623C148.74,65.641,148.93,51.384,147.096,37.646"/>
	<g opacity="0.1">
		<g>
			<defs>
				<rect id="SVGID_5_" x="77.073" y="52.633" width="46.289" height="65.583"/>
			</defs>
			<clipPath id="SVGID_6_">
				<use xlink:href="#SVGID_5_"  overflow="visible"/>
			</clipPath>
			<path clip-path="url(#SVGID_6_)" d="M119.364,81.095H81.08c-2.21,0-4,1.791-4,4.001v29.36c0,2.074,1.682,3.754,3.754,3.754
				h38.775c2.074,0,3.755-1.681,3.755-3.754v-29.36C123.365,82.886,121.574,81.095,119.364,81.095"/>
			<path clip-path="url(#SVGID_6_)" d="M119.374,81.095H81.069c-2.204,0-3.991,1.791-3.991,4c0,2.075,1.677,3.755,3.745,3.755
				h38.797c2.068,0,3.745-1.681,3.745-3.755C123.365,82.886,121.578,81.095,119.374,81.095"/>
			<path clip-path="url(#SVGID_6_)" d="M119.374,81.095H81.067c-2.204,0-3.991,1.791-3.991,4c0,2.075,1.677,3.755,3.745,3.755
				h38.799c2.068,0,3.745-1.681,3.745-3.755C123.365,82.886,121.578,81.095,119.374,81.095"/>
			<path clip-path="url(#SVGID_6_)" d="M121.534,105.288c-0.623,0.328-1.362,0.516-2.158,0.516H81.068
				c-1.449,0-2.715-0.623-3.414-1.557c-0.367-0.488-0.578-1.06-0.578-1.673v8.773c0,0.168,0.016,0.331,0.048,0.492
				c0.26,1.294,1.538,2.315,3.147,2.509c0.18,0.023,0.363,0.032,0.549,0.032h38.8c0.102,0,0.206-0.003,0.308-0.009
				c1.924-0.129,3.437-1.433,3.437-3.023v-8.773c0,0.065-0.003,0.132-0.01,0.197C123.281,103.83,122.571,104.748,121.534,105.288"/>
			<path clip-path="url(#SVGID_6_)" d="M123.364,111.348v-1.731l-3.436,4.753C121.852,114.242,123.364,112.937,123.364,111.348"/>
			<path clip-path="url(#SVGID_6_)" d="M116.199,105.805l-6.086,8.421L110,114.38h0.463h4.5l6.571-9.092
				c-0.623,0.327-1.362,0.516-2.158,0.516H116.199z"/>
			<polygon clip-path="url(#SVGID_6_)" points="102.585,110.917 100.083,114.38 105.042,114.38 106.349,112.572 111.241,105.804 
				106.281,105.804 			"/>
			<polygon clip-path="url(#SVGID_6_)" points="95.061,107.607 90.166,114.38 95.124,114.38 98.824,109.264 101.323,105.804 
				96.361,105.804 			"/>
			<polygon clip-path="url(#SVGID_6_)" points="91.296,105.953 91.402,105.804 90.959,105.804 			"/>
			<path clip-path="url(#SVGID_6_)" d="M86.444,105.805l-6.172,8.543c0.179,0.023,0.363,0.033,0.549,0.033h4.384l6.091-8.427
				l-0.336-0.149H86.444z"/>
			<path clip-path="url(#SVGID_6_)" d="M77.654,104.247l-0.578,0.8v6.301c0,0.167,0.015,0.33,0.047,0.492l4.362-6.035h-0.418
				C79.619,105.805,78.353,105.182,77.654,104.247"/>
			<path clip-path="url(#SVGID_6_)" d="M84.235,71.596v13.062h2.936V71.427c0-7.174,5.836-13.012,13.012-13.012h0.068v-2.758h-0.078
				C91.371,55.657,84.235,62.793,84.235,71.596"/>
			<path clip-path="url(#SVGID_6_)" d="M100.328,55.657h-0.077v2.758h0.068c7.175,0,13.012,5.838,13.012,13.012v13.231h2.936V71.596
				C116.267,62.793,109.131,55.657,100.328,55.657"/>
			<path clip-path="url(#SVGID_6_)" d="M113.356,58.057c-1.7-1.7-3.68-3.034-5.884-3.967c-2.283-0.965-4.707-1.454-7.205-1.454
				h-0.017v3.022h0.077c8.804,0,15.939,7.136,15.939,15.939v13.062h2.511V71.146c0-2.499-0.491-4.923-1.455-7.205
				C116.39,61.735,115.056,59.757,113.356,58.057"/>
			<path clip-path="url(#SVGID_6_)" d="M87.156,58.067c-1.703,1.702-3.04,3.685-3.973,5.894c-0.968,2.287-1.458,4.715-1.458,7.218
				v13.48h2.511V71.596c0-8.803,7.136-15.939,15.938-15.939h0.078v-3.022c-2.497,0.002-4.92,0.493-7.202,1.458
				C90.841,55.027,88.858,56.364,87.156,58.067"/>
			<path clip-path="url(#SVGID_6_)" d="M100.518,90.72c-1.511,0-2.734,1.226-2.734,2.735c0,1.042,0.583,1.947,1.441,2.408v4.796
				h2.587v-4.795c0.858-0.462,1.441-1.367,1.441-2.409C103.252,91.946,102.029,90.72,100.518,90.72"/>
			<path clip-path="url(#SVGID_6_)" d="M100.711,90.73c-0.065-0.005-0.128-0.01-0.193-0.01c-1.511,0-2.734,1.226-2.734,2.735
				c0,1.042,0.583,1.947,1.44,2.409v4.795h0.386v-4.795c-0.858-0.462-1.44-1.367-1.44-2.409C98.17,92.01,99.292,90.83,100.711,90.73
				"/>
		</g>
	</g>
	<path fill="#24984E" d="M119.364,76.313H81.08c-2.21,0-4,1.791-4,4.001v29.36c0,2.074,1.682,3.755,3.754,3.755h38.775
		c2.074,0,3.755-1.682,3.755-3.755v-29.36C123.365,78.104,121.574,76.313,119.364,76.313"/>
	<path fill="#0D2038" d="M119.374,76.313H81.069c-2.204,0-3.991,1.791-3.991,4.001c0,2.074,1.677,3.754,3.745,3.754h38.797
		c2.068,0,3.745-1.681,3.745-3.754C123.365,78.104,121.578,76.313,119.374,76.313"/>
	<path fill="#176939" d="M119.374,76.313H81.067c-2.204,0-3.991,1.791-3.991,4.001c0,2.074,1.677,3.754,3.745,3.754h38.799
		c2.068,0,3.745-1.681,3.745-3.754C123.365,78.104,121.578,76.313,119.374,76.313"/>
	<path fill="#176939" d="M121.534,100.506c-0.623,0.328-1.362,0.517-2.158,0.517H81.068c-1.449,0-2.715-0.623-3.414-1.558
		c-0.367-0.487-0.578-1.06-0.578-1.673v8.774c0,0.167,0.016,0.331,0.048,0.491c0.26,1.295,1.538,2.316,3.147,2.509
		c0.18,0.023,0.363,0.032,0.549,0.032h38.8c0.102,0,0.206-0.003,0.308-0.009c1.924-0.128,3.437-1.433,3.437-3.022v-8.774
		c0,0.065-0.003,0.132-0.01,0.197C123.281,99.048,122.571,99.966,121.534,100.506"/>
	<path fill="#F1C40F" d="M123.364,106.566v-1.731l-3.436,4.753C121.852,109.46,123.364,108.155,123.364,106.566"/>
	<path fill="#F1C40F" d="M116.199,101.023l-6.086,8.421L110,109.598h0.463h4.5l6.571-9.093c-0.623,0.328-1.362,0.517-2.158,0.517
		H116.199z"/>
	<polygon fill="#F1C40F" points="102.585,106.136 100.083,109.598 105.042,109.598 106.349,107.79 111.241,101.022 106.281,101.022 
			"/>
	<polygon fill="#F1C40F" points="95.061,102.825 90.166,109.598 95.124,109.598 98.824,104.482 101.323,101.022 96.361,101.022 	"/>
	<polygon fill="#F1C40F" points="91.296,101.17 91.402,101.023 90.959,101.023 	"/>
	<path fill="#F1C40F" d="M86.444,101.023l-6.172,8.543c0.179,0.022,0.363,0.033,0.549,0.033h4.384l6.091-8.428l-0.336-0.148H86.444z
		"/>
	<path fill="#F1C40F" d="M77.654,99.465l-0.578,0.8v6.301c0,0.167,0.015,0.331,0.047,0.492l4.362-6.035h-0.418
		C79.619,101.023,78.353,100.4,77.654,99.465"/>
	<path fill="#808285" d="M84.235,66.814v13.063h2.936V66.645c0-7.174,5.836-13.011,13.012-13.011h0.068v-2.758h-0.078
		C91.371,50.876,84.235,58.011,84.235,66.814"/>
	<path fill="#BFC1C4" d="M100.328,50.875h-0.077v2.758h0.068c7.175,0,13.012,5.838,13.012,13.012v13.231h2.936V66.813
		C116.267,58.011,109.131,50.875,100.328,50.875"/>
	<path fill="#808285" d="M113.356,53.275c-1.7-1.7-3.68-3.034-5.884-3.967c-2.283-0.965-4.707-1.454-7.205-1.454
		c-0.005,0-0.011,0-0.017,0v3.022h0.077c8.804,0,15.939,7.136,15.939,15.938v13.063h2.511V66.363c0-2.498-0.491-4.922-1.455-7.204
		C116.39,56.953,115.056,54.974,113.356,53.275"/>
	<path fill="#BFC1C4" d="M87.156,53.284c-1.703,1.703-3.04,3.686-3.973,5.894c-0.968,2.287-1.458,4.715-1.458,7.218v13.481h2.511
		V66.814c0-8.803,7.136-15.939,15.938-15.939h0.078v-3.021c-2.497,0.002-4.92,0.493-7.202,1.457
		C90.841,50.245,88.858,51.581,87.156,53.284"/>
	<path d="M100.518,85.938c-1.511,0-2.734,1.226-2.734,2.735c0,1.042,0.583,1.947,1.441,2.408v4.796h2.587v-4.795
		c0.858-0.462,1.441-1.367,1.441-2.409C103.252,87.164,102.029,85.938,100.518,85.938"/>
	<path fill="#0E3553" d="M100.711,85.948c-0.065-0.004-0.128-0.009-0.193-0.009c-1.511,0-2.734,1.225-2.734,2.735
		c0,1.04,0.583,1.946,1.44,2.408v4.796h0.386v-4.796c-0.858-0.462-1.44-1.367-1.44-2.408C98.17,87.228,99.292,86.047,100.711,85.948
		"/>
</g>
</svg>
