<?xml version="1.0" encoding="utf-8"?>
<!-- Generator: Adobe Illustrator 17.0.0, SVG Export Plug-In . SVG Version: 6.00 Build 0)  -->
<!DOCTYPE svg PUBLIC "-//W3C//DTD SVG 1.1//EN" "http://www.w3.org/Graphics/SVG/1.1/DTD/svg11.dtd">
<svg version="1.1" id="Layer_1" xmlns="http://www.w3.org/2000/svg" xmlns:xlink="http://www.w3.org/1999/xlink" x="0px" y="0px"
	 width="200px" height="200px" viewBox="0 0 200 200" enable-background="new 0 0 200 200" xml:space="preserve">
<g>
	<g opacity="0.1">
		<g>
			<defs>
				<rect id="SVGID_1_" x="0.915" y="27.289" width="198.147" height="149.624"/>
			</defs>
			<clipPath id="SVGID_2_">
				<use xlink:href="#SVGID_1_"  overflow="visible"/>
			</clipPath>
			<path clip-path="url(#SVGID_2_)" d="M137.224,151.429c1.287-1.287,4.635-4.635,2.824-9.256c4.666,1.725,7.673-1.282,9.584-3.193
				c3.379-3.379,6.439-7.53-0.089-14.059l-49.129-49.128C90.917,73.46,76.968,60.579,74.538,58.15
				c-0.246-0.246-0.475-0.479-0.686-0.692c-0.171-0.172-0.329-0.336-0.483-0.489c-0.763-0.764-3.403-2.148-4.814-0.738
				L32.489,92.297c-0.597,0.598-0.811,1.668,0.128,2.607c0.281,0.281,0.628,0.521,0.96,0.75c0.19,0.133,0.448,0.31,0.539,0.401
				c1.173,1.365,2.923,3.171,4.467,4.762l0.331,0.343c4.776,4.93,4.821,5.069,7.26,12.388l0.094,0.281
				c3.232,9.709,6.519,14.091,14.756,22.329c1.856,1.856,20.524,20.468,22.96,22.839c3.345,3.256,7.139,6.949,11.72,11.53
				c0.106,0.114,0.21,0.223,0.315,0.328c4.154,4.154,9.134,3.941,13.658-0.584c1.787-1.787,3.038-4.279,2.497-6.884
				c3.832,2.644,7.336,2.191,10.87-1.344c1.549-1.549,4.679-4.675,3.463-8.831C131.083,155.868,134.771,153.881,137.224,151.429"/>
			<path clip-path="url(#SVGID_2_)" d="M141.645,144.319c4.193,0.411,7.065-2.461,8.673-4.07c2.585-2.584,7.963-7.963-0.071-15.996
				l-1.34-1.341l-43.228-43.228c-3.821-3.822-5.559-4.603-8.82-6.006c-9.501-4.085-19.178-13.76-21.633-16.216
				c-0.246-0.245-0.469-0.472-0.681-0.686c-0.172-0.175-0.334-0.34-0.485-0.492c-0.607-0.606-1.556-1.156-2.544-1.473
				c-2.305-0.741-3.638,0.14-4.23,0.731L31.22,91.61c-1.075,1.075-1.395,3.039,0.128,4.562c0.371,0.37,0.786,0.658,1.15,0.91
				c0.11,0.076,0.266,0.183,0.35,0.249c1.2,1.387,2.924,3.164,4.449,4.738l0.332,0.344c4.557,4.703,4.557,4.703,6.941,11.862
				l0.094,0.285c3.319,9.973,6.679,14.456,15.091,22.868c1.862,1.863,20.534,20.478,22.973,22.851
				c3.341,3.252,7.123,6.936,11.695,11.504c0.108,0.118,0.219,0.232,0.329,0.341c3.396,3.396,6.765,3.615,8.996,3.201
				c2.274-0.423,4.563-1.73,6.617-3.785c1.084-1.084,2.471-2.862,2.908-5.161c0.021-0.102,0.039-0.21,0.053-0.321
				c1.174,0.495,2.333,0.725,3.495,0.702c2.381-0.049,4.642-1.176,6.913-3.445c1.199-1.2,3.926-3.926,4.129-7.557
				c0-0.001,0.002-0.003,0.003-0.002c4.493,1.395,8.031-1.045,10.044-3.059c1.435-1.434,3.379-3.687,3.723-6.673
				C141.7,145.457,141.703,144.889,141.645,144.319 M123.991,149.999l-11.974-11.973l-0.821,0.821l11.394,11.393
				c4.641,4.84,1.946,8.356-0.814,11.117c-3.185,3.185-6.45,4.026-11.182-0.544l-13.49-13.491l-0.96,0.959l12.434,12.433
				c0.041,0.041,0.082,0.08,0.12,0.118c3.54,3.54,1.512,6.949-0.289,8.75c-2.727,2.726-7.151,5.135-11.703,0.584
				c-0.101-0.1-0.199-0.204-0.298-0.311c-7.99-7.989-30.342-30.03-34.698-34.386c-8.169-8.169-11.292-12.383-14.421-21.787
				c-2.575-7.731-2.617-7.976-7.675-13.197c-1.598-1.649-3.51-3.612-4.741-5.044c-0.02-0.024-0.045-0.048-0.068-0.072
				c-0.364-0.364-1.118-0.77-1.501-1.154c-0.23-0.23-0.327-0.453-0.128-0.651l35.326-35.326c0.989-0.989,2.61-0.989,3.6,0
				c0.335,0.336,0.724,0.734,1.168,1.179c3.287,3.286,10.92,11.473,22.918,16.807c2.839,1.262,4.72,2.597,7.612,5.489l44.474,44.474
				l0.018,0.018c5.68,5.68,3.283,8.872,0.071,12.086c-2.637,2.637-5.489,4.988-10.419,1.667v-0.001l-13.927-13.926
				c0.019,0.022-0.69,0.69-0.69,0.69l12.626,12.626c4.767,4.821,3.052,8.341,0.001,11.392
				C132.62,154.077,128.714,154.709,123.991,149.999"/>
			<path clip-path="url(#SVGID_2_)" d="M99.283,166.982c-22.977-22.977-42.994-37.27-49.118-56.174
				c-2.511-7.752-2.617-7.976-7.674-13.198c-1.599-1.649-3.512-3.61-4.744-5.043c-0.51-0.597-2.251-1.323-1.696-1.878l-2.934,2.934
				c-0.554,0.554,1.186,1.281,1.697,1.877c1.231,1.432,3.143,3.394,4.741,5.044c5.058,5.221,5.099,5.466,7.675,13.197
				c1.361,4.087,3.951,9.984,7.598,14.285c8.287,9.774,25.059,25.425,41.522,41.888c4.656,4.967,9.215,2.513,12.001-0.274
				c0.461-0.462,0.938-1.029,1.331-1.678C106.681,169.805,103.166,171.123,99.283,166.982"/>
			<path clip-path="url(#SVGID_2_)" d="M140.82,137.084l-13.927-13.927c0.018,0.023-2.933,2.934-2.933,2.934l12.49,12.491
				c1.876,1.896,3.153,2.713,5.305,3.03c2.725,0.309,4.691-1.403,6.55-3.261c0.507-0.506,0.994-1.014,1.43-1.53
				C147.472,138.731,144.835,139.789,140.82,137.084"/>
			<path clip-path="url(#SVGID_2_)" d="M126.867,147.123l-11.974-11.974l-2.935,2.934l11.475,11.475
				c1.998,2.08,3.185,2.673,4.526,3.36c2.982,1.225,5.6,0.218,7.937-2.118c0.546-0.546,1.047-1.108,1.477-1.688
				C134.369,151.269,130.921,151.165,126.867,147.123"/>
			<path clip-path="url(#SVGID_2_)" d="M113.47,157.938l-13.491-13.491l-2.933,2.934l11.318,11.319
				c2.041,1.972,2.568,2.568,3.992,3.717c3.782,2.756,6.6,1.759,9.361-1.002c0.548-0.548,1.092-1.126,1.577-1.736
				C120.516,161.797,117.534,161.862,113.47,157.938"/>
			
				<rect x="47.662" y="46.576" transform="matrix(-0.7071 -0.7071 0.7071 -0.7071 37.823 178.0706)" clip-path="url(#SVGID_2_)" width="16.258" height="69.251"/>
			
				<rect x="22.82" y="29.286" transform="matrix(-0.7071 -0.7071 0.7071 -0.7071 23.0788 145.7553)" clip-path="url(#SVGID_2_)" width="37.813" height="77.624"/>
			<rect x="22.125" y="86.9" clip-path="url(#SVGID_2_)" width="12.036" height="12.034"/>
			<polygon clip-path="url(#SVGID_2_)" points="22.123,98.934 34.159,98.934 22.125,86.9 			"/>
			<path clip-path="url(#SVGID_2_)" d="M105.725,165.809c-0.423-2.274-1.73-4.562-3.785-6.616c-1.085-1.085-2.862-2.471-5.162-2.908
				c-0.101-0.021-0.209-0.039-0.32-0.053c0.495-1.173,0.725-2.333,0.702-3.495c-0.049-2.381-1.175-4.642-3.445-6.912
				c-1.2-1.2-3.927-3.926-7.557-4.129c-0.001-0.001-0.003-0.002-0.002-0.004c1.395-4.494-1.045-8.031-3.059-10.045
				c-1.434-1.434-3.687-3.379-6.672-3.723c-0.568-0.066-1.136-0.07-1.706-0.012c0.41-4.193-2.461-7.065-4.07-8.673
				c-2.537-2.536-7.773-7.734-15.563-0.327l-0.009-0.009l-0.194,0.195c-0.079,0.076-0.153,0.134-0.231,0.212l-1.341,1.341
				l0.017,0.003l-3.701,3.701l-1.34,1.34c-8.034,8.034-2.656,13.412-0.072,15.996c1.609,1.609,4.481,4.481,8.674,4.071
				c-0.059,0.569-0.054,1.138,0.012,1.705c0.343,2.985,2.288,5.238,3.723,6.673c2.014,2.013,5.551,4.453,10.045,3.059
				c0.001-0.001,0.003,0,0.003,0.002c0.204,3.63,2.93,6.357,4.129,7.556c2.27,2.27,4.531,3.396,6.912,3.446
				c1.161,0.023,2.322-0.207,3.495-0.702c0.015,0.111,0.033,0.218,0.053,0.32c0.438,2.299,1.824,4.078,2.908,5.162
				c2.055,2.054,4.343,3.361,6.617,3.784c1.851,0.343,4.488,0.222,7.271-1.759l0.124,0.128c0.118-0.109,0.232-0.22,0.341-0.329
				c0.193-0.193,0.34-0.384,0.512-0.577c0.249-0.216,0.498-0.415,0.748-0.664c0.109-0.109,0.22-0.224,0.329-0.342l-0.147-0.142
				C105.946,170.298,106.067,167.66,105.725,165.809"/>
			<path clip-path="url(#SVGID_2_)" d="M129.837,55.623c0.585,0,1.144,0.169,1.584,0.608l36.066,36.066
				c0.597,0.597,0.812,1.668-0.128,2.607c-0.281,0.281-0.628,0.521-0.96,0.749c-0.19,0.134-0.448,0.311-0.539,0.402
				c-1.173,1.365-2.922,3.171-4.467,4.762l-0.331,0.344c-4.775,4.929-4.821,5.068-7.26,12.387l-0.094,0.282
				c-0.648,1.946-2.106,5.512-2.797,7.104l-35.381-35.275l-20.015,19.878c-1.14,1.14-2.633,1.709-4.127,1.709
				c-1.494,0-2.986-0.57-4.126-1.709l-4.615-4.615c-2.278-2.278-2.278-5.973,0-8.252l17.686-18.043
				c9.497-2.332,22.675-14.048,25.103-16.477c0.246-0.246,0.475-0.479,0.686-0.692c0.171-0.172,0.329-0.336,0.483-0.489
				C127.132,56.443,128.546,55.623,129.837,55.623 M129.837,52.698c-2.272,0-4.414,1.316-5.299,2.202l-0.281,0.283l-0.211,0.214
				l-0.147,0.148c-0.166,0.169-0.343,0.348-0.531,0.536c-2.153,2.153-14.941,13.546-23.732,15.704l-0.808,0.199l-0.583,0.594
				L80.558,90.623c-3.394,3.394-3.394,8.952,0.021,12.368l4.615,4.615c1.654,1.655,3.855,2.566,6.194,2.566
				c2.34,0,4.54-0.911,6.195-2.566l17.942-17.82l33.318,33.22l3.039,3.029l1.709-3.935c0.664-1.53,2.194-5.256,2.891-7.347
				l0.094-0.28c2.274-6.826,2.274-6.826,6.585-11.276l0.338-0.352c1.483-1.529,3.162-3.259,4.387-4.663
				c0.042-0.029,0.087-0.059,0.128-0.088l0.061-0.043c0.381-0.263,0.878-0.606,1.35-1.077c0.996-0.996,1.528-2.263,1.497-3.57
				c-0.029-1.194-0.514-2.321-1.369-3.175l-36.066-36.066C132.532,53.205,131.268,52.698,129.837,52.698"/>
			<path clip-path="url(#SVGID_2_)" d="M100.334,74.627c9.498-2.332,22.675-14.048,25.103-16.477
				c0.246-0.247,0.475-0.479,0.686-0.692c0.171-0.173,0.33-0.336,0.483-0.49c0.764-0.764,3.404-2.148,4.814-0.737l36.066,36.065
				c0.597,0.598,0.812,1.668-0.128,2.608c-0.281,0.281-0.627,0.52-0.96,0.749c-0.19,0.133-0.448,0.311-0.539,0.402
				c-1.173,1.365-2.922,3.17-4.467,4.761l-0.331,0.344c-4.775,4.929-4.821,5.068-7.26,12.387l-0.094,0.281
				c-1.527,4.588-2.192,6.611-4.26,9.789L100.334,74.627z"/>
			<path clip-path="url(#SVGID_2_)" d="M105.725,165.809c-0.423-2.273-1.73-4.562-3.785-6.616c-1.085-1.085-2.862-2.471-5.162-2.908
				c-0.101-0.021-0.209-0.039-0.319-0.053c0.495-1.173,0.724-2.333,0.701-3.495c-0.049-2.381-1.175-4.641-3.445-6.912
				c-1.2-1.199-3.927-3.926-7.557-4.129c-0.001-0.001-0.002-0.002-0.002-0.004c1.395-4.494-1.045-8.031-3.058-10.045
				c-1.435-1.434-3.688-3.379-6.673-3.723c-0.568-0.066-1.136-0.07-1.705-0.011c0.409-4.193-2.462-7.065-4.071-8.674
				c-2.536-2.536-7.773-7.734-15.563-0.327l-0.008-0.009l-0.195,0.195c-0.079,0.076-0.152,0.134-0.231,0.212l-1.341,1.34
				l0.017,0.003l-3.701,3.701l-1.34,1.34c-8.034,8.034-2.656,13.413-0.072,15.997c1.609,1.608,4.481,4.48,8.674,4.07
				c-0.059,0.569-0.054,1.138,0.012,1.705c0.343,2.985,2.288,5.238,3.723,6.673c2.014,2.014,5.551,4.453,10.045,3.059
				c0.001-0.001,0.003,0,0.003,0.002c0.204,3.63,2.93,6.357,4.129,7.556c2.27,2.27,4.531,3.396,6.913,3.446
				c1.161,0.023,2.321-0.207,3.495-0.702c0.014,0.111,0.032,0.218,0.053,0.32c0.437,2.299,1.823,4.078,2.908,5.162
				c2.055,2.054,4.343,3.361,6.617,3.784c1.851,0.343,4.488,0.222,7.271-1.758l0.124,0.128c0.118-0.108,0.232-0.219,0.341-0.329
				c0.193-0.193,0.34-0.384,0.512-0.576c0.25-0.217,0.498-0.416,0.748-0.665c0.109-0.109,0.22-0.224,0.329-0.341l-0.147-0.143
				C105.947,170.298,106.067,167.66,105.725,165.809 M50.172,139.735c-3.213-3.213-5.61-6.406,0.071-12.086
				c0.008-0.008,0.012-0.012,0.018-0.018c0,0,5.719-5.719,6.652-6.652c5.486-5.285,8.626-2.937,11.78,0.217
				c2.637,2.637,4.988,5.489,1.667,10.418c-0.001,0-0.001,0.001-0.001,0.001l-7.338,7.338c0.001-0.001,0.01,0.008,0.01,0.009
				l-2.441,2.441C55.661,144.722,52.809,142.371,50.172,139.735 M62.58,152.183c-3.05-3.051-4.765-6.572,0.002-11.392l6.038-6.037
				c0,0-0.009-0.009-0.01-0.01l1.14-1.14c4.821-4.767,8.342-3.053,11.392-0.002c3.335,3.335,3.967,7.239-0.743,11.964l-5.385,5.385
				l0.01,0.01l-0.48,0.479C69.82,156.151,65.915,155.518,62.58,152.183 M76.759,162.799c-2.761-2.761-5.457-6.276-0.814-11.116
				l4.806-4.806l-0.003-0.004c4.784-4.499,8.269-1.832,11.009,0.908c3.186,3.185,4.027,6.45-0.543,11.182l-3.491,3.491
				C83.11,166.786,79.895,165.934,76.759,162.799 M90.126,171.026c-1.802-1.802-3.83-5.21-0.29-8.75
				c0.038-0.038,0.08-0.078,0.121-0.118l1.504-1.504c3.458-3.234,6.761-1.269,8.524,0.495c2.616,2.616,4.922,6.796,1.085,11.151
				C96.79,175.884,92.701,173.6,90.126,171.026"/>
			<path clip-path="url(#SVGID_2_)" d="M60.592,141.401l2.441-2.441c-0.001,0-0.01-0.01-0.011-0.009l7.338-7.338h0.001
				c1.678-2.491,1.904-4.45,1.381-6.121c-0.246,0.871-0.682,1.814-1.381,2.853H70.36l-7.338,7.339
				c0.001-0.001,0.01,0.008,0.011,0.008l-2.441,2.441v0.001c-4.93,3.321-7.782,0.969-10.419-1.667
				c-1.353-1.354-2.553-2.706-3.074-4.239c-0.988,3.052,0.842,5.276,3.074,7.507C52.809,142.371,55.662,144.723,60.592,141.401z"/>
			<path clip-path="url(#SVGID_2_)" d="M75.024,150.961l-0.01-0.01l5.385-5.385c3.026-3.035,3.838-5.731,3.154-8.156
				c-0.419,1.528-1.423,3.152-3.154,4.888l-5.385,5.386l0.01,0.009l-0.479,0.48c-4.724,4.71-8.629,4.077-11.963,0.742
				c-1.243-1.242-2.253-2.564-2.706-4.017c-0.874,2.837,0.593,5.174,2.706,7.286c3.334,3.335,7.239,3.967,11.963-0.743
				L75.024,150.961z"/>
			<path clip-path="url(#SVGID_2_)" d="M94.122,151.278c-0.416,1.337-1.335,2.789-2.908,4.417l-3.49,3.49
				c-4.613,4.333-7.829,3.481-10.964,0.345c-1.275-1.275-2.527-2.714-3.058-4.367c-1.001,3.116,1.008,5.584,3.058,7.635
				c3.136,3.136,6.351,3.988,10.964-0.345l3.49-3.49C94.157,155.917,94.847,153.479,94.122,151.278"/>
			<path clip-path="url(#SVGID_2_)" d="M102.881,165.835c-0.284,1.04-0.857,2.113-1.812,3.197c-4.28,3.584-8.369,1.3-10.943-1.274
				c-0.752-0.751-1.536-1.784-1.946-2.986c-0.919,2.582,0.575,4.884,1.946,6.255c2.575,2.575,6.664,4.858,10.943,1.273
				C103.068,170.031,103.392,167.812,102.881,165.835"/>
			<path clip-path="url(#SVGID_2_)" d="M113.457,87.717l-17.942,17.819c-2.278,2.279-5.973,2.279-8.252,0l-4.615-4.615
				c-2.279-2.278-2.279-5.973,0-8.251l17.686-18.043L113.457,87.717z"/>
			<path clip-path="url(#SVGID_2_)" d="M166.717,91.527c-0.107,0.076-0.212,0.153-0.318,0.226c-0.19,0.134-0.448,0.311-0.539,0.402
				c-1.173,1.365-2.923,3.171-4.467,4.762l-0.331,0.343c-4.776,4.93-4.821,5.068-7.26,12.387l-0.094,0.282
				c-1.527,4.588-2.192,6.61-4.26,9.788l-34.959-34.872c-0.571-0.568-1.493-0.569-2.064-0.002l-16.909,16.793
				c-2.278,2.279-5.973,2.279-8.252,0l-4.615-4.614c-0.634-0.635-1.073-1.383-1.355-2.176c-0.729,2.055-0.29,4.432,1.355,6.075
				l4.615,4.616c2.278,2.278,5.973,2.278,8.252,0l17.426-17.306c0.286-0.284,0.747-0.284,1.032,0l35.475,35.387
				c2.069-3.178,2.734-5.2,4.26-9.789l0.094-0.281c2.438-7.319,2.484-7.458,7.26-12.388l0.331-0.344
				c1.543-1.591,3.294-3.397,4.467-4.762c0.091-0.091,0.35-0.268,0.539-0.401c0.333-0.229,0.68-0.468,0.96-0.75
				c0.939-0.939,0.724-2.01,0.128-2.607L166.717,91.527z"/>
			
				<rect x="136.056" y="46.577" transform="matrix(0.7071 -0.7071 0.7071 0.7071 -15.1876 125.7376)" clip-path="url(#SVGID_2_)" width="16.258" height="69.25"/>
			
				<rect x="139.343" y="29.286" transform="matrix(0.7071 -0.7071 0.7071 0.7071 -1.8013 131.8471)" clip-path="url(#SVGID_2_)" width="37.813" height="77.624"/>
			<rect x="165.816" y="86.9" clip-path="url(#SVGID_2_)" width="12.036" height="12.034"/>
			<polygon clip-path="url(#SVGID_2_)" points="177.852,98.934 165.817,98.934 177.851,86.9 			"/>
			<path clip-path="url(#SVGID_2_)" d="M84.893,93.208l7.867-7.867l5.082,5.081l-5.911,5.911c-2.255,2.255-4.388,1.253-6.999-1.16
				C84.361,94.647,84.344,93.757,84.893,93.208"/>
			<path clip-path="url(#SVGID_2_)" d="M64.475,131.761l-7.335-7.335l1.304-1.304c1.995-1.995,5.23-1.995,7.225,0l0.11,0.11
				c1.994,1.995,1.994,5.23,0,7.225L64.475,131.761z"/>
			<path clip-path="url(#SVGID_2_)" d="M76.584,143.871l-7.066-7.066l1.383-1.383c1.951-1.951,5.114-1.951,7.066,0
				c1.951,1.951,1.951,5.115,0,7.066L76.584,143.871z"/>
			<path clip-path="url(#SVGID_2_)" d="M88.687,155.973l-6.742-6.742l0.962-0.961c1.649-1.651,4.324-1.651,5.974,0l0.768,0.767
				c1.649,1.65,1.649,4.325,0,5.974L88.687,155.973z"/>
			<path clip-path="url(#SVGID_2_)" d="M98.798,168.072l-5.792-5.792l0.961-0.962c1.135-1.134,2.974-1.134,4.108,0l1.685,1.684
				c1.134,1.135,1.134,2.975,0,4.108L98.798,168.072z"/>
		</g>
	</g>
	<path fill="#FECD8D" d="M137.224,147.347c1.287-1.287,4.635-4.635,2.824-9.256c4.666,1.726,7.673-1.282,9.584-3.193
		c3.379-3.379,6.439-7.53-0.089-14.059l-49.129-49.128c-9.497-2.332-23.445-15.213-25.875-17.643
		c-0.246-0.246-0.475-0.478-0.686-0.691c-0.171-0.173-0.329-0.336-0.483-0.489c-0.763-0.764-3.403-2.149-4.814-0.738L32.489,88.215
		c-0.597,0.598-0.811,1.668,0.128,2.607c0.281,0.281,0.628,0.522,0.96,0.75c0.19,0.133,0.448,0.311,0.539,0.402
		c1.173,1.365,2.923,3.17,4.467,4.761l0.331,0.344c4.776,4.929,4.821,5.068,7.26,12.387l0.094,0.282
		c3.232,9.709,6.519,14.091,14.756,22.328c1.856,1.856,20.524,20.468,22.96,22.84c3.345,3.256,7.139,6.949,11.72,11.53
		c0.106,0.115,0.21,0.223,0.315,0.328c4.154,4.154,9.134,3.941,13.658-0.584c1.787-1.787,3.038-4.278,2.497-6.884
		c3.832,2.644,7.336,2.191,10.87-1.344c1.549-1.549,4.679-4.674,3.463-8.831C131.083,151.788,134.771,149.8,137.224,147.347"/>
	<path fill="#C7985A" d="M141.645,140.238c4.193,0.41,7.065-2.461,8.673-4.07c2.585-2.584,7.963-7.963-0.071-15.996l-1.34-1.341
		l-43.228-43.228c-3.821-3.821-5.559-4.602-8.82-6.005c-9.501-4.085-19.178-13.76-21.633-16.216
		c-0.246-0.245-0.469-0.472-0.681-0.686c-0.172-0.175-0.334-0.341-0.485-0.492c-0.606-0.607-1.556-1.156-2.544-1.473
		c-2.305-0.741-3.638,0.14-4.23,0.731L31.22,87.53c-1.075,1.075-1.395,3.039,0.128,4.562c0.371,0.37,0.786,0.658,1.15,0.91
		c0.11,0.076,0.266,0.183,0.35,0.249c1.2,1.387,2.924,3.164,4.449,4.738l0.332,0.344c4.557,4.703,4.557,4.703,6.941,11.862
		l0.094,0.285c3.319,9.973,6.679,14.456,15.091,22.868c1.862,1.862,20.534,20.478,22.973,22.851
		c3.341,3.252,7.123,6.935,11.695,11.504c0.108,0.117,0.219,0.232,0.329,0.341c3.396,3.396,6.765,3.615,8.996,3.201
		c2.274-0.423,4.563-1.73,6.617-3.785c1.084-1.085,2.471-2.862,2.908-5.162c0.021-0.101,0.039-0.209,0.053-0.32
		c1.174,0.495,2.333,0.725,3.495,0.702c2.381-0.049,4.642-1.176,6.913-3.445c1.199-1.2,3.926-3.926,4.129-7.557
		c0-0.002,0.002-0.003,0.003-0.002c4.493,1.395,8.031-1.045,10.044-3.059c1.435-1.434,3.379-3.687,3.723-6.673
		C141.7,141.376,141.703,140.808,141.645,140.238 M123.991,145.919l-11.974-11.973l-0.821,0.821l11.394,11.393
		c4.641,4.84,1.946,8.356-0.814,11.116c-3.185,3.186-6.45,4.027-11.182-0.543l-13.49-13.491l-0.96,0.959l12.434,12.433
		c0.041,0.041,0.082,0.08,0.12,0.118c3.54,3.54,1.512,6.949-0.289,8.75c-2.727,2.727-7.151,5.136-11.703,0.585
		c-0.101-0.1-0.199-0.205-0.298-0.311c-7.99-7.989-30.342-30.03-34.698-34.386c-8.169-8.169-11.292-12.383-14.421-21.787
		c-2.575-7.731-2.617-7.976-7.675-13.197c-1.598-1.65-3.51-3.612-4.741-5.044c-0.02-0.024-0.045-0.048-0.068-0.072
		c-0.364-0.364-1.118-0.77-1.501-1.154c-0.23-0.23-0.327-0.453-0.128-0.651L68.501,54.16c0.989-0.989,2.61-0.989,3.6,0
		c0.335,0.336,0.724,0.734,1.168,1.179c3.287,3.286,10.92,11.473,22.918,16.807c2.839,1.262,4.72,2.597,7.612,5.489l44.474,44.474
		c0.005,0.005,0.011,0.01,0.018,0.017c5.68,5.68,3.283,8.873,0.071,12.086c-2.637,2.637-5.489,4.988-10.419,1.667
		c0-0.001,0-0.001,0-0.001l-13.927-13.926c0.019,0.022-0.69,0.69-0.69,0.69l12.626,12.626c4.767,4.821,3.052,8.341,0.001,11.392
		C132.62,149.997,128.714,150.628,123.991,145.919"/>
	<path fill="#FFBF77" d="M99.283,162.901c-22.977-22.976-42.994-37.269-49.118-56.174c-2.511-7.752-2.617-7.976-7.674-13.198
		c-1.599-1.648-3.512-3.61-4.744-5.043c-0.51-0.596-2.251-1.323-1.696-1.878l-2.934,2.934c-0.554,0.554,1.186,1.282,1.697,1.877
		c1.231,1.433,3.143,3.394,4.741,5.044c5.058,5.222,5.099,5.466,7.675,13.197c1.361,4.087,3.951,9.984,7.598,14.285
		c8.287,9.774,25.059,25.425,41.522,41.888c4.656,4.968,9.215,2.513,12.001-0.274c0.461-0.461,0.938-1.029,1.331-1.678
		C106.681,165.724,103.166,167.043,99.283,162.901"/>
	<path fill="#FFBF77" d="M140.82,133.003l-13.927-13.927c0.018,0.023-2.933,2.934-2.933,2.934l12.49,12.491
		c1.876,1.896,3.153,2.713,5.305,3.03c2.725,0.31,4.691-1.402,6.55-3.261c0.507-0.507,0.994-1.014,1.43-1.531
		C147.472,134.651,144.835,135.708,140.82,133.003"/>
	<path fill="#FFBF77" d="M126.867,143.042l-11.974-11.974l-2.935,2.934l11.475,11.475c1.998,2.08,3.185,2.673,4.526,3.36
		c2.982,1.225,5.6,0.218,7.937-2.118c0.546-0.546,1.047-1.108,1.477-1.688C134.369,147.188,130.921,147.084,126.867,143.042"/>
	<path fill="#FFBF77" d="M113.47,153.857l-13.491-13.491l-2.933,2.934l11.318,11.319c2.041,1.971,2.568,2.568,3.992,3.717
		c3.782,2.756,6.6,1.759,9.361-1.002c0.548-0.547,1.092-1.125,1.577-1.736C120.516,157.716,117.534,157.781,113.47,153.857"/>
	
		<rect x="47.662" y="42.496" transform="matrix(-0.7071 -0.7071 0.7071 -0.7071 40.7085 171.1044)" fill="#FFFFFF" width="16.258" height="69.251"/>
	
		<rect x="22.821" y="25.206" transform="matrix(-0.7071 -0.7071 0.7071 -0.7071 25.9655 138.7894)" fill="#102137" width="37.813" height="77.623"/>
	<rect x="22.125" y="82.82" fill="#FFCC59" width="12.036" height="12.033"/>
	<polygon fill="#F19C23" points="22.123,94.853 34.159,94.854 22.125,82.82 	"/>
	<path fill="#EFBB7B" d="M105.725,161.729c-0.423-2.274-1.73-4.562-3.785-6.616c-1.085-1.085-2.862-2.471-5.162-2.908
		c-0.101-0.021-0.209-0.039-0.32-0.053c0.495-1.173,0.725-2.333,0.702-3.495c-0.049-2.381-1.175-4.642-3.445-6.913
		c-1.2-1.199-3.927-3.926-7.557-4.129c-0.001,0-0.003-0.001-0.002-0.003c1.395-4.494-1.045-8.031-3.059-10.045
		c-1.434-1.434-3.687-3.379-6.672-3.723c-0.568-0.066-1.136-0.07-1.706-0.012c0.41-4.193-2.461-7.065-4.07-8.673
		c-2.537-2.537-7.773-7.735-15.563-0.327l-0.009-0.009l-0.194,0.195c-0.079,0.076-0.153,0.133-0.231,0.212l-1.341,1.34l0.017,0.004
		l-3.701,3.7l-1.34,1.341c-8.034,8.034-2.656,13.412-0.072,15.996c1.609,1.609,4.481,4.481,8.674,4.071
		c-0.059,0.569-0.054,1.138,0.012,1.705c0.343,2.985,2.288,5.238,3.723,6.673c2.014,2.013,5.551,4.453,10.045,3.058
		c0.001,0,0.003,0.001,0.003,0.002c0.204,3.631,2.93,6.357,4.129,7.557c2.27,2.27,4.531,3.396,6.912,3.445
		c1.161,0.024,2.322-0.206,3.495-0.701c0.015,0.11,0.033,0.218,0.053,0.32c0.438,2.299,1.824,4.078,2.908,5.162
		c2.055,2.054,4.343,3.361,6.617,3.784c1.851,0.343,4.488,0.222,7.271-1.759l0.124,0.128c0.118-0.109,0.232-0.22,0.341-0.329
		c0.193-0.192,0.34-0.384,0.512-0.576c0.249-0.216,0.498-0.415,0.748-0.665c0.109-0.108,0.22-0.223,0.329-0.341l-0.147-0.142
		C105.946,166.217,106.067,163.58,105.725,161.729"/>
	<path fill="#C7985A" d="M129.837,51.543c0.585,0,1.144,0.168,1.584,0.607l36.066,36.066c0.597,0.597,0.812,1.668-0.128,2.607
		c-0.281,0.281-0.628,0.521-0.96,0.75c-0.19,0.133-0.448,0.31-0.539,0.401c-1.173,1.365-2.922,3.171-4.467,4.762l-0.331,0.344
		c-4.775,4.929-4.821,5.068-7.26,12.386l-0.094,0.282c-0.648,1.946-2.106,5.512-2.797,7.104l-35.381-35.275l-20.014,19.878
		c-1.14,1.14-2.633,1.709-4.127,1.709c-1.494,0-2.986-0.57-4.126-1.709l-4.615-4.614c-2.278-2.279-2.278-5.973,0-8.252
		l17.686-18.042c9.497-2.333,22.675-14.049,25.103-16.478c0.246-0.246,0.475-0.479,0.686-0.692c0.171-0.172,0.329-0.336,0.483-0.489
		C127.133,52.362,128.546,51.543,129.837,51.543 M129.837,48.617c-2.272,0-4.414,1.317-5.299,2.202l-0.281,0.283l-0.211,0.214
		l-0.147,0.148c-0.166,0.169-0.343,0.348-0.531,0.536c-2.153,2.153-14.941,13.546-23.732,15.705l-0.808,0.198l-0.583,0.594
		L80.558,86.542c-3.394,3.395-3.394,8.952,0.021,12.368l4.615,4.616c1.654,1.654,3.855,2.566,6.194,2.566
		c2.34,0,4.54-0.912,6.195-2.567l17.942-17.82l33.318,33.22l3.039,3.029l1.709-3.935c0.664-1.529,2.194-5.255,2.891-7.346
		l0.094-0.281c2.274-6.826,2.274-6.826,6.585-11.276l0.338-0.351c1.483-1.529,3.162-3.26,4.387-4.663
		c0.042-0.03,0.087-0.06,0.128-0.089l0.061-0.043c0.381-0.263,0.878-0.605,1.35-1.077c0.996-0.996,1.528-2.263,1.497-3.57
		c-0.029-1.193-0.514-2.321-1.369-3.175l-36.066-36.066C132.532,49.124,131.268,48.617,129.837,48.617"/>
	<path fill="#EFBB7B" d="M100.334,70.547c9.498-2.332,22.675-14.048,25.103-16.478c0.246-0.246,0.475-0.478,0.686-0.691
		c0.171-0.173,0.33-0.336,0.483-0.49c0.764-0.764,3.404-2.148,4.814-0.738l36.066,36.066c0.597,0.598,0.812,1.668-0.128,2.607
		c-0.281,0.281-0.627,0.521-0.96,0.75c-0.19,0.133-0.448,0.311-0.539,0.402c-1.173,1.365-2.922,3.17-4.467,4.761l-0.331,0.344
		c-4.775,4.929-4.821,5.068-7.26,12.387l-0.094,0.281c-1.527,4.588-2.192,6.611-4.26,9.789L100.334,70.547z"/>
	<path fill="#C7985A" d="M105.725,161.728c-0.423-2.273-1.73-4.562-3.785-6.616c-1.085-1.085-2.862-2.471-5.162-2.908
		c-0.101-0.021-0.209-0.039-0.319-0.053c0.495-1.173,0.724-2.333,0.701-3.495c-0.049-2.381-1.175-4.641-3.445-6.912
		c-1.2-1.199-3.927-3.927-7.557-4.13c-0.001,0-0.002-0.001-0.002-0.003c1.395-4.494-1.045-8.031-3.058-10.045
		c-1.435-1.434-3.688-3.379-6.673-3.723c-0.568-0.066-1.136-0.07-1.705-0.012c0.409-4.192-2.462-7.064-4.071-8.673
		c-2.536-2.537-7.773-7.734-15.563-0.327l-0.008-0.009l-0.195,0.195c-0.079,0.076-0.152,0.133-0.231,0.212l-1.341,1.34l0.017,0.004
		l-3.701,3.701l-1.34,1.34c-8.034,8.034-2.656,13.413-0.072,15.996c1.609,1.609,4.481,4.481,8.674,4.071
		c-0.059,0.569-0.054,1.138,0.012,1.705c0.343,2.985,2.288,5.238,3.723,6.673c2.014,2.014,5.551,4.453,10.045,3.058
		c0.001,0,0.003,0.001,0.003,0.003c0.204,3.63,2.93,6.357,4.129,7.556c2.27,2.27,4.531,3.396,6.913,3.446
		c1.161,0.023,2.321-0.207,3.495-0.702c0.014,0.11,0.032,0.218,0.053,0.32c0.437,2.299,1.823,4.078,2.908,5.162
		c2.055,2.054,4.343,3.361,6.617,3.784c1.851,0.343,4.488,0.222,7.271-1.758l0.124,0.128c0.118-0.108,0.232-0.219,0.341-0.329
		c0.193-0.193,0.34-0.384,0.512-0.576c0.25-0.217,0.498-0.416,0.748-0.666c0.109-0.108,0.22-0.223,0.329-0.34L103.965,169
		C105.947,166.217,106.067,163.579,105.725,161.728 M50.172,135.654c-3.213-3.213-5.61-6.406,0.071-12.086
		c0.008-0.008,0.012-0.012,0.018-0.018l6.652-6.652c5.486-5.285,8.626-2.937,11.78,0.217c2.637,2.637,4.988,5.489,1.667,10.418
		H70.36l-7.338,7.339c0.001-0.001,0.01,0.008,0.01,0.009l-2.441,2.441C55.661,140.642,52.809,138.29,50.172,135.654 M62.58,148.102
		c-3.05-3.051-4.765-6.572,0.002-11.392l6.038-6.037c0,0-0.009-0.009-0.01-0.01l1.14-1.14c4.821-4.768,8.342-3.053,11.392-0.002
		c3.335,3.335,3.967,7.239-0.743,11.964l-5.385,5.385l0.01,0.01l-0.48,0.479C69.82,152.07,65.915,151.437,62.58,148.102
		 M76.759,158.718c-2.761-2.761-5.457-6.276-0.814-11.116l4.806-4.806l-0.003-0.004c4.784-4.499,8.269-1.832,11.009,0.908
		c3.186,3.185,4.027,6.45-0.543,11.182l-3.491,3.49C83.11,162.706,79.895,161.854,76.759,158.718 M90.126,166.945
		c-1.802-1.802-3.83-5.21-0.29-8.75c0.038-0.038,0.08-0.078,0.121-0.118l1.504-1.504c3.458-3.234,6.761-1.269,8.524,0.495
		c2.616,2.616,4.922,6.796,1.085,11.151C96.79,171.803,92.701,169.519,90.126,166.945"/>
	<path fill="#E0A05A" d="M60.592,137.32l2.441-2.441c-0.001,0-0.01-0.01-0.011-0.009l7.338-7.338c0,0,0.001,0,0.001-0.001
		c1.678-2.49,1.904-4.449,1.381-6.12c-0.246,0.871-0.682,1.814-1.381,2.853H70.36l-7.338,7.339c0.001-0.001,0.01,0.008,0.011,0.008
		l-2.441,2.441v0.001c-4.93,3.321-7.782,0.969-10.419-1.667c-1.353-1.354-2.553-2.706-3.074-4.239
		c-0.988,3.052,0.842,5.276,3.074,7.507C52.809,138.291,55.662,140.641,60.592,137.32z"/>
	<path fill="#E0A05A" d="M75.024,146.88l-0.01-0.009l5.385-5.386c3.026-3.035,3.838-5.73,3.154-8.155
		c-0.419,1.527-1.423,3.151-3.154,4.887l-5.385,5.386l0.01,0.009l-0.479,0.48c-4.724,4.71-8.629,4.078-11.963,0.743
		c-1.243-1.243-2.253-2.564-2.706-4.018c-0.874,2.838,0.593,5.174,2.706,7.286c3.334,3.335,7.239,3.968,11.963-0.742L75.024,146.88z
		"/>
	<path fill="#E0A05A" d="M94.122,147.197c-0.416,1.337-1.335,2.789-2.908,4.417l-3.49,3.49c-4.613,4.333-7.829,3.481-10.964,0.345
		c-1.275-1.275-2.527-2.714-3.058-4.367c-1.001,3.116,1.008,5.584,3.058,7.635c3.136,3.136,6.351,3.988,10.964-0.345l3.49-3.49
		C94.157,151.836,94.847,149.399,94.122,147.197"/>
	<path fill="#E0A05A" d="M102.881,161.754c-0.284,1.04-0.857,2.113-1.812,3.197c-4.28,3.584-8.369,1.3-10.943-1.274
		c-0.752-0.751-1.536-1.784-1.946-2.986c-0.919,2.582,0.575,4.883,1.946,6.255c2.575,2.575,6.664,4.858,10.943,1.273
		C103.068,165.95,103.392,163.732,102.881,161.754"/>
	<path fill="#EFBB7B" d="M113.457,83.637l-17.942,17.819c-2.278,2.279-5.973,2.279-8.252,0l-4.615-4.615
		c-2.279-2.278-2.279-5.973,0-8.251l17.686-18.043L113.457,83.637z"/>
	<path fill="#E0A05A" d="M166.717,87.446c-0.107,0.076-0.212,0.153-0.318,0.226c-0.19,0.133-0.448,0.31-0.539,0.401
		c-1.173,1.365-2.923,3.171-4.467,4.762l-0.331,0.344c-4.776,4.929-4.821,5.068-7.26,12.386l-0.094,0.282
		c-1.527,4.588-2.192,6.611-4.26,9.789l-34.959-34.872c-0.571-0.569-1.493-0.57-2.064-0.003L95.514,97.556
		c-2.278,2.278-5.973,2.278-8.252,0l-4.615-4.615c-0.634-0.635-1.073-1.383-1.355-2.176c-0.729,2.055-0.29,4.432,1.355,6.076
		l4.615,4.615c2.278,2.279,5.973,2.279,8.252,0L112.94,84.15c0.286-0.284,0.747-0.283,1.032,0.001l35.475,35.386
		c2.069-3.178,2.734-5.2,4.26-9.788l0.094-0.282c2.438-7.319,2.484-7.458,7.26-12.387l0.331-0.344
		c1.543-1.591,3.294-3.396,4.467-4.761c0.091-0.091,0.35-0.269,0.539-0.402c0.333-0.229,0.68-0.468,0.96-0.75
		c0.939-0.939,0.724-2.009,0.128-2.607L166.717,87.446z"/>
	
		<rect x="136.056" y="42.496" transform="matrix(0.7071 -0.7071 0.7071 0.7071 -12.3021 124.5424)" fill="#FFFFFF" width="16.258" height="69.25"/>
	
		<rect x="139.343" y="25.206" transform="matrix(0.7071 -0.7071 0.7071 0.7071 1.0832 130.6493)" fill="#0E3553" width="37.813" height="77.623"/>
	<rect x="165.816" y="82.82" fill="#FFCC59" width="12.036" height="12.033"/>
	<polygon fill="#F19C23" points="177.852,94.853 165.817,94.854 177.851,82.82 	"/>
	<path fill="#FFFFFF" d="M84.893,89.128l7.867-7.867l5.082,5.081l-5.911,5.911c-2.255,2.255-4.388,1.253-6.999-1.16
		C84.361,90.566,84.344,89.677,84.893,89.128"/>
	<path fill="#FFFFFF" d="M64.475,127.68l-7.335-7.335l1.304-1.304c1.995-1.994,5.23-1.994,7.225,0l0.11,0.11
		c1.994,1.995,1.994,5.23,0,7.225L64.475,127.68z"/>
	<path fill="#FFFFFF" d="M76.584,139.79l-7.066-7.066l1.383-1.383c1.951-1.951,5.114-1.951,7.066,0c1.951,1.951,1.951,5.115,0,7.066
		L76.584,139.79z"/>
	<path fill="#FFFFFF" d="M88.687,151.892l-6.742-6.742l0.962-0.961c1.649-1.651,4.324-1.651,5.974,0l0.768,0.767
		c1.649,1.65,1.649,4.324,0,5.974L88.687,151.892z"/>
	<path fill="#FFFFFF" d="M98.798,163.992l-5.792-5.792l0.961-0.962c1.135-1.134,2.974-1.134,4.108,0l1.685,1.684
		c1.134,1.134,1.134,2.974,0,4.108L98.798,163.992z"/>
</g>
</svg>
