<?xml version="1.0" encoding="utf-8"?>
<!-- Generator: Adobe Illustrator 25.0.1, SVG Export Plug-In . SVG Version: 6.00 Build 0)  -->
<svg version="1.1" id="Layer_1" xmlns="http://www.w3.org/2000/svg" xmlns:xlink="http://www.w3.org/1999/xlink" x="0px" y="0px"
	 viewBox="0 0 640.5 138.9" style="enable-background:new 0 0 640.5 138.9;" xml:space="preserve">
<style type="text/css">
	.st0{fill:#FFFFFF;}
	.st1{fill:url(#SVGID_1_);}
	.st2{fill:url(#SVGID_2_);}
	.st3{fill:url(#SVGID_3_);}
	.st4{fill:url(#SVGID_4_);}
	.st5{fill:url(#SVGID_5_);}
	.st6{fill:url(#SVGID_6_);}
	.st7{fill:url(#SVGID_7_);}
	.st8{fill:url(#SVGID_8_);}
	.st9{fill:url(#SVGID_9_);}
	.st10{fill:url(#SVGID_10_);}
	.st11{fill:url(#SVGID_11_);}
	.st12{fill:url(#SVGID_12_);}
	.st13{fill:url(#SVGID_13_);}
	.st14{fill:url(#SVGID_14_);}
	.st15{fill:url(#SVGID_15_);}
	.st16{fill:url(#SVGID_16_);}
	.st17{fill:url(#SVGID_17_);}
	.st18{fill:url(#SVGID_18_);}
	.st19{fill:url(#SVGID_19_);}
	.st20{fill:url(#SVGID_20_);}
	.st21{fill:url(#SVGID_21_);}
	.st22{fill:url(#SVGID_22_);}
	.st23{fill:url(#SVGID_23_);}
	.st24{fill:url(#SVGID_24_);}
	.st25{fill:url(#SVGID_25_);}
	.st26{fill:url(#SVGID_26_);}
	.st27{fill:url(#SVGID_27_);}
	.st28{fill:url(#SVGID_28_);}
	.st29{fill:url(#SVGID_29_);}
	.st30{fill:url(#SVGID_30_);}
	.st31{fill:url(#SVGID_31_);}
	.st32{fill:url(#SVGID_32_);}
	.st33{fill:url(#SVGID_33_);}
	.st34{fill:url(#SVGID_34_);}
	.st35{fill:url(#SVGID_35_);}
	.st36{fill:url(#SVGID_36_);}
	.st37{fill:url(#SVGID_37_);}
	.st38{fill:url(#SVGID_38_);}
	.st39{fill:url(#SVGID_39_);}
	.st40{fill:url(#SVGID_40_);}
	.st41{fill:url(#SVGID_41_);}
	.st42{fill:url(#SVGID_42_);}
	.st43{fill:url(#SVGID_43_);}
	.st44{fill:url(#SVGID_44_);}
	.st45{fill:url(#SVGID_45_);}
	.st46{fill:url(#SVGID_46_);}
	.st47{fill:url(#SVGID_47_);}
	.st48{fill:url(#SVGID_48_);}
	.st49{fill:url(#SVGID_49_);}
	.st50{fill:url(#SVGID_50_);}
	.st51{fill:url(#SVGID_51_);}
	.st52{fill:url(#SVGID_52_);}
	.st53{fill:url(#SVGID_53_);}
	.st54{fill:url(#SVGID_54_);}
	.st55{fill:url(#SVGID_55_);}
	.st56{fill:url(#SVGID_56_);}
	.st57{fill:url(#SVGID_57_);}
	.st58{fill:url(#SVGID_58_);}
	.st59{fill:url(#SVGID_59_);}
	.st60{fill:url(#SVGID_60_);}
	.st61{fill:url(#SVGID_61_);}
	.st62{fill:url(#SVGID_62_);}
	.st63{fill:url(#SVGID_63_);}
	.st64{fill:url(#SVGID_64_);}
	.st65{fill:url(#SVGID_65_);}
	.st66{fill:url(#SVGID_66_);}
	.st67{fill:url(#SVGID_67_);}
	.st68{fill:url(#SVGID_68_);}
	.st69{fill:url(#SVGID_69_);}
	.st70{fill:url(#SVGID_70_);}
	.st71{fill:url(#SVGID_71_);}
	.st72{fill:url(#SVGID_72_);}
	.st73{fill:url(#SVGID_73_);}
	.st74{fill:url(#SVGID_74_);}
	.st75{fill:url(#SVGID_75_);}
	.st76{fill:url(#SVGID_76_);}
	.st77{fill:url(#SVGID_77_);}
	.st78{fill:url(#SVGID_78_);}
	.st79{fill:url(#SVGID_79_);}
	.st80{fill:url(#SVGID_80_);}
	.st81{fill:url(#SVGID_81_);}
	.st82{fill:url(#SVGID_82_);}
	.st83{fill:url(#SVGID_83_);}
	.st84{fill:url(#SVGID_84_);}
	.st85{fill:url(#SVGID_85_);}
	.st86{fill:url(#SVGID_86_);}
	.st87{fill:url(#SVGID_87_);}
	.st88{fill:url(#SVGID_88_);}
	.st89{fill:url(#SVGID_89_);}
	.st90{fill:url(#SVGID_90_);}
	.st91{fill:url(#SVGID_91_);}
	.st92{fill:url(#SVGID_92_);}
	.st93{fill:url(#SVGID_93_);}
	.st94{fill:url(#SVGID_94_);}
	.st95{fill:url(#SVGID_95_);}
	.st96{fill:url(#SVGID_96_);}
	.st97{fill:url(#SVGID_97_);}
	.st98{fill:url(#SVGID_98_);}
	.st99{fill:url(#SVGID_99_);}
	.st100{fill:url(#SVGID_100_);}
</style>
<g>
	<g>
		<path class="st0" d="M103.1,43.2L66.2,22l-2.9-1.7L60.4,22L23.5,43.2l-2.9,1.7v3.4v42.5v3.4l2.9,1.7l36.8,21.3l2.9,1.7l2.9-1.7
			l36.8-21.3l2.9-1.7v-3.4V48.3v-3.4L103.1,43.2z M103.8,49.4v40.3v3.2l-2.8,1.6l-34.9,20.2l-2.8,1.6l-2.8-1.6L25.6,94.5l-2.8-1.6
			v-3.2V49.4v-3.2l2.8-1.6l34.9-20.2l2.8-1.6l2.8,1.6L101,44.6l2.8,1.6V49.4z"/>
		<polygon points="28.4,53 28.4,88.4 47.3,77.5 		"/>
		<polygon points="98.2,88.4 98.2,53 79.3,77.5 		"/>
		<polygon points="65.1,95.8 64.4,96.6 64.4,109.2 97.1,90.4 77.9,79.3 		"/>
		<polygon points="28.4,49.4 28.4,49.4 28.4,49.4 		"/>
		<polygon points="50.5,78 50.7,78.1 63.3,94.4 55.4,84.3 		"/>
		<polygon points="48.7,79.3 29.5,90.4 62.2,109.2 62.2,96.6 61.5,95.8 		"/>
		<path d="M66.1,24.4l-2.8-1.6l-2.8,1.6L25.6,44.6l-2.8,1.6v3.2v40.3v3.2l2.8,1.6l34.9,20.2l2.8,1.6l2.8-1.6L101,94.5l2.8-1.6v-3.2
			V49.4v-3.2l-2.8-1.6L66.1,24.4z M100.4,49.4v40.3V91l-1.1,0.6l-34.9,20.2l-1.1,0.6l-1.1-0.6L27.3,91.6L26.2,91v-1.3V49.4v-1.3
			l1.1-0.6l34.9-20.2l1.1-0.6l1.1,0.6l34.9,20.2l1.1,0.6V49.4z"/>
		<polygon points="77.3,76.4 98.2,49.4 76.5,77.4 		"/>
		<polygon points="95.9,48.1 63.3,29.2 30.7,48.1 63.3,64.7 		"/>
		<path class="st0" d="M64.4,27.3l-1.1-0.6l-1.1,0.6L27.3,47.5l-1.1,0.6v1.3v40.3V91l1.1,0.6l34.9,20.2l1.1,0.6l1.1-0.6l34.9-20.2
			l1.1-0.6v-1.3V49.4v-1.3l-1.1-0.6L64.4,27.3z M63.3,29.2l32.6,18.8L63.3,64.7L30.7,48.1L63.3,29.2z M62.2,109.2L29.5,90.4
			l19.2-11.1l12.8,16.6l0.6,0.8V109.2z M28.4,88.4V53l18.9,24.5L28.4,88.4z M64.4,109.2V96.6l0.6-0.8l12.8-16.6l19.2,11.1
			L64.4,109.2z M98.2,88.4L79.3,77.5L98.2,53V88.4z M77.3,76.4l-0.8,1.1l-13.2,17v0l0,0l0,0L50.7,78.1L50.5,78L28.4,49.4l0,0l0,0
			l29.9,15.2l5,2.6l34.9-17.8L77.3,76.4z"/>
		<polygon points="58.3,64.6 28.4,49.4 28.4,49.4 		"/>
		<linearGradient id="SVGID_1_" gradientUnits="userSpaceOnUse" x1="28.3817" y1="57.016" x2="98.2041" y2="57.016">
			<stop  offset="0" style="stop-color:#33994B"/>
			<stop  offset="0.3397" style="stop-color:#6FB64D"/>
			<stop  offset="1" style="stop-color:#A3C851"/>
		</linearGradient>
		<polygon class="st1" points="58.3,64.6 28.4,49.4 28.4,49.4 		"/>
		<polygon points="63.3,67.2 63.3,94.4 75.9,78.1 76.5,77.4 98.2,49.4 63.3,67.2 		"/>
		<linearGradient id="SVGID_2_" gradientUnits="userSpaceOnUse" x1="28.3816" y1="71.9236" x2="98.2041" y2="71.9236">
			<stop  offset="0" style="stop-color:#33994B"/>
			<stop  offset="0.3397" style="stop-color:#6FB64D"/>
			<stop  offset="1" style="stop-color:#A3C851"/>
		</linearGradient>
		<polygon class="st2" points="63.3,67.2 63.3,94.4 75.9,78.1 76.5,77.4 98.2,49.4 63.3,67.2 		"/>
		<polygon points="55.4,84.3 63.3,94.4 63.3,94.4 		"/>
		<linearGradient id="SVGID_3_" gradientUnits="userSpaceOnUse" x1="28.3817" y1="89.3777" x2="98.2041" y2="89.3777">
			<stop  offset="0" style="stop-color:#33994B"/>
			<stop  offset="0.3397" style="stop-color:#6FB64D"/>
			<stop  offset="1" style="stop-color:#A3C851"/>
		</linearGradient>
		<polygon class="st3" points="55.4,84.3 63.3,94.4 63.3,94.4 		"/>
		<polygon class="st0" points="63.3,94.4 63.3,94.4 63.3,94.4 		"/>
		<linearGradient id="SVGID_4_" gradientUnits="userSpaceOnUse" x1="63.2279" y1="94.4494" x2="63.3578" y2="94.4494">
			<stop  offset="0" style="stop-color:#33994B"/>
			<stop  offset="0.3397" style="stop-color:#6FB64D"/>
			<stop  offset="1" style="stop-color:#A3C851"/>
		</linearGradient>
		<polygon class="st4" points="63.3,94.4 63.3,94.4 63.3,94.4 		"/>
		<polygon class="st0" points="63.3,94.4 63.3,94.4 76.5,77.4 75.9,78.1 		"/>
		<linearGradient id="SVGID_5_" gradientUnits="userSpaceOnUse" x1="28.3817" y1="85.9346" x2="98.2041" y2="85.9346">
			<stop  offset="0" style="stop-color:#33994B"/>
			<stop  offset="0.3397" style="stop-color:#6FB64D"/>
			<stop  offset="1" style="stop-color:#A3C851"/>
		</linearGradient>
		<polygon class="st5" points="63.3,94.4 63.3,94.4 76.5,77.4 75.9,78.1 		"/>
		<polygon points="28.4,49.4 28.4,49.4 49.3,76.4 50.5,78 55.4,84.3 		"/>
		
			<linearGradient id="SVGID_6_" gradientUnits="userSpaceOnUse" x1="-5170.6338" y1="94.4494" x2="-5170.6338" y2="49.3979" gradientTransform="matrix(-1 0 0 1 -5128.7266 0)">
			<stop  offset="0" style="stop-color:#026839"/>
			<stop  offset="0.3795" style="stop-color:#33994B"/>
			<stop  offset="1" style="stop-color:#6FB64D"/>
		</linearGradient>
		<polygon class="st6" points="28.4,49.4 28.4,49.4 49.3,76.4 50.5,78 55.4,84.3 		"/>
		<polygon class="st0" points="63.3,67.2 58.3,64.6 63.3,67.2 		"/>
		
			<linearGradient id="SVGID_7_" gradientUnits="userSpaceOnUse" x1="-5189.5122" y1="94.4494" x2="-5189.5122" y2="49.3979" gradientTransform="matrix(-1 0 0 1 -5128.7266 0)">
			<stop  offset="0" style="stop-color:#026839"/>
			<stop  offset="0.3795" style="stop-color:#33994B"/>
			<stop  offset="1" style="stop-color:#6FB64D"/>
		</linearGradient>
		<polygon class="st7" points="63.3,67.2 58.3,64.6 63.3,67.2 		"/>
		<polygon class="st0" points="28.4,49.4 28.4,49.4 50.5,78 49.3,76.4 		"/>
		
			<linearGradient id="SVGID_8_" gradientUnits="userSpaceOnUse" x1="-5168.1821" y1="94.4494" x2="-5168.1821" y2="49.3979" gradientTransform="matrix(-1 0 0 1 -5128.7266 0)">
			<stop  offset="0" style="stop-color:#026839"/>
			<stop  offset="0.3795" style="stop-color:#33994B"/>
			<stop  offset="1" style="stop-color:#6FB64D"/>
		</linearGradient>
		<polygon class="st8" points="28.4,49.4 28.4,49.4 50.5,78 49.3,76.4 		"/>
		<polygon class="st0" points="63.3,94.4 63.3,94.4 63.3,94.4 		"/>
		
			<linearGradient id="SVGID_9_" gradientUnits="userSpaceOnUse" x1="-5192.0195" y1="94.4494" x2="-5192.0195" y2="94.1896" gradientTransform="matrix(-1 0 0 1 -5128.7266 0)">
			<stop  offset="0" style="stop-color:#026839"/>
			<stop  offset="0.3795" style="stop-color:#33994B"/>
			<stop  offset="1" style="stop-color:#6FB64D"/>
		</linearGradient>
		<polygon class="st9" points="63.3,94.4 63.3,94.4 63.3,94.4 		"/>
		<polygon points="55.4,84.3 63.3,94.4 63.3,94.4 63.3,67.2 63.3,67.2 63.3,67.2 58.3,64.6 28.4,49.4 		"/>
		<linearGradient id="SVGID_10_" gradientUnits="userSpaceOnUse" x1="28.3819" y1="71.9237" x2="98.2039" y2="71.9237">
			<stop  offset="0" style="stop-color:#33994B"/>
			<stop  offset="0.3397" style="stop-color:#6FB64D"/>
			<stop  offset="1" style="stop-color:#A3C851"/>
		</linearGradient>
		<polygon class="st10" points="55.4,84.3 63.3,94.4 63.3,94.4 63.3,67.2 63.3,67.2 63.3,67.2 58.3,64.6 28.4,49.4 		"/>
		
			<linearGradient id="SVGID_11_" gradientUnits="userSpaceOnUse" x1="-5174.564" y1="94.4494" x2="-5174.564" y2="49.398" gradientTransform="matrix(-1 0 0 1 -5128.7266 0)">
			<stop  offset="0" style="stop-color:#026839"/>
			<stop  offset="0.3795" style="stop-color:#33994B"/>
			<stop  offset="1" style="stop-color:#6FB64D"/>
		</linearGradient>
		<polygon class="st11" points="55.4,84.3 63.3,94.4 63.3,94.4 63.3,67.2 63.3,67.2 63.3,67.2 58.3,64.6 28.4,49.4 		"/>
		<rect x="63.3" y="94.4" class="st0" width="0" height="0"/>
		<linearGradient id="SVGID_12_" gradientUnits="userSpaceOnUse" x1="63.2279" y1="94.4494" x2="63.3578" y2="94.4494">
			<stop  offset="0" style="stop-color:#33994B"/>
			<stop  offset="0.3397" style="stop-color:#6FB64D"/>
			<stop  offset="1" style="stop-color:#A3C851"/>
		</linearGradient>
		<rect x="63.3" y="94.4" class="st12" width="0" height="0"/>
		
			<linearGradient id="SVGID_13_" gradientUnits="userSpaceOnUse" x1="-5192.0195" y1="94.4494" x2="-5192.0195" y2="94.3195" gradientTransform="matrix(-1 0 0 1 -5128.7266 0)">
			<stop  offset="0" style="stop-color:#026839"/>
			<stop  offset="0.3795" style="stop-color:#33994B"/>
			<stop  offset="1" style="stop-color:#6FB64D"/>
		</linearGradient>
		<rect x="63.3" y="94.4" class="st13" width="0" height="0"/>
	</g>
	<g>
		<g>
			<polygon points="159.2,73.5 172.5,73.5 172.5,65.9 159.2,65.9 159.2,60.3 173.2,60.3 173.2,52.4 149.4,52.4 149.4,87.4 
				174.1,87.4 174.1,79.5 159.2,79.5 			"/>
		</g>
		<g>
			<path d="M204.8,69.4c1.1-1.7,1.6-3.7,1.6-6.2c0-2-0.3-3.7-1-5.1c-0.7-1.4-1.7-2.5-2.9-3.4c-1.2-0.8-2.6-1.5-4.3-1.8
				c-1.6-0.4-3.4-0.6-5.3-0.6H179v35h9.8V75h2.3l6.5,12.4h11l-8.2-14.3C202.2,72.3,203.7,71.1,204.8,69.4z M196.1,65.5
				c-0.3,0.5-0.6,0.9-1,1.2c-0.4,0.3-0.9,0.5-1.4,0.6c-0.5,0.1-1.1,0.2-1.6,0.2h-3.3v-7.2h3.3c1.2,0,2.2,0.2,3.1,0.7
				c0.9,0.4,1.3,1.3,1.3,2.6C196.5,64.4,196.4,65,196.1,65.5z"/>
		</g>
		<g>
			<rect x="210.4" y="52.4" width="10" height="35"/>
		</g>
		<g>
			<path d="M251.4,56.2c-1.8-1.4-3.9-2.3-6.2-2.9c-2.3-0.6-4.8-0.9-7.3-0.9h-13v35h13.3c2.5,0,4.9-0.3,7.2-1
				c2.3-0.7,4.4-1.7,6.2-3.2c1.8-1.4,3.2-3.3,4.3-5.5c1.1-2.2,1.6-4.8,1.6-7.9c0-3.3-0.5-6.1-1.6-8.3
				C254.7,59.3,253.2,57.5,251.4,56.2z M246.2,74.2c-0.5,1.2-1.2,2.2-2.1,2.9c-0.9,0.7-1.9,1.3-3.1,1.6c-1.2,0.3-2.4,0.5-3.7,0.5
				h-2.5V60.6h2.7c1.3,0,2.5,0.2,3.7,0.5c1.1,0.3,2.1,0.8,3,1.5c0.8,0.7,1.5,1.6,2,2.8c0.5,1.2,0.7,2.6,0.7,4.4
				C246.9,71.5,246.7,73,246.2,74.2z"/>
		</g>
		<g>
			<polygon points="129.7,73.8 121.9,52.4 111.9,52.4 124.6,87.4 134.6,87.4 147.5,52.4 137.5,52.4 			"/>
		</g>
		<g>
			<path d="M278.8,51.5c-10.2,0-18.4,8.2-18.4,18.4c0,10.2,8.2,18.4,18.4,18.4c10.1,0,18.4-8.2,18.4-18.4
				C297.2,59.7,289,51.5,278.8,51.5z M278.8,78.9c-5,0-9-4-9-9c0-5,4-9,9-9c5,0,9,4,9,9C287.8,74.9,283.7,78.9,278.8,78.9z"/>
		</g>
		<g>
			<path d="M318.3,78.9c-5,0-9-4-9-9c0-5,4.1-9,9-9c3.7,0,6.9,2.2,8.3,5.3l9-2.4c-2.5-7.2-9.3-12.3-17.3-12.3
				c-10.2,0-18.4,8.2-18.4,18.4c0,10.2,8.2,18.4,18.4,18.4c7.9,0,14.7-5,17.3-12.1l-9.1-2.4C325.1,76.8,321.9,78.9,318.3,78.9z"/>
		</g>
	</g>
	<g>
		<g>
			<linearGradient id="SVGID_14_" gradientUnits="userSpaceOnUse" x1="279.3524" y1="68.8488" x2="595.1683" y2="68.8488">
				<stop  offset="0" style="stop-color:#006537"/>
				<stop  offset="0.33" style="stop-color:#008A40"/>
				<stop  offset="0.66" style="stop-color:#36AC47"/>
				<stop  offset="1" style="stop-color:#9AC341"/>
			</linearGradient>
			<path class="st14" d="M381.3,75.7c-0.2,2.6-1.1,4.8-2.5,6.8c-1.5,2-3.4,3.5-5.8,4.6c-2.4,1.1-5,1.6-7.7,1.5
				c-3.8-0.1-6.8-1.3-9-3.7c-2.2-2.4-3.4-5.6-3.6-9.7c-0.2-2.7,0.1-5.7,0.9-8.9c0.7-3.2,2-6,3.6-8.4c1.7-2.4,3.7-4.1,6-5.3
				s4.8-1.7,7.5-1.7c4,0.1,7.1,1.3,9.5,3.6c2.3,2.3,3.6,5.5,3.8,9.6l-8.6,0c0-2.2-0.4-3.8-1.2-4.8c-0.8-1-2.2-1.5-4-1.5
				c-4.5-0.2-7.3,3.4-8.3,10.6c-0.5,3.2-0.7,5.6-0.7,7c-0.1,4.1,1.4,6.2,4.6,6.4c2,0.1,3.6-0.4,4.8-1.5c1.2-1.1,2-2.6,2.3-4.5
				L381.3,75.7z"/>
			<linearGradient id="SVGID_15_" gradientUnits="userSpaceOnUse" x1="279.3524" y1="68.8488" x2="595.1683" y2="68.8488">
				<stop  offset="0" style="stop-color:#006537"/>
				<stop  offset="0.33" style="stop-color:#008A40"/>
				<stop  offset="0.66" style="stop-color:#36AC47"/>
				<stop  offset="1" style="stop-color:#9AC341"/>
			</linearGradient>
			<path class="st15" d="M396.8,88.7c-2.4,0-4.6-0.6-6.5-1.7c-1.9-1.1-3.3-2.7-4.3-4.7c-1-2-1.4-4.2-1.2-6.7l0.1-0.7
				c0.5-4.5,2-8,4.7-10.6c2.7-2.6,5.9-3.9,9.8-3.8c2.3,0,4.3,0.6,6,1.8c1.7,1.1,2.9,2.7,3.6,4.8c0.8,2,1,4.3,0.8,6.8l-0.5,3.4h-16.2
				c0,1.4,0.4,2.6,1.2,3.5c0.8,0.9,1.9,1.4,3.4,1.4c2.4,0.1,4.5-0.9,6.5-2.8l3.5,4.6c-1,1.5-2.4,2.6-4.3,3.4c-1.8,0.8-3.8,1.3-6,1.3
				H396.8z M398.9,67c-1.2,0-2.2,0.3-3.1,1.1c-0.9,0.8-1.6,2-2.2,3.8h8.3l0.2-0.7c0.1-0.6,0.1-1.1,0.1-1.6
				C401.7,67.9,400.7,67.1,398.9,67z"/>
			<linearGradient id="SVGID_16_" gradientUnits="userSpaceOnUse" x1="279.3524" y1="68.8488" x2="595.1683" y2="68.8488">
				<stop  offset="0" style="stop-color:#006537"/>
				<stop  offset="0.33" style="stop-color:#008A40"/>
				<stop  offset="0.66" style="stop-color:#36AC47"/>
				<stop  offset="1" style="stop-color:#9AC341"/>
			</linearGradient>
			<path class="st16" d="M430.4,68.7c-0.9-0.1-1.7-0.2-2.6-0.3c-2.5-0.1-4.4,0.8-5.7,2.6l-3.1,17.2h-8.3l4.7-27.2l7.7,0l-0.6,3.6
				c1.8-2.7,3.9-4.1,6.3-4.1c0.7,0,1.5,0.1,2.6,0.4L430.4,68.7z"/>
			<linearGradient id="SVGID_17_" gradientUnits="userSpaceOnUse" x1="279.3524" y1="68.8488" x2="595.1683" y2="68.8488">
				<stop  offset="0" style="stop-color:#006537"/>
				<stop  offset="0.33" style="stop-color:#008A40"/>
				<stop  offset="0.66" style="stop-color:#36AC47"/>
				<stop  offset="1" style="stop-color:#9AC341"/>
			</linearGradient>
			<path class="st17" d="M445.4,54.2l-1.2,6.8h4.3l-1,5.9h-4.3l-2.1,12.5c-0.1,0.9-0.1,1.5,0.2,1.9c0.2,0.4,0.8,0.7,1.7,0.7
				c0.4,0,1.1,0,2.2-0.1l-0.6,6.1c-1.4,0.5-2.9,0.7-4.4,0.6c-2.6,0-4.5-0.8-5.8-2.3s-1.8-3.5-1.6-6l2.2-13.5h-3.4l1-5.9h3.4l1.2-6.8
				H445.4z"/>
			<linearGradient id="SVGID_18_" gradientUnits="userSpaceOnUse" x1="279.3524" y1="68.8488" x2="595.1683" y2="68.8488">
				<stop  offset="0" style="stop-color:#006537"/>
				<stop  offset="0.33" style="stop-color:#008A40"/>
				<stop  offset="0.66" style="stop-color:#36AC47"/>
				<stop  offset="1" style="stop-color:#9AC341"/>
			</linearGradient>
			<path class="st18" d="M456,88.2h-8.3l4.7-27.2h8.3L456,88.2z M453.2,54.1c0-1.2,0.4-2.2,1.3-3.1c0.9-0.8,2-1.2,3.3-1.2
				c1.3,0,2.4,0.4,3.2,1.1c0.9,0.7,1.3,1.7,1.3,2.9c0,1.2-0.4,2.3-1.3,3.1s-2,1.2-3.3,1.2c-1.3,0-2.3-0.4-3.2-1.1
				C453.7,56.3,453.2,55.3,453.2,54.1z"/>
			<linearGradient id="SVGID_19_" gradientUnits="userSpaceOnUse" x1="279.3524" y1="68.8488" x2="595.1683" y2="68.8488">
				<stop  offset="0" style="stop-color:#006537"/>
				<stop  offset="0.33" style="stop-color:#008A40"/>
				<stop  offset="0.66" style="stop-color:#36AC47"/>
				<stop  offset="1" style="stop-color:#9AC341"/>
			</linearGradient>
			<path class="st19" d="M463.1,88.2l3.7-21.3H463l1-5.9l3.8,0l0.3-2.4c0.4-2.9,1.6-5.2,3.5-6.9c2-1.8,4.7-2.7,7.9-2.7
				c0.8,0,2.2,0.2,4.1,0.6l-0.6,6.3c-0.8-0.2-1.4-0.3-2-0.3c-1.2,0-2.2,0.3-3,0.8c-0.8,0.6-1.3,1.4-1.5,2.4l-0.4,2.2h5.1l-1,5.9
				h-5.1l-3.7,21.3H463.1z"/>
			<linearGradient id="SVGID_20_" gradientUnits="userSpaceOnUse" x1="279.3524" y1="68.8488" x2="595.1683" y2="68.8488">
				<stop  offset="0" style="stop-color:#006537"/>
				<stop  offset="0.33" style="stop-color:#008A40"/>
				<stop  offset="0.66" style="stop-color:#36AC47"/>
				<stop  offset="1" style="stop-color:#9AC341"/>
			</linearGradient>
			<path class="st20" d="M488.3,88.2H480l4.7-27.2h8.3L488.3,88.2z M485.5,54.1c0-1.2,0.4-2.2,1.3-3.1c0.9-0.8,2-1.2,3.3-1.2
				c1.3,0,2.4,0.4,3.2,1.1c0.9,0.7,1.3,1.7,1.3,2.9c0,1.2-0.4,2.3-1.3,3.1s-2,1.2-3.3,1.2c-1.3,0-2.3-0.4-3.2-1.1
				C486,56.3,485.5,55.3,485.5,54.1z"/>
			<linearGradient id="SVGID_21_" gradientUnits="userSpaceOnUse" x1="279.3524" y1="68.8488" x2="595.1683" y2="68.8488">
				<stop  offset="0" style="stop-color:#006537"/>
				<stop  offset="0.33" style="stop-color:#008A40"/>
				<stop  offset="0.66" style="stop-color:#36AC47"/>
				<stop  offset="1" style="stop-color:#9AC341"/>
			</linearGradient>
			<path class="st21" d="M506.2,82.1c1.2,0,2.1-0.3,2.8-1s1.1-1.6,1.3-2.7l7.7,0c-0.1,2-0.7,3.8-1.8,5.4c-1.1,1.6-2.5,2.8-4.4,3.7
				c-1.8,0.9-3.8,1.3-5.9,1.2c-3.6-0.1-6.4-1.4-8.4-3.9c-2-2.5-2.8-5.8-2.4-9.8l0.1-0.6c0.3-2.7,1.1-5.2,2.3-7.3
				c1.2-2.1,2.9-3.8,4.9-4.9c2-1.2,4.3-1.7,6.8-1.6c3.2,0.1,5.7,1.1,7.5,3c1.8,2,2.7,4.6,2.6,7.9l-7.7,0c0.1-2.9-0.9-4.3-3.1-4.4
				c-2.9-0.1-4.6,2.3-5,7.3l-0.2,2.6l0,1C503.3,80.7,504.2,82.1,506.2,82.1z"/>
			<linearGradient id="SVGID_22_" gradientUnits="userSpaceOnUse" x1="279.3524" y1="68.8488" x2="595.1683" y2="68.8488">
				<stop  offset="0" style="stop-color:#006537"/>
				<stop  offset="0.33" style="stop-color:#008A40"/>
				<stop  offset="0.66" style="stop-color:#36AC47"/>
				<stop  offset="1" style="stop-color:#9AC341"/>
			</linearGradient>
			<path class="st22" d="M535.1,88.2c-0.2-0.7-0.4-1.5-0.4-2.5c-1.9,2-4.1,3-6.7,3c-2.4,0-4.3-0.8-5.9-2.4s-2.3-3.4-2.2-5.6
				c0.1-2.9,1.3-5.2,3.7-6.8c2.4-1.6,5.6-2.4,9.7-2.4l2.8,0.1l0.3-1.5l0.1-1.3c-0.1-1.5-0.8-2.3-2.3-2.4c-1.8,0-2.9,1-3.3,3l-8.3,0
				c0.1-1.8,0.7-3.4,1.8-4.8c1.1-1.3,2.6-2.4,4.5-3.1c1.9-0.7,3.9-1.1,6.1-1c2.1,0.1,3.9,0.5,5.4,1.3s2.7,1.9,3.5,3.4s1.1,3.1,0.9,5
				l-2,12.8l-0.1,1.6c-0.1,1.2,0.1,2.3,0.5,3.2l0,0.5H535.1z M530.4,82.7c1.7,0.1,3.2-0.7,4.4-2.2l0.8-4.4l-2.1,0
				c-1.3,0-2.5,0.4-3.4,1.2c-1,0.7-1.5,1.8-1.7,3.1c-0.1,0.7,0,1.3,0.4,1.7C529.1,82.4,529.7,82.7,530.4,82.7z"/>
			<linearGradient id="SVGID_23_" gradientUnits="userSpaceOnUse" x1="279.3524" y1="68.8488" x2="595.1683" y2="68.8488">
				<stop  offset="0" style="stop-color:#006537"/>
				<stop  offset="0.33" style="stop-color:#008A40"/>
				<stop  offset="0.66" style="stop-color:#36AC47"/>
				<stop  offset="1" style="stop-color:#9AC341"/>
			</linearGradient>
			<path class="st23" d="M562,54.2l-1.2,6.8h4.3l-1,5.9h-4.3l-2.1,12.5c-0.1,0.9-0.1,1.5,0.2,1.9c0.2,0.4,0.8,0.7,1.7,0.7
				c0.4,0,1.1,0,2.2-0.1l-0.6,6.1c-1.4,0.5-2.9,0.7-4.4,0.6c-2.6,0-4.5-0.8-5.8-2.3s-1.8-3.5-1.6-6l2.2-13.5h-3.4l1-5.9h3.4l1.2-6.8
				H562z"/>
			<linearGradient id="SVGID_24_" gradientUnits="userSpaceOnUse" x1="279.3524" y1="68.8488" x2="595.1683" y2="68.8488">
				<stop  offset="0" style="stop-color:#006537"/>
				<stop  offset="0.33" style="stop-color:#008A40"/>
				<stop  offset="0.66" style="stop-color:#36AC47"/>
				<stop  offset="1" style="stop-color:#9AC341"/>
			</linearGradient>
			<path class="st24" d="M577.4,88.7c-2.4,0-4.6-0.6-6.5-1.7c-1.9-1.1-3.3-2.7-4.3-4.7c-1-2-1.4-4.2-1.2-6.7l0.1-0.7
				c0.5-4.5,2-8,4.7-10.6c2.7-2.6,5.9-3.9,9.8-3.8c2.3,0,4.3,0.6,6,1.8c1.7,1.1,2.9,2.7,3.6,4.8c0.8,2,1,4.3,0.8,6.8l-0.5,3.4h-16.2
				c0,1.4,0.4,2.6,1.2,3.5c0.8,0.9,1.9,1.4,3.4,1.4c2.4,0.1,4.5-0.9,6.5-2.8l3.5,4.6c-1,1.5-2.4,2.6-4.3,3.4c-1.8,0.8-3.8,1.3-6,1.3
				H577.4z M579.4,67c-1.2,0-2.2,0.3-3.1,1.1c-0.9,0.8-1.6,2-2.2,3.8h8.3l0.2-0.7c0.1-0.6,0.1-1.1,0.1-1.6
				C582.3,67.9,581.2,67.1,579.4,67z"/>
			<linearGradient id="SVGID_25_" gradientUnits="userSpaceOnUse" x1="279.3524" y1="68.8488" x2="595.1683" y2="68.8488">
				<stop  offset="0" style="stop-color:#006537"/>
				<stop  offset="0.33" style="stop-color:#008A40"/>
				<stop  offset="0.66" style="stop-color:#36AC47"/>
				<stop  offset="1" style="stop-color:#9AC341"/>
			</linearGradient>
			<path class="st25" d="M606.6,80.4c0.2-1.1-0.6-1.9-2.6-2.5l-1.8-0.5c-2.9-0.8-5-1.8-6.4-3.2c-1.4-1.4-2-3-1.9-4.9
				c0.1-2.6,1.2-4.7,3.5-6.4s5-2.4,8.2-2.4c3.2,0,5.8,0.8,7.8,2.4c2,1.6,3,3.7,3,6.4l-8.2,0c0.1-2.1-0.9-3.2-2.8-3.2
				c-0.8,0-1.6,0.2-2.3,0.7c-0.7,0.5-1.1,1.2-1.3,2c-0.3,1.4,0.9,2.3,3.6,2.8c2.3,0.6,4.1,1.2,5.4,1.9c1.3,0.7,2.2,1.6,2.9,2.7
				c0.7,1.1,1,2.4,0.9,3.9c0,1.6-0.6,3.1-1.6,4.4c-1,1.3-2.5,2.3-4.4,3.1c-1.9,0.8-4,1.1-6.3,1.1c-2,0-3.8-0.4-5.5-1.2
				c-1.7-0.8-3-1.9-3.9-3.3c-0.9-1.4-1.4-3-1.5-4.8l7.7,0c0,2.4,1.2,3.6,3.6,3.6c1,0,1.9-0.2,2.6-0.7
				C606,81.9,606.4,81.2,606.6,80.4z"/>
		</g>
	</g>
</g>
</svg>
