<?xml version="1.0" encoding="utf-8"?>
<!-- Generator: Adobe Illustrator 17.0.0, SVG Export Plug-In . SVG Version: 6.00 Build 0)  -->
<!DOCTYPE svg PUBLIC "-//W3C//DTD SVG 1.1//EN" "http://www.w3.org/Graphics/SVG/1.1/DTD/svg11.dtd">
<svg version="1.1" id="Layer_1" xmlns="http://www.w3.org/2000/svg" xmlns:xlink="http://www.w3.org/1999/xlink" x="0px" y="0px"
	 width="200px" height="200px" viewBox="0 0 200 200" enable-background="new 0 0 200 200" xml:space="preserve">
<g>
	<g>
		<g>
			<path fill="#0E3553" d="M139.609,122.093c0-0.845-0.269-1.543-0.806-2.095c-0.536-0.552-1.431-1.048-2.683-1.49
				c-1.253-0.442-2.227-0.853-2.923-1.23c-2.315-1.242-3.474-3.081-3.474-5.516c0-1.649,0.502-3.007,1.506-4.07
				s2.365-1.694,4.085-1.894v-3.25h2.386v3.28c1.729,0.248,3.065,0.981,4.01,2.199c0.944,1.217,1.416,2.8,1.416,4.748h-3.607
				c0-1.252-0.281-2.238-0.842-2.959c-0.562-0.721-1.325-1.081-2.289-1.081c-0.954,0-1.699,0.259-2.236,0.775
				c-0.536,0.517-0.805,1.257-0.805,2.221c0,0.865,0.266,1.559,0.798,2.08c0.531,0.521,1.434,1.017,2.706,1.483
				c1.271,0.467,2.271,0.899,2.996,1.297s1.337,0.853,1.834,1.364c0.496,0.512,0.879,1.101,1.147,1.767s0.402,1.446,0.402,2.34
				c0,1.68-0.514,3.042-1.543,4.085c-1.028,1.044-2.462,1.66-4.301,1.849v2.907h-2.37v-2.892c-1.968-0.219-3.481-0.925-4.54-2.117
				c-1.058-1.192-1.587-2.773-1.587-4.741h3.622c0,1.253,0.315,2.222,0.947,2.907c0.631,0.686,1.522,1.028,2.676,1.028
				c1.133,0,1.995-0.272,2.586-0.819C139.313,123.723,139.609,122.997,139.609,122.093z"/>
		</g>
		<g>
			<path fill="#0E3553" d="M106.616,137.601c0-0.615-0.216-1.134-0.647-1.555c-0.432-0.422-1.159-0.803-2.183-1.145
				c-1.424-0.435-2.463-1.001-3.115-1.7s-0.978-1.587-0.978-2.664c0-1.097,0.32-1.997,0.958-2.699s1.517-1.12,2.634-1.254v-2.197
				h1.495v2.207c1.123,0.154,1.998,0.626,2.623,1.415c0.626,0.789,0.938,1.869,0.938,3.241h-1.846c0-0.946-0.225-1.698-0.673-2.255
				c-0.448-0.558-1.054-0.836-1.816-0.836c-0.796,0-1.404,0.206-1.825,0.618c-0.422,0.412-0.633,0.986-0.633,1.724
				c0,0.684,0.223,1.229,0.668,1.634c0.444,0.405,1.177,0.773,2.197,1.105c1.02,0.332,1.815,0.696,2.388,1.095
				c0.572,0.397,0.993,0.861,1.264,1.39c0.271,0.528,0.407,1.147,0.407,1.856c0,1.13-0.34,2.04-1.019,2.729
				c-0.68,0.689-1.631,1.097-2.854,1.225v1.916h-1.485v-1.916c-1.244-0.114-2.219-0.558-2.925-1.33
				c-0.706-0.772-1.059-1.82-1.059-3.146h1.856c0,0.93,0.244,1.646,0.732,2.147s1.181,0.753,2.077,0.753
				c0.876,0,1.565-0.211,2.066-0.633C106.365,138.905,106.616,138.33,106.616,137.601z"/>
		</g>
		<g>
			<path fill="#0E3553" d="M165.801,158.794c0-0.503-0.177-0.928-0.529-1.272c-0.354-0.345-0.948-0.656-1.785-0.936
				c-1.166-0.355-2.016-0.819-2.549-1.392c-0.534-0.571-0.801-1.298-0.801-2.179c0-0.897,0.262-1.634,0.784-2.208
				s1.24-0.917,2.154-1.026v-1.797h1.224v1.806c0.919,0.126,1.635,0.512,2.146,1.157c0.511,0.646,0.767,1.529,0.767,2.651h-1.51
				c0-0.774-0.184-1.39-0.55-1.845c-0.367-0.456-0.862-0.684-1.486-0.684c-0.65,0-1.148,0.169-1.493,0.506s-0.518,0.807-0.518,1.41
				c0,0.559,0.182,1.005,0.546,1.336c0.364,0.332,0.963,0.634,1.798,0.904c0.834,0.271,1.485,0.57,1.953,0.896
				c0.468,0.326,0.813,0.705,1.034,1.137c0.222,0.433,0.333,0.938,0.333,1.519c0,0.925-0.278,1.669-0.833,2.232
				c-0.556,0.564-1.334,0.897-2.336,1.002v1.567h-1.215v-1.567c-1.018-0.093-1.815-0.456-2.393-1.088s-0.865-1.489-0.865-2.573
				h1.519c0,0.761,0.199,1.347,0.599,1.757s0.966,0.615,1.699,0.615c0.717,0,1.28-0.172,1.69-0.517
				C165.596,159.861,165.801,159.391,165.801,158.794z"/>
		</g>
		<g>
			<path fill="#0E3553" d="M114.552,50.727c0-0.741-0.26-1.366-0.779-1.873c-0.52-0.508-1.396-0.967-2.629-1.378
				c-1.716-0.523-2.967-1.207-3.752-2.048c-0.786-0.842-1.179-1.911-1.179-3.208c0-1.321,0.385-2.405,1.154-3.251
				c0.77-0.846,1.827-1.349,3.172-1.511v-2.646h1.801v2.659c1.354,0.186,2.407,0.753,3.16,1.704c0.754,0.951,1.13,2.252,1.13,3.903
				h-2.224c0-1.14-0.27-2.045-0.81-2.716c-0.539-0.671-1.269-1.006-2.188-1.006c-0.958,0-1.691,0.249-2.199,0.745
				c-0.508,0.497-0.761,1.188-0.761,2.076c0,0.823,0.268,1.479,0.804,1.968c0.535,0.488,1.417,0.932,2.646,1.332
				c1.229,0.399,2.188,0.839,2.876,1.318s1.196,1.037,1.522,1.674c0.326,0.636,0.489,1.382,0.489,2.235
				c0,1.362-0.409,2.458-1.227,3.287c-0.817,0.83-1.964,1.321-3.438,1.475v2.308h-1.789v-2.308
				c-1.498-0.137-2.673-0.671-3.522-1.602c-0.851-0.93-1.275-2.193-1.275-3.789h2.236c0,1.12,0.294,1.982,0.882,2.586
				c0.588,0.604,1.422,0.906,2.502,0.906c1.055,0,1.885-0.254,2.489-0.761C114.25,52.298,114.552,51.605,114.552,50.727z"/>
		</g>
		<g>
			<path fill="#0E3553" d="M194.674,87.792c0-0.593-0.208-1.092-0.624-1.498c-0.415-0.406-1.116-0.773-2.102-1.102
				c-1.373-0.419-2.373-0.965-3.001-1.638s-0.942-1.529-0.942-2.566c0-1.057,0.308-1.923,0.923-2.6
				c0.615-0.676,1.461-1.079,2.537-1.208v-2.117h1.44v2.126c1.082,0.148,1.925,0.603,2.527,1.363
				c0.602,0.76,0.903,1.801,0.903,3.122h-1.778c0-0.911-0.216-1.635-0.647-2.172s-1.015-0.805-1.75-0.805
				c-0.767,0-1.353,0.198-1.759,0.595c-0.405,0.397-0.608,0.951-0.608,1.661c0,0.658,0.214,1.183,0.643,1.573
				s1.134,0.746,2.116,1.065c0.982,0.319,1.75,0.671,2.301,1.054s0.957,0.83,1.218,1.338c0.261,0.509,0.392,1.105,0.392,1.788
				c0,1.089-0.327,1.965-0.981,2.629s-1.57,1.057-2.75,1.179v1.846h-1.43V91.58c-1.199-0.109-2.138-0.536-2.817-1.28
				s-1.02-1.754-1.02-3.03h1.788c0,0.896,0.234,1.585,0.705,2.068c0.471,0.483,1.137,0.725,2.001,0.725
				c0.844,0,1.508-0.203,1.99-0.609C194.432,89.048,194.674,88.494,194.674,87.792z"/>
		</g>
		<g>
			<path fill="#0E3553" d="M174.19,59.312c0-0.525-0.184-0.967-0.552-1.326s-0.988-0.685-1.86-0.976
				c-1.215-0.371-2.101-0.854-2.657-1.45c-0.556-0.596-0.834-1.354-0.834-2.271c0-0.936,0.272-1.703,0.817-2.302
				c0.545-0.599,1.293-0.955,2.246-1.069v-1.874h1.274v1.882c0.958,0.131,1.704,0.533,2.237,1.206c0.533,0.673,0.8,1.594,0.8,2.764
				h-1.574c0-0.807-0.191-1.448-0.573-1.923c-0.382-0.475-0.898-0.712-1.549-0.712c-0.679,0-1.197,0.176-1.557,0.527
				c-0.359,0.351-0.539,0.841-0.539,1.47c0,0.583,0.189,1.047,0.569,1.393c0.379,0.346,1.003,0.66,1.873,0.943
				c0.87,0.283,1.549,0.594,2.036,0.933c0.487,0.34,0.847,0.735,1.078,1.185c0.23,0.451,0.347,0.979,0.347,1.583
				c0,0.964-0.29,1.739-0.868,2.327c-0.579,0.587-1.391,0.936-2.435,1.044v1.634h-1.266v-1.634
				c-1.062-0.097-1.893-0.475-2.494-1.134s-0.902-1.553-0.902-2.682h1.582c0,0.793,0.208,1.403,0.625,1.831
				c0.416,0.428,1.007,0.642,1.771,0.642c0.747,0,1.335-0.18,1.763-0.539S174.19,59.933,174.19,59.312z"/>
		</g>
		<g>
			<path fill="#0E3553" d="M44.272,34.502c0-0.525-0.184-0.967-0.552-1.326s-0.988-0.685-1.861-0.976
				c-1.215-0.371-2.1-0.854-2.656-1.45c-0.556-0.596-0.834-1.354-0.834-2.271c0-0.936,0.272-1.703,0.817-2.302
				c0.544-0.599,1.293-0.955,2.246-1.069v-1.874h1.275v1.882c0.958,0.131,1.704,0.533,2.237,1.206c0.533,0.673,0.8,1.594,0.8,2.764
				H44.17c0-0.807-0.191-1.448-0.573-1.923c-0.382-0.475-0.898-0.712-1.548-0.712c-0.679,0-1.198,0.176-1.557,0.527
				c-0.359,0.351-0.539,0.841-0.539,1.47c0,0.583,0.189,1.047,0.569,1.393s1.004,0.66,1.874,0.943
				c0.87,0.283,1.549,0.594,2.036,0.933c0.488,0.34,0.847,0.735,1.078,1.185c0.231,0.451,0.347,0.979,0.347,1.583
				c0,0.964-0.29,1.739-0.869,2.327s-1.39,0.936-2.434,1.044v1.634h-1.266v-1.634c-1.061-0.097-1.892-0.475-2.494-1.134
				c-0.602-0.659-0.903-1.553-0.903-2.682h1.583c0,0.793,0.208,1.403,0.625,1.831c0.416,0.428,1.006,0.642,1.771,0.642
				c0.747,0,1.334-0.18,1.762-0.539S44.272,35.124,44.272,34.502z"/>
		</g>
	</g>
	<polyline fill="none" stroke="#70BA4D" stroke-width="4.2415" stroke-miterlimit="10" points="10.078,30.85 42.831,56.986 
		67.829,39.95 109.901,81.441 135.136,63.654 187.691,118.813 	"/>
	<polygon fill="#70BA4D" points="176.657,117.656 186.826,117.905 187.069,107.736 191.28,112.156 191.035,122.323 180.868,122.077 
			"/>
	<path fill="#70BA4D" d="M135.137,59.693c2.187,0,3.96,1.774,3.96,3.961c0,2.188-1.773,3.96-3.96,3.96
		c-2.188,0-3.961-1.772-3.961-3.96C131.176,61.467,132.949,59.693,135.137,59.693 M135.137,56.787c-3.787,0-6.868,3.081-6.868,6.868
		c0,3.786,3.081,6.868,6.868,6.868c3.786,0,6.868-3.081,6.868-6.868C142.004,59.868,138.923,56.787,135.137,56.787"/>
	<path fill="#FFFFFF" d="M135.137,59.693c-2.188,0-3.961,1.773-3.961,3.96c0,2.188,1.773,3.961,3.961,3.961
		c2.187,0,3.96-1.773,3.96-3.961C139.097,61.467,137.324,59.693,135.137,59.693"/>
	<path fill="#70BA4D" d="M109.901,77.593c2.187,0,3.961,1.774,3.961,3.961c0,2.188-1.774,3.96-3.961,3.96
		c-2.188,0-3.96-1.772-3.96-3.96C105.94,79.368,107.713,77.593,109.901,77.593 M109.901,74.687c-3.787,0-6.868,3.081-6.868,6.868
		c0,3.786,3.081,6.868,6.868,6.868c3.786,0,6.868-3.081,6.868-6.868C116.768,77.768,113.687,74.687,109.901,74.687"/>
	<path fill="#FFFFFF" d="M109.901,77.594c-2.188,0-3.961,1.773-3.961,3.96c0,2.188,1.773,3.961,3.961,3.961
		c2.187,0,3.96-1.773,3.96-3.961C113.861,79.367,112.088,77.594,109.901,77.594"/>
	<path fill="#70BA4D" d="M67.829,35.989c2.187,0,3.96,1.774,3.96,3.961c0,2.188-1.773,3.96-3.96,3.96c-2.188,0-3.96-1.772-3.96-3.96
		C63.869,37.763,65.641,35.989,67.829,35.989 M67.829,33.083c-3.787,0-6.868,3.081-6.868,6.868c0,3.786,3.081,6.868,6.868,6.868
		c3.786,0,6.868-3.081,6.868-6.868C74.696,36.164,71.615,33.083,67.829,33.083"/>
	<path fill="#FFFFFF" d="M67.829,35.989c-2.188,0-3.96,1.773-3.96,3.96c0,2.188,1.772,3.961,3.96,3.961
		c2.187,0,3.961-1.773,3.961-3.961C71.79,37.763,70.016,35.989,67.829,35.989"/>
	<path fill="#70BA4D" d="M42.831,52.712c2.187,0,3.96,1.774,3.96,3.961c0,2.188-1.773,3.96-3.96,3.96
		c-2.188,0-3.961-1.772-3.961-3.96C38.87,54.486,40.643,52.712,42.831,52.712 M42.831,49.806c-3.787,0-6.868,3.081-6.868,6.868
		c0,3.786,3.081,6.868,6.868,6.868c3.786,0,6.868-3.081,6.868-6.868C49.699,52.887,46.618,49.806,42.831,49.806"/>
	<path fill="#FFFFFF" d="M42.831,52.712c-2.188,0-3.961,1.773-3.961,3.96c0,2.188,1.773,3.961,3.961,3.961
		c2.187,0,3.96-1.773,3.96-3.961C46.791,54.486,45.018,52.712,42.831,52.712"/>
	<g>
		<path d="M48.689,98.566c-0.062,0.849-0.375,1.518-0.94,2.006c-0.565,0.487-1.311,0.731-2.236,0.731
			c-1.012,0-1.808-0.341-2.388-1.021c-0.58-0.681-0.87-1.616-0.87-2.805v-0.482c0-0.759,0.133-1.427,0.401-2.005
			s0.649-1.022,1.146-1.331c0.497-0.309,1.074-0.463,1.732-0.463c0.911,0,1.644,0.244,2.201,0.732
			c0.556,0.488,0.878,1.172,0.964,2.054h-1.626c-0.04-0.509-0.182-0.879-0.425-1.108c-0.244-0.229-0.615-0.344-1.114-0.344
			c-0.542,0-0.948,0.194-1.217,0.583c-0.269,0.389-0.407,0.991-0.415,1.808v0.596c0,0.853,0.129,1.476,0.388,1.87
			c0.258,0.394,0.666,0.591,1.222,0.591c0.502,0,0.877-0.115,1.125-0.344c0.247-0.229,0.389-0.584,0.425-1.065H48.689z"/>
		<path d="M56.24,97.428c0,0.777-0.138,1.458-0.412,2.043c-0.275,0.586-0.667,1.037-1.179,1.355
			c-0.512,0.317-1.098,0.477-1.759,0.477c-0.654,0-1.237-0.157-1.75-0.472s-0.911-0.763-1.192-1.347
			c-0.282-0.583-0.425-1.255-0.428-2.014v-0.39c0-0.777,0.14-1.461,0.42-2.052c0.28-0.591,0.676-1.044,1.187-1.36
			c0.511-0.316,1.096-0.475,1.753-0.475s1.242,0.158,1.753,0.475c0.511,0.316,0.907,0.77,1.187,1.36
			c0.28,0.591,0.42,1.273,0.42,2.046V97.428z M54.592,97.07c0-0.827-0.148-1.456-0.444-1.886c-0.296-0.43-0.719-0.645-1.269-0.645
			c-0.545,0-0.967,0.212-1.263,0.637c-0.296,0.424-0.446,1.047-0.45,1.867v0.385c0,0.806,0.148,1.431,0.445,1.875
			c0.296,0.444,0.723,0.667,1.279,0.667c0.546,0,0.965-0.214,1.258-0.642c0.292-0.428,0.441-1.052,0.444-1.873V97.07z"/>
		<path d="M61.513,99.125c0-0.307-0.108-0.543-0.325-0.708s-0.607-0.338-1.171-0.521c-0.563-0.182-1.01-0.362-1.339-0.539
			c-0.896-0.484-1.344-1.137-1.344-1.957c0-0.426,0.12-0.807,0.361-1.141c0.24-0.334,0.585-0.596,1.035-0.783
			c0.45-0.188,0.955-0.282,1.515-0.282c0.563,0,1.066,0.102,1.507,0.306c0.44,0.205,0.783,0.493,1.027,0.865
			c0.244,0.372,0.366,0.795,0.366,1.269h-1.626c0-0.361-0.114-0.643-0.341-0.843c-0.228-0.2-0.547-0.301-0.959-0.301
			c-0.397,0-0.707,0.084-0.927,0.252c-0.221,0.168-0.331,0.389-0.331,0.664c0,0.257,0.129,0.472,0.387,0.645
			c0.258,0.174,0.639,0.336,1.141,0.488c0.925,0.278,1.599,0.624,2.022,1.036c0.423,0.412,0.634,0.925,0.634,1.539
			c0,0.683-0.258,1.219-0.775,1.607c-0.517,0.389-1.212,0.583-2.087,0.583c-0.607,0-1.16-0.111-1.659-0.333
			c-0.499-0.223-0.879-0.527-1.141-0.913c-0.262-0.387-0.393-0.835-0.393-1.345h1.631c0,0.871,0.521,1.306,1.561,1.306
			c0.387,0,0.688-0.078,0.905-0.235S61.513,99.407,61.513,99.125z"/>
		<path d="M70.186,94.621h-2.417v6.575h-1.626v-6.575h-2.385v-1.317h6.429V94.621z"/>
	</g>
	<g opacity="0.1">
		<g>
			<defs>
				<rect id="SVGID_1_" x="3.348" y="26.841" width="194.167" height="150.985"/>
			</defs>
			<clipPath id="SVGID_2_">
				<use xlink:href="#SVGID_1_"  overflow="visible"/>
			</clipPath>
			<path clip-path="url(#SVGID_2_)" d="M6.785,177.822c-0.881,0-1.762-0.332-2.43-1.005c-0.674-0.674-1.011-1.549-1.011-2.43
				v-55.738h76.928v55.738c0,0.881-0.336,1.757-1.01,2.43c-0.668,0.674-1.55,1.005-2.431,1.005H6.785z"/>
			<path clip-path="url(#SVGID_2_)" d="M56.604,135.255c0,0.632-0.517,1.148-1.149,1.148h-9.544c-0.627,0-1.144-0.516-1.144-1.148
				v-9.539c0-0.632,0.517-1.144,1.144-1.144h9.544c0.632,0,1.149,0.512,1.149,1.144V135.255z"/>
			<path clip-path="url(#SVGID_2_)" d="M21.099,153.01c0,0.632-0.517,1.148-1.149,1.148h-9.539c-0.631,0-1.148-0.516-1.148-1.148
				v-9.544c0-0.628,0.517-1.144,1.148-1.144h9.539c0.632,0,1.149,0.516,1.149,1.144V153.01z"/>
			<path clip-path="url(#SVGID_2_)" d="M38.85,153.01c0,0.632-0.517,1.148-1.145,1.148h-9.544c-0.627,0-1.144-0.516-1.144-1.148
				v-9.544c0-0.628,0.517-1.144,1.144-1.144h9.544c0.628,0,1.145,0.516,1.145,1.144V153.01z"/>
			<path clip-path="url(#SVGID_2_)" d="M21.099,170.76c0,0.632-0.517,1.148-1.149,1.148h-9.539c-0.631,0-1.148-0.516-1.148-1.148
				v-9.544c0-0.628,0.517-1.145,1.148-1.145h9.539c0.632,0,1.149,0.517,1.149,1.145V170.76z"/>
			<path clip-path="url(#SVGID_2_)" d="M38.85,170.76c0,0.632-0.517,1.148-1.145,1.148h-9.544c-0.627,0-1.144-0.516-1.144-1.148
				v-9.544c0-0.628,0.517-1.145,1.144-1.145h9.544c0.628,0,1.145,0.517,1.145,1.145V170.76z"/>
			<path clip-path="url(#SVGID_2_)" d="M74.354,135.255c0,0.632-0.517,1.148-1.144,1.148h-9.544c-0.632,0-1.149-0.516-1.149-1.148
				v-9.539c0-0.632,0.517-1.144,1.149-1.144h9.544c0.627,0,1.144,0.512,1.144,1.144V135.255z"/>
			<path clip-path="url(#SVGID_2_)" d="M56.604,153.01c0,0.632-0.517,1.148-1.149,1.148h-9.544c-0.627,0-1.144-0.516-1.144-1.148
				v-9.544c0-0.628,0.517-1.144,1.144-1.144h9.544c0.632,0,1.149,0.516,1.149,1.144V153.01z"/>
			<path clip-path="url(#SVGID_2_)" d="M74.354,153.01c0,0.632-0.517,1.148-1.144,1.148h-9.544c-0.632,0-1.149-0.516-1.149-1.148
				v-9.544c0-0.628,0.517-1.144,1.149-1.144h9.544c0.627,0,1.144,0.516,1.144,1.144V153.01z"/>
			<path clip-path="url(#SVGID_2_)" d="M56.604,170.76c0,0.632-0.517,1.148-1.149,1.148h-9.544c-0.627,0-1.144-0.516-1.144-1.148
				v-9.544c0-0.628,0.517-1.145,1.144-1.145h9.544c0.632,0,1.149,0.517,1.149,1.145V170.76z"/>
			<path clip-path="url(#SVGID_2_)" d="M74.354,170.76c0,0.632-0.517,1.148-1.144,1.148h-9.544c-0.632,0-1.149-0.516-1.149-1.148
				v-9.544c0-0.628,0.517-1.145,1.149-1.145h9.544c0.627,0,1.144,0.517,1.144,1.145V170.76z"/>
			<rect x="3.344" y="115.692" clip-path="url(#SVGID_2_)" width="76.928" height="2.957"/>
			<path clip-path="url(#SVGID_2_)" d="M3.344,115.692V89.546c0-0.881,0.337-1.762,1.011-2.431c0.668-0.673,1.549-1.01,2.43-1.01
				h70.046c0.881,0,1.762,0.337,2.431,1.01c0.673,0.669,1.01,1.55,1.01,2.431v26.146H3.344z"/>
			<path clip-path="url(#SVGID_2_)" d="M74.354,108.63c0,0.627-0.517,1.144-1.144,1.144H10.411c-0.631,0-1.149-0.517-1.149-1.144
				V93.167c0-0.627,0.518-1.145,1.149-1.145H73.21c0.627,0,1.144,0.518,1.144,1.145V108.63z"/>
			<rect x="9.262" y="126.048" clip-path="url(#SVGID_2_)" width="29.588" height="8.875"/>
			<rect x="10.744" y="127.528" clip-path="url(#SVGID_2_)" width="26.625" height="5.919"/>
			<rect x="28.004" y="127.528" clip-path="url(#SVGID_2_)" width="1.476" height="5.919"/>
			<rect x="18.632" y="127.528" clip-path="url(#SVGID_2_)" width="1.481" height="5.919"/>
			<g clip-path="url(#SVGID_2_)">
				<path d="M48.689,102.685c-0.062,0.85-0.375,1.518-0.94,2.006c-0.565,0.487-1.311,0.731-2.236,0.731
					c-1.012,0-1.808-0.341-2.388-1.021c-0.58-0.682-0.87-1.616-0.87-2.806v-0.482c0-0.759,0.133-1.427,0.401-2.005
					s0.649-1.022,1.146-1.331c0.497-0.309,1.074-0.463,1.732-0.463c0.911,0,1.644,0.244,2.201,0.732
					c0.556,0.488,0.878,1.172,0.964,2.054h-1.626c-0.04-0.509-0.182-0.878-0.425-1.108c-0.244-0.229-0.615-0.344-1.114-0.344
					c-0.542,0-0.948,0.194-1.217,0.583c-0.269,0.389-0.407,0.991-0.415,1.808v0.596c0,0.854,0.129,1.477,0.388,1.87
					c0.258,0.395,0.666,0.591,1.222,0.591c0.502,0,0.877-0.114,1.125-0.344c0.247-0.229,0.389-0.585,0.425-1.065H48.689z"/>
				<path d="M56.24,101.546c0,0.777-0.138,1.459-0.412,2.044c-0.275,0.585-0.667,1.037-1.179,1.355
					c-0.512,0.317-1.098,0.477-1.759,0.477c-0.654,0-1.237-0.157-1.75-0.472s-0.911-0.764-1.192-1.347
					c-0.282-0.584-0.425-1.255-0.428-2.014v-0.391c0-0.776,0.14-1.46,0.42-2.051c0.28-0.591,0.676-1.044,1.187-1.36
					c0.511-0.316,1.096-0.475,1.753-0.475s1.242,0.158,1.753,0.475c0.511,0.316,0.907,0.77,1.187,1.36
					c0.28,0.591,0.42,1.273,0.42,2.046V101.546z M54.592,101.188c0-0.827-0.148-1.456-0.444-1.886
					c-0.296-0.43-0.719-0.645-1.269-0.645c-0.545,0-0.967,0.212-1.263,0.637c-0.296,0.424-0.446,1.046-0.45,1.867v0.385
					c0,0.807,0.148,1.432,0.445,1.876c0.296,0.444,0.723,0.667,1.279,0.667c0.546,0,0.965-0.215,1.258-0.643
					c0.292-0.429,0.441-1.053,0.444-1.873V101.188z"/>
				<path d="M61.513,103.243c0-0.308-0.108-0.543-0.325-0.708c-0.217-0.164-0.607-0.338-1.171-0.52
					c-0.563-0.183-1.01-0.362-1.339-0.54c-0.896-0.483-1.344-1.136-1.344-1.957c0-0.426,0.12-0.807,0.361-1.141
					c0.24-0.334,0.585-0.596,1.035-0.783c0.45-0.188,0.955-0.282,1.515-0.282c0.563,0,1.066,0.102,1.507,0.306
					c0.44,0.205,0.783,0.493,1.027,0.865c0.244,0.372,0.366,0.795,0.366,1.269h-1.626c0-0.361-0.114-0.643-0.341-0.843
					c-0.228-0.2-0.547-0.301-0.959-0.301c-0.397,0-0.707,0.084-0.927,0.252c-0.221,0.168-0.331,0.389-0.331,0.664
					c0,0.257,0.129,0.472,0.387,0.645c0.258,0.174,0.639,0.337,1.141,0.488c0.925,0.278,1.599,0.624,2.022,1.035
					c0.423,0.412,0.634,0.926,0.634,1.54c0,0.683-0.258,1.219-0.775,1.606c-0.517,0.389-1.212,0.583-2.087,0.583
					c-0.607,0-1.16-0.111-1.659-0.333c-0.499-0.223-0.879-0.527-1.141-0.914c-0.262-0.386-0.393-0.834-0.393-1.344h1.631
					c0,0.871,0.521,1.307,1.561,1.307c0.387,0,0.688-0.079,0.905-0.236S61.513,103.524,61.513,103.243z"/>
				<path d="M70.186,98.739h-2.417v6.575h-1.626v-6.575h-2.385v-1.317h6.429V98.739z"/>
			</g>
			<polyline clip-path="url(#SVGID_2_)" fill="none" stroke="#000000" stroke-width="4.2415" stroke-miterlimit="10" points="
				10.078,34.968 42.831,61.103 67.829,44.068 109.901,85.559 135.136,67.772 187.691,122.93 			"/>
			<polygon clip-path="url(#SVGID_2_)" points="176.657,121.774 186.826,122.022 187.069,111.853 191.28,116.274 191.035,126.44 
				180.868,126.194 			"/>
			<path clip-path="url(#SVGID_2_)" d="M135.137,63.811c2.187,0,3.96,1.774,3.96,3.961c0,2.188-1.773,3.96-3.96,3.96
				c-2.188,0-3.961-1.772-3.961-3.96C131.176,65.585,132.949,63.811,135.137,63.811 M135.137,60.904
				c-3.787,0-6.868,3.081-6.868,6.868c0,3.786,3.081,6.868,6.868,6.868c3.786,0,6.868-3.081,6.868-6.868
				C142.004,63.985,138.923,60.904,135.137,60.904"/>
			<path clip-path="url(#SVGID_2_)" d="M135.137,63.811c-2.188,0-3.961,1.773-3.961,3.96c0,2.188,1.773,3.961,3.961,3.961
				c2.187,0,3.96-1.773,3.96-3.961C139.097,65.585,137.324,63.811,135.137,63.811"/>
			<path clip-path="url(#SVGID_2_)" d="M109.901,81.711c2.187,0,3.961,1.774,3.961,3.961c0,2.188-1.774,3.96-3.961,3.96
				c-2.188,0-3.96-1.772-3.96-3.96C105.94,83.485,107.713,81.711,109.901,81.711 M109.901,78.804c-3.787,0-6.868,3.081-6.868,6.868
				c0,3.786,3.081,6.868,6.868,6.868c3.786,0,6.868-3.081,6.868-6.868C116.768,81.885,113.687,78.804,109.901,78.804"/>
			<path clip-path="url(#SVGID_2_)" d="M109.901,81.711c-2.188,0-3.961,1.773-3.961,3.96c0,2.188,1.773,3.961,3.961,3.961
				c2.187,0,3.96-1.773,3.96-3.961C113.861,83.485,112.088,81.711,109.901,81.711"/>
			<path clip-path="url(#SVGID_2_)" d="M67.829,40.107c2.187,0,3.96,1.774,3.96,3.961c0,2.188-1.773,3.96-3.96,3.96
				c-2.188,0-3.96-1.772-3.96-3.96C63.869,41.881,65.641,40.107,67.829,40.107 M67.829,37.2c-3.787,0-6.868,3.081-6.868,6.868
				c0,3.786,3.081,6.868,6.868,6.868c3.786,0,6.868-3.081,6.868-6.868C74.696,40.281,71.615,37.2,67.829,37.2"/>
			<path clip-path="url(#SVGID_2_)" d="M67.829,40.107c-2.188,0-3.96,1.773-3.96,3.96c0,2.188,1.772,3.961,3.96,3.961
				c2.187,0,3.961-1.773,3.961-3.961C71.79,41.88,70.016,40.107,67.829,40.107"/>
			<path clip-path="url(#SVGID_2_)" d="M42.831,56.83c2.187,0,3.96,1.774,3.96,3.961c0,2.188-1.773,3.96-3.96,3.96
				c-2.188,0-3.961-1.772-3.961-3.96C38.87,58.604,40.643,56.83,42.831,56.83 M42.831,53.923c-3.787,0-6.868,3.081-6.868,6.868
				c0,3.786,3.081,6.868,6.868,6.868c3.786,0,6.868-3.081,6.868-6.868C49.699,57.004,46.618,53.923,42.831,53.923"/>
			<path clip-path="url(#SVGID_2_)" d="M42.831,56.83c-2.188,0-3.961,1.773-3.961,3.96c0,2.189,1.773,3.961,3.961,3.961
				c2.187,0,3.96-1.772,3.96-3.961C46.791,58.603,45.018,56.83,42.831,56.83"/>
			<g clip-path="url(#SVGID_2_)">
				<path d="M139.609,126.211c0-0.845-0.268-1.543-0.804-2.095c-0.537-0.551-1.431-1.048-2.684-1.491
					c-1.252-0.442-2.226-0.852-2.922-1.23c-2.316-1.243-3.473-3.081-3.473-5.517c0-1.649,0.501-3.006,1.505-4.07
					c1.004-1.064,2.366-1.694,4.085-1.893v-3.25h2.385v3.279c1.73,0.249,3.067,0.982,4.01,2.199c0.945,1.218,1.417,2.8,1.417,4.748
					h-3.608c0-1.253-0.281-2.239-0.842-2.96c-0.561-0.72-1.324-1.081-2.288-1.081c-0.954,0-1.7,0.258-2.236,0.775
					c-0.536,0.518-0.805,1.257-0.805,2.222c0,0.865,0.266,1.558,0.798,2.08c0.531,0.522,1.433,1.016,2.706,1.483
					c1.272,0.468,2.271,0.9,2.996,1.297c0.726,0.398,1.337,0.853,1.834,1.364c0.497,0.512,0.879,1.101,1.148,1.767
					c0.268,0.666,0.402,1.446,0.402,2.341c0,1.679-0.514,3.041-1.543,4.084c-1.028,1.044-2.462,1.66-4.301,1.849v2.907h-2.371
					v-2.893c-1.968-0.219-3.481-0.924-4.539-2.117c-1.058-1.193-1.588-2.773-1.588-4.741h3.623c0,1.252,0.315,2.221,0.946,2.907
					c0.631,0.685,1.523,1.028,2.676,1.028c1.132,0,1.995-0.273,2.586-0.82C139.314,127.84,139.609,127.115,139.609,126.211z"/>
			</g>
			<g clip-path="url(#SVGID_2_)">
				<path d="M106.618,141.719c0-0.616-0.216-1.134-0.648-1.555c-0.431-0.422-1.159-0.803-2.182-1.144
					c-1.425-0.435-2.464-1.002-3.116-1.701c-0.652-0.699-0.978-1.587-0.978-2.664c0-1.097,0.319-1.996,0.958-2.699
					c0.638-0.703,1.516-1.12,2.633-1.254v-2.198h1.495v2.207c1.124,0.154,1.999,0.626,2.624,1.415
					c0.625,0.79,0.939,1.87,0.939,3.241h-1.846c0-0.946-0.225-1.697-0.673-2.254c-0.448-0.557-1.053-0.835-1.816-0.835
					c-0.796,0-1.405,0.206-1.826,0.618c-0.422,0.412-0.632,0.987-0.632,1.724c0,0.683,0.222,1.228,0.667,1.633
					c0.445,0.406,1.177,0.774,2.198,1.106c1.02,0.332,1.816,0.697,2.388,1.095c0.572,0.398,0.994,0.861,1.264,1.39
					c0.271,0.529,0.406,1.147,0.406,1.856c0,1.131-0.339,2.041-1.019,2.73c-0.679,0.689-1.63,1.096-2.854,1.224v1.916h-1.485v-1.916
					c-1.244-0.114-2.219-0.557-2.924-1.33c-0.706-0.772-1.058-1.82-1.058-3.145h1.856c0,0.929,0.245,1.645,0.733,2.147
					c0.488,0.502,1.181,0.753,2.076,0.753c0.877,0,1.566-0.211,2.068-0.632C106.366,143.023,106.618,142.448,106.618,141.719z"/>
			</g>
			<g clip-path="url(#SVGID_2_)">
				<path d="M165.801,162.913c0-0.504-0.177-0.927-0.53-1.273c-0.353-0.344-0.948-0.656-1.785-0.935
					c-1.165-0.356-2.015-0.82-2.548-1.392c-0.534-0.572-0.801-1.298-0.801-2.18c0-0.897,0.262-1.633,0.785-2.208
					c0.522-0.574,1.24-0.916,2.155-1.026v-1.797h1.223v1.805c0.919,0.127,1.634,0.512,2.146,1.157
					c0.512,0.646,0.767,1.53,0.767,2.651h-1.51c0-0.774-0.183-1.389-0.55-1.845c-0.367-0.456-0.862-0.684-1.485-0.684
					c-0.651,0-1.15,0.169-1.494,0.506c-0.344,0.337-0.517,0.807-0.517,1.41c0,0.56,0.182,1.005,0.545,1.337
					c0.364,0.332,0.964,0.633,1.798,0.904c0.834,0.272,1.485,0.57,1.953,0.896c0.468,0.326,0.813,0.704,1.034,1.137
					c0.222,0.432,0.332,0.939,0.332,1.519c0,0.925-0.277,1.669-0.833,2.232c-0.555,0.564-1.334,0.897-2.335,1.002v1.568h-1.214
					v-1.568c-1.018-0.093-1.816-0.456-2.393-1.088s-0.866-1.49-0.866-2.573h1.519c0,0.76,0.2,1.346,0.599,1.757
					c0.399,0.41,0.965,0.616,1.699,0.616c0.716,0,1.281-0.173,1.69-0.518C165.596,163.98,165.801,163.509,165.801,162.913z"/>
			</g>
			<g clip-path="url(#SVGID_2_)">
				<path d="M114.553,54.845c0-0.741-0.26-1.365-0.78-1.873c-0.519-0.507-1.395-0.966-2.628-1.378
					c-1.716-0.524-2.967-1.206-3.752-2.048c-0.785-0.842-1.178-1.912-1.178-3.209c0-1.321,0.384-2.405,1.154-3.251
					c0.769-0.846,1.826-1.349,3.172-1.51v-2.647h1.801v2.659c1.353,0.185,2.406,0.754,3.16,1.703c0.754,0.952,1.13,2.253,1.13,3.904
					h-2.223c0-1.139-0.27-2.044-0.809-2.715s-1.269-1.007-2.187-1.007c-0.959,0-1.692,0.248-2.199,0.745
					c-0.508,0.496-0.761,1.188-0.761,2.076c0,0.823,0.268,1.479,0.803,1.967c0.536,0.488,1.417,0.933,2.646,1.332
					s2.187,0.839,2.876,1.318c0.689,0.479,1.197,1.037,1.523,1.673c0.326,0.636,0.49,1.382,0.49,2.236
					c0,1.362-0.409,2.458-1.227,3.287c-0.817,0.83-1.963,1.322-3.438,1.475v2.308h-1.789v-2.308
					c-1.498-0.138-2.673-0.671-3.523-1.602c-0.85-0.93-1.275-2.193-1.275-3.788h2.236c0,1.119,0.294,1.982,0.882,2.586
					c0.588,0.604,1.422,0.906,2.502,0.906c1.056,0,1.885-0.253,2.49-0.761C114.25,56.416,114.553,55.723,114.553,54.845z"/>
			</g>
			<g clip-path="url(#SVGID_2_)">
				<path d="M194.674,91.91c0-0.592-0.208-1.092-0.623-1.498c-0.415-0.406-1.116-0.773-2.102-1.102
					c-1.373-0.419-2.372-0.964-3.001-1.638c-0.628-0.673-0.942-1.529-0.942-2.566c0-1.057,0.307-1.923,0.923-2.6
					c0.615-0.676,1.461-1.079,2.537-1.208v-2.117h1.44v2.126c1.082,0.149,1.925,0.603,2.527,1.363
					c0.603,0.76,0.903,1.801,0.903,3.122h-1.778c0-0.911-0.215-1.635-0.648-2.172c-0.431-0.536-1.014-0.805-1.749-0.805
					c-0.766,0-1.353,0.199-1.759,0.596c-0.406,0.397-0.609,0.95-0.609,1.66c0,0.659,0.214,1.183,0.643,1.573
					c0.428,0.391,1.133,0.746,2.117,1.065c0.982,0.319,1.749,0.671,2.3,1.054c0.55,0.383,0.957,0.83,1.218,1.339
					s0.391,1.105,0.391,1.788c0,1.088-0.326,1.965-0.981,2.629c-0.654,0.663-1.571,1.057-2.75,1.179v1.845h-1.43v-1.845
					c-1.199-0.11-2.137-0.536-2.817-1.281c-0.68-0.744-1.02-1.754-1.02-3.03h1.788c0,0.896,0.235,1.585,0.705,2.068
					c0.47,0.483,1.138,0.725,2,0.725c0.844,0,1.508-0.203,1.991-0.609C194.432,93.167,194.674,92.613,194.674,91.91z"/>
			</g>
			<g clip-path="url(#SVGID_2_)">
				<path d="M174.191,63.429c0-0.524-0.183-0.966-0.552-1.325c-0.368-0.36-0.988-0.685-1.86-0.976c-1.215-0.37-2.1-0.854-2.657-1.45
					c-0.556-0.596-0.834-1.353-0.834-2.272c0-0.935,0.272-1.702,0.817-2.301c0.544-0.598,1.293-0.955,2.246-1.07v-1.874h1.274v1.882
					c0.958,0.132,1.704,0.533,2.237,1.206c0.533,0.673,0.8,1.594,0.8,2.763h-1.574c0-0.807-0.191-1.448-0.574-1.923
					c-0.382-0.474-0.898-0.712-1.548-0.712c-0.679,0-1.198,0.176-1.557,0.527s-0.539,0.841-0.539,1.47
					c0,0.583,0.189,1.047,0.569,1.392c0.379,0.346,1.003,0.66,1.873,0.943c0.87,0.283,1.549,0.594,2.037,0.933
					s0.847,0.735,1.078,1.185c0.231,0.45,0.346,0.978,0.346,1.583c0,0.964-0.289,1.74-0.868,2.327
					c-0.58,0.587-1.391,0.935-2.434,1.044v1.634h-1.266v-1.634c-1.061-0.097-1.892-0.474-2.494-1.133
					c-0.602-0.659-0.902-1.554-0.902-2.682h1.583c0,0.793,0.208,1.403,0.624,1.831c0.416,0.428,1.007,0.642,1.771,0.642
					c0.747,0,1.335-0.179,1.763-0.539C173.978,64.542,174.191,64.051,174.191,63.429z"/>
			</g>
			<g clip-path="url(#SVGID_2_)">
				<path d="M44.273,38.619c0-0.524-0.183-0.966-0.552-1.325c-0.368-0.36-0.988-0.685-1.86-0.976c-1.215-0.37-2.1-0.854-2.657-1.45
					c-0.556-0.596-0.834-1.353-0.834-2.272c0-0.935,0.272-1.702,0.817-2.301c0.544-0.598,1.293-0.955,2.246-1.07v-1.874h1.274v1.882
					c0.958,0.132,1.704,0.533,2.237,1.206c0.533,0.673,0.8,1.594,0.8,2.763H44.17c0-0.807-0.191-1.448-0.574-1.923
					c-0.382-0.474-0.898-0.712-1.548-0.712c-0.679,0-1.198,0.176-1.557,0.527c-0.359,0.351-0.539,0.841-0.539,1.47
					c0,0.583,0.189,1.047,0.569,1.392c0.379,0.346,1.003,0.66,1.873,0.943c0.87,0.283,1.549,0.594,2.037,0.933
					c0.487,0.339,0.847,0.735,1.078,1.185c0.231,0.45,0.346,0.978,0.346,1.583c0,0.964-0.289,1.74-0.868,2.327
					c-0.58,0.587-1.391,0.935-2.434,1.044v1.634h-1.266v-1.634c-1.061-0.097-1.892-0.474-2.494-1.133
					c-0.602-0.659-0.902-1.554-0.902-2.682h1.583c0,0.793,0.208,1.403,0.624,1.831c0.416,0.428,1.007,0.642,1.771,0.642
					c0.747,0,1.335-0.179,1.763-0.539C44.059,39.732,44.273,39.241,44.273,38.619z"/>
			</g>
		</g>
	</g>
	<path fill="#0A384F" d="M6.785,173.705c-0.881,0-1.762-0.332-2.43-1.005c-0.674-0.674-1.011-1.55-1.011-2.431v-55.737h76.928
		v55.737c0,0.881-0.336,1.757-1.01,2.431c-0.668,0.674-1.55,1.005-2.431,1.005H6.785z"/>
	<path fill="#EA6663" d="M56.604,131.137c0,0.632-0.517,1.148-1.149,1.148h-9.544c-0.627,0-1.144-0.516-1.144-1.148v-9.539
		c0-0.631,0.517-1.144,1.144-1.144h9.544c0.632,0,1.149,0.512,1.149,1.144V131.137z"/>
	<path fill="#236384" d="M21.099,148.892c0,0.632-0.517,1.148-1.149,1.148h-9.539c-0.631,0-1.148-0.516-1.148-1.148v-9.544
		c0-0.628,0.517-1.145,1.148-1.145h9.539c0.632,0,1.149,0.517,1.149,1.145V148.892z"/>
	<path fill="#236384" d="M38.85,148.892c0,0.632-0.517,1.148-1.145,1.148h-9.544c-0.627,0-1.144-0.516-1.144-1.148v-9.544
		c0-0.628,0.517-1.145,1.144-1.145h9.544c0.628,0,1.145,0.517,1.145,1.145V148.892z"/>
	<path fill="#236384" d="M21.099,166.642c0,0.632-0.517,1.148-1.149,1.148h-9.539c-0.631,0-1.148-0.516-1.148-1.148v-9.544
		c0-0.627,0.517-1.144,1.148-1.144h9.539c0.632,0,1.149,0.517,1.149,1.144V166.642z"/>
	<path fill="#236384" d="M38.85,166.642c0,0.632-0.517,1.148-1.145,1.148h-9.544c-0.627,0-1.144-0.516-1.144-1.148v-9.544
		c0-0.627,0.517-1.144,1.144-1.144h9.544c0.628,0,1.145,0.517,1.145,1.144V166.642z"/>
	<path fill="#236384" d="M74.354,131.137c0,0.632-0.517,1.148-1.144,1.148h-9.544c-0.632,0-1.149-0.516-1.149-1.148v-9.539
		c0-0.631,0.517-1.144,1.149-1.144h9.544c0.627,0,1.144,0.512,1.144,1.144V131.137z"/>
	<path fill="#236384" d="M56.604,148.892c0,0.632-0.517,1.148-1.149,1.148h-9.544c-0.627,0-1.144-0.516-1.144-1.148v-9.544
		c0-0.628,0.517-1.145,1.144-1.145h9.544c0.632,0,1.149,0.517,1.149,1.145V148.892z"/>
	<path fill="#236384" d="M74.354,148.892c0,0.632-0.517,1.148-1.144,1.148h-9.544c-0.632,0-1.149-0.516-1.149-1.148v-9.544
		c0-0.628,0.517-1.145,1.149-1.145h9.544c0.627,0,1.144,0.517,1.144,1.145V148.892z"/>
	<path fill="#236384" d="M56.604,166.642c0,0.632-0.517,1.148-1.149,1.148h-9.544c-0.627,0-1.144-0.516-1.144-1.148v-9.544
		c0-0.627,0.517-1.144,1.144-1.144h9.544c0.632,0,1.149,0.517,1.149,1.144V166.642z"/>
	<path fill="#236384" d="M74.354,166.642c0,0.632-0.517,1.148-1.144,1.148h-9.544c-0.632,0-1.149-0.516-1.149-1.148v-9.544
		c0-0.627,0.517-1.144,1.149-1.144h9.544c0.627,0,1.144,0.517,1.144,1.144V166.642z"/>
	<rect x="3.344" y="111.575" fill="#042438" width="76.928" height="2.957"/>
	<path fill="#184F70" d="M3.344,111.575V85.429c0-0.881,0.337-1.762,1.011-2.431c0.668-0.673,1.549-1.011,2.43-1.011h70.046
		c0.881,0,1.762,0.338,2.431,1.011c0.673,0.669,1.01,1.55,1.01,2.431v26.146H3.344z"/>
	<path fill="#FFFFFF" d="M74.354,104.512c0,0.627-0.517,1.144-1.144,1.144H10.411c-0.631,0-1.149-0.517-1.149-1.144V89.05
		c0-0.628,0.518-1.145,1.149-1.145H73.21c0.627,0,1.144,0.517,1.144,1.145V104.512z"/>
	<rect x="9.262" y="121.931" width="29.588" height="8.875"/>
	<rect x="10.744" y="123.41" fill="#262626" width="26.625" height="5.919"/>
	<rect x="28.004" y="123.41" width="1.476" height="5.919"/>
	<rect x="18.632" y="123.41" width="1.481" height="5.919"/>
	<g>
		<path d="M50.454,100.624c-0.062,0.849-0.375,1.518-0.94,2.006c-0.566,0.488-1.312,0.732-2.236,0.732
			c-1.012,0-1.808-0.341-2.387-1.022c-0.58-0.68-0.871-1.616-0.871-2.805v-0.482c0-0.759,0.133-1.427,0.401-2.006
			c0.268-0.578,0.649-1.021,1.146-1.33c0.497-0.309,1.075-0.463,1.732-0.463c0.911,0,1.645,0.244,2.201,0.731
			c0.556,0.488,0.878,1.173,0.964,2.055h-1.626c-0.04-0.51-0.182-0.879-0.425-1.108c-0.244-0.23-0.616-0.344-1.114-0.344
			c-0.542,0-0.947,0.195-1.217,0.583c-0.269,0.388-0.407,0.991-0.414,1.808v0.596c0,0.853,0.129,1.476,0.388,1.87
			c0.258,0.394,0.666,0.591,1.222,0.591c0.502,0,0.878-0.115,1.125-0.344c0.248-0.229,0.389-0.585,0.425-1.065H50.454z"/>
		<path d="M58.004,99.486c0,0.778-0.137,1.459-0.412,2.044c-0.275,0.586-0.667,1.038-1.179,1.355
			c-0.512,0.318-1.098,0.477-1.759,0.477c-0.654,0-1.237-0.158-1.751-0.472s-0.91-0.763-1.192-1.347
			c-0.282-0.583-0.425-1.255-0.429-2.013v-0.39c0-0.777,0.14-1.461,0.42-2.052c0.28-0.591,0.676-1.044,1.188-1.361
			c0.511-0.316,1.095-0.474,1.753-0.474c0.657,0,1.242,0.158,1.753,0.474c0.512,0.317,0.907,0.77,1.187,1.361
			c0.281,0.591,0.42,1.273,0.42,2.046V99.486z M56.356,99.128c0-0.828-0.148-1.456-0.444-1.886
			c-0.297-0.431-0.719-0.645-1.268-0.645c-0.546,0-0.967,0.212-1.263,0.636c-0.296,0.425-0.446,1.047-0.45,1.868v0.384
			c0,0.806,0.148,1.431,0.444,1.876c0.296,0.444,0.723,0.667,1.279,0.667c0.546,0,0.965-0.214,1.258-0.642
			c0.292-0.429,0.44-1.052,0.444-1.873V99.128z"/>
		<path d="M63.277,101.183c0-0.307-0.108-0.543-0.325-0.708c-0.217-0.164-0.607-0.338-1.171-0.52
			c-0.563-0.183-1.01-0.363-1.338-0.539c-0.896-0.485-1.344-1.137-1.344-1.957c0-0.426,0.12-0.806,0.36-1.14
			c0.24-0.335,0.586-0.596,1.035-0.784c0.45-0.188,0.955-0.282,1.516-0.282c0.563,0,1.065,0.102,1.506,0.306
			c0.441,0.204,0.784,0.493,1.027,0.865s0.366,0.795,0.366,1.268h-1.626c0-0.361-0.114-0.642-0.342-0.843
			c-0.227-0.201-0.548-0.301-0.959-0.301c-0.398,0-0.706,0.084-0.927,0.252c-0.22,0.168-0.331,0.389-0.331,0.664
			c0,0.257,0.129,0.471,0.388,0.645c0.258,0.173,0.638,0.336,1.141,0.487c0.925,0.278,1.599,0.623,2.022,1.035
			c0.423,0.412,0.634,0.926,0.634,1.54c0,0.683-0.258,1.219-0.775,1.607c-0.517,0.388-1.212,0.583-2.087,0.583
			c-0.607,0-1.16-0.111-1.659-0.333c-0.499-0.222-0.879-0.527-1.141-0.914c-0.263-0.387-0.394-0.834-0.394-1.344h1.632
			c0,0.871,0.52,1.306,1.561,1.306c0.387,0,0.688-0.078,0.905-0.236C63.17,101.684,63.277,101.465,63.277,101.183z"/>
		<path d="M71.951,96.678h-2.417v6.575h-1.627v-6.575h-2.385v-1.317h6.428V96.678z"/>
	</g>
</g>
</svg>
